<svg width="34" height="35" viewBox="0 0 34 35" fill="none" xmlns="http://www.w3.org/2000/svg">
<path d="M0.500003 31.1117V31.1111V6.80557C0.500003 6.37368 0.569818 6.00127 0.699588 5.68066C0.840262 5.33312 1.02329 4.99812 1.24996 4.67545L3.88488 1.38181L3.8942 1.37015L3.90281 1.35797C4.10729 1.06854 4.35637 0.858703 4.65288 0.718299C4.95966 0.573027 5.29481 0.498922 5.6652 0.500014H5.66667H28.3333C28.7047 0.500014 29.0409 0.574328 29.3484 0.718898C29.6438 0.857749 29.8923 1.06693 30.0967 1.35727L30.1055 1.36982L30.1151 1.38181L32.75 4.67545C32.9767 4.99813 33.1597 5.33312 33.3004 5.68066C33.4302 6.00127 33.5 6.37367 33.5 6.80557V31.1111C33.5 32.0514 33.1798 32.842 32.5307 33.5102C31.882 34.178 31.1215 34.5011 30.2229 34.5H30.2222H3.77778C2.87745 34.5 2.11614 34.1761 1.46742 33.5083C0.818294 32.84 0.498896 32.0503 0.500003 31.1117ZM4.14779 5.51499L3.47206 6.33334H4.53334H29.4667H30.5279L29.8522 5.51499L28.2467 3.57055L28.0967 3.3889H27.8611H6.13889H5.90333L5.75334 3.57055L4.14779 5.51499ZM3.27778 31.1111V31.6111H3.77778H30.2222H30.7222V31.1111V9.72223V9.22223H30.2222H3.77778H3.27778V9.72223V31.1111ZM18.8889 21.0602V15.5556C18.8889 15.0046 18.7076 14.5425 18.3449 14.1692C17.9822 13.7958 17.5339 13.6098 17 13.6111L18.8889 21.0602ZM18.3889 21.7778V23.0101L19.2475 22.1262L20.9475 20.3762C21.1919 20.1246 21.4995 19.9931 21.9111 19.9931C22.3227 19.9931 22.6303 20.1246 22.8747 20.3762C23.1201 20.6288 23.2528 20.9527 23.2528 21.3889C23.2528 21.8251 23.1201 22.1489 22.8747 22.4016L17.9648 27.456C17.9647 27.4561 17.9646 27.4561 17.9645 27.4562C17.8196 27.6043 17.6759 27.6966 17.5346 27.7489C17.3741 27.8084 17.1977 27.8401 17.0014 27.8403C16.8033 27.8391 16.6251 27.8072 16.463 27.748C16.3236 27.6972 16.181 27.606 16.0364 27.4572L11.1253 22.4016C10.8799 22.1489 10.7472 21.8251 10.7472 21.3889C10.7472 20.9527 10.8799 20.6288 11.1253 20.3762C11.3697 20.1246 11.6773 19.9931 12.0889 19.9931C12.5005 19.9931 12.8081 20.1246 13.0525 20.3762L14.7525 22.1262L15.6111 23.0101V21.7778L15.6111 15.5556L15.6111 15.5544C15.6101 15.1272 15.7456 14.7936 16.0119 14.5195C16.2774 14.2461 16.5956 14.1111 17 14.1111L17.0012 14.1111C17.4035 14.1101 17.7207 14.2442 17.9863 14.5176C18.2526 14.7917 18.3889 15.1263 18.3889 15.5556V21.7778Z" fill="#4A154B" stroke="#FFFDFD"/>
</svg>
