<svg width="26" height="27" viewBox="0 0 26 27" fill="none" xmlns="http://www.w3.org/2000/svg">
<path d="M15.1002 18.8957C15.0493 18.8433 14.9805 18.8139 14.9089 18.8139C14.8373 18.8139 14.7685 18.8433 14.7176 18.8957L10.7839 22.981C8.9626 24.8725 5.88874 25.0729 3.87787 22.981C1.86361 20.8891 2.05657 17.7003 3.87787 15.8088L7.8116 11.7234C7.91654 11.6144 7.91654 11.4351 7.8116 11.3261L6.46424 9.92685C6.41334 9.87451 6.3446 9.84515 6.27297 9.84515C6.20134 9.84515 6.1326 9.87451 6.0817 9.92685L2.14798 14.0122C-0.715992 16.9866 -0.715992 21.7997 2.14798 24.7705C5.01195 27.7414 9.64643 27.7449 12.507 24.7705L16.4407 20.6852C16.5457 20.5762 16.5457 20.3969 16.4407 20.2879L15.1002 18.8957ZM23.8546 2.23077C20.9906 -0.743591 16.3561 -0.743591 13.4955 2.23077L9.55841 6.31613C9.50801 6.36899 9.47974 6.44038 9.47974 6.51477C9.47974 6.58916 9.50801 6.66055 9.55841 6.71341L10.9024 8.10919C11.0073 8.21817 11.18 8.21817 11.2849 8.10919L15.2186 4.02383C17.0399 2.13233 20.1138 1.93193 22.1247 4.02383C24.1389 6.11573 23.946 9.30456 22.1247 11.1961L18.1909 15.2814C18.1405 15.3343 18.1123 15.4057 18.1123 15.4801C18.1123 15.5544 18.1405 15.6258 18.1909 15.6787L19.5383 17.078C19.6432 17.187 19.8159 17.187 19.9208 17.078L23.8546 12.9926C26.7151 10.0183 26.7151 5.20514 23.8546 2.23077ZM16.3223 8.59085C16.2714 8.5385 16.2026 8.50914 16.131 8.50914C16.0594 8.50914 15.9906 8.5385 15.9397 8.59085L8.272 16.5506C8.22159 16.6035 8.19332 16.6749 8.19332 16.7493C8.19332 16.8236 8.22159 16.895 8.272 16.9479L9.61258 18.3402C9.71752 18.4491 9.89017 18.4491 9.99512 18.3402L17.6595 10.3804C17.7644 10.2714 17.7644 10.0921 17.6595 9.98311L16.3223 8.59085Z" fill="#898989"/>
</svg>
