<svg width="579" height="733" viewBox="0 0 579 733" fill="none" xmlns="http://www.w3.org/2000/svg">
<g filter="url(#filter0_d_2844_3025)">
<rect x="27.792" y="20" width="513.358" height="668.266" rx="19.8138" fill="#4A154B"/>
</g>
<path d="M503 333C503 453.95 404.95 552 284 552C163.05 552 65 453.95 65 333C65 212.05 163.05 114 284 114C404.95 114 503 212.05 503 333ZM129.086 333C129.086 418.557 198.443 487.914 284 487.914C369.557 487.914 438.914 418.557 438.914 333C438.914 247.443 369.557 178.086 284 178.086C198.443 178.086 129.086 247.443 129.086 333Z" fill="url(#paint0_linear_2844_3025)"/>
<defs>
<filter id="filter0_d_2844_3025" x="0.791992" y="0" width="577.358" height="732.266" filterUnits="userSpaceOnUse" color-interpolation-filters="sRGB">
<feFlood flood-opacity="0" result="BackgroundImageFix"/>
<feColorMatrix in="SourceAlpha" type="matrix" values="0 0 0 0 0 0 0 0 0 0 0 0 0 0 0 0 0 0 127 0" result="hardAlpha"/>
<feOffset dx="5" dy="12"/>
<feGaussianBlur stdDeviation="16"/>
<feComposite in2="hardAlpha" operator="out"/>
<feColorMatrix type="matrix" values="0 0 0 0 0 0 0 0 0 0 0 0 0 0 0 0 0 0 0.25 0"/>
<feBlend mode="normal" in2="BackgroundImageFix" result="effect1_dropShadow_2844_3025"/>
<feBlend mode="normal" in="SourceGraphic" in2="effect1_dropShadow_2844_3025" result="shape"/>
</filter>
<linearGradient id="paint0_linear_2844_3025" x1="284" y1="114" x2="284" y2="552" gradientUnits="userSpaceOnUse">
<stop stop-color="#370738"/>
<stop offset="1" stop-color="#4A154B" stop-opacity="0"/>
</linearGradient>
</defs>
</svg>
