<svg width="20" height="20" viewBox="0 0 20 20" fill="none" xmlns="http://www.w3.org/2000/svg">
<g clip-path="url(#clip0_3075_4503)">
<path d="M9.16634 9.29935C8.77974 9.29935 8.46634 9.61275 8.46634 9.99935C8.46634 10.3859 8.77974 10.6993 9.16634 10.6993V9.29935ZM10.833 10.6993C11.2196 10.6993 11.533 10.3859 11.533 9.99935C11.533 9.61275 11.2196 9.29935 10.833 9.29935V10.6993ZM3.33301 5.69935H16.6663V4.29935H3.33301V5.69935ZM18.4663 7.49935V15.8327H19.8663V7.49935H18.4663ZM16.6663 17.6327H3.33301V19.0327H16.6663V17.6327ZM1.53301 15.8327V7.49935H0.133008V15.8327H1.53301ZM3.33301 17.6327C2.3389 17.6327 1.53301 16.8268 1.53301 15.8327H0.133008C0.133008 17.6 1.5657 19.0327 3.33301 19.0327V17.6327ZM18.4663 15.8327C18.4663 16.8268 17.6605 17.6327 16.6663 17.6327V19.0327C18.4337 19.0327 19.8663 17.6 19.8663 15.8327H18.4663ZM16.6663 5.69935C17.6605 5.69935 18.4663 6.50524 18.4663 7.49935H19.8663C19.8663 5.73204 18.4337 4.29935 16.6663 4.29935V5.69935ZM3.33301 4.29935C1.5657 4.29935 0.133008 5.73204 0.133008 7.49935H1.53301C1.53301 6.50524 2.3389 5.69935 3.33301 5.69935V4.29935ZM8.33301 2.36602H11.6663V0.966016H8.33301V2.36602ZM12.633 3.33268V4.99935H14.033V3.33268H12.633ZM7.36634 4.99935V3.33268H5.96634V4.99935H7.36634ZM11.6663 2.36602C12.2002 2.36602 12.633 2.79881 12.633 3.33268H14.033C14.033 2.02561 12.9734 0.966016 11.6663 0.966016V2.36602ZM8.33301 0.966016C7.02593 0.966016 5.96634 2.02561 5.96634 3.33268H7.36634C7.36634 2.79881 7.79913 2.36602 8.33301 2.36602V0.966016ZM0.833008 11.666C0.466896 12.2626 0.467074 12.2628 0.467268 12.2629C0.467353 12.2629 0.467563 12.2631 0.467734 12.2632C0.468075 12.2634 0.46848 12.2636 0.468946 12.2639C0.469879 12.2645 0.471061 12.2652 0.472492 12.2661C0.475353 12.2678 0.479205 12.2701 0.484038 12.273C0.493703 12.2788 0.507291 12.287 0.524707 12.2972C0.559538 12.3177 0.609699 12.3469 0.674441 12.3833C0.8039 12.4563 0.991819 12.5587 1.2322 12.6808C1.71266 12.9248 2.40443 13.2481 3.25933 13.5709C4.9649 14.2149 7.34298 14.866 9.99967 14.866V13.466C7.56378 13.466 5.35852 12.8671 3.75391 12.2612C2.95372 11.959 2.30868 11.6573 1.86611 11.4325C1.64497 11.3202 1.47482 11.2273 1.36158 11.1636C1.30498 11.1317 1.26264 11.1071 1.2353 11.091C1.22164 11.0829 1.21173 11.077 1.20566 11.0733C1.20263 11.0715 1.20056 11.0703 1.19947 11.0696C1.19892 11.0693 1.19862 11.0691 1.19856 11.069C1.19853 11.069 1.19856 11.069 1.19865 11.0691C1.1987 11.0691 1.19882 11.0692 1.19884 11.0692C1.19897 11.0693 1.19912 11.0694 0.833008 11.666ZM9.99967 14.866C12.6564 14.866 15.0344 14.2149 16.74 13.5709C17.5949 13.2481 18.2867 12.9248 18.7672 12.6808C19.0075 12.5587 19.1954 12.4563 19.3249 12.3833C19.3896 12.3469 19.4398 12.3177 19.4746 12.2972C19.4921 12.287 19.5056 12.2788 19.5153 12.273C19.5201 12.2701 19.524 12.2678 19.5269 12.2661C19.5283 12.2652 19.5295 12.2645 19.5304 12.2639C19.5309 12.2636 19.5313 12.2634 19.5316 12.2632C19.5318 12.2631 19.532 12.2629 19.5321 12.2629C19.5323 12.2628 19.5325 12.2626 19.1663 11.666C18.8002 11.0694 18.8004 11.0693 18.8005 11.0692C18.8005 11.0692 18.8006 11.0691 18.8007 11.0691C18.8008 11.069 18.8008 11.069 18.8008 11.069C18.8007 11.0691 18.8004 11.0693 18.7999 11.0696C18.7988 11.0703 18.7967 11.0715 18.7937 11.0733C18.7876 11.077 18.7777 11.0829 18.764 11.091C18.7367 11.1071 18.6944 11.1317 18.6378 11.1636C18.5245 11.2273 18.3544 11.3202 18.1332 11.4325C17.6907 11.6573 17.0456 11.959 16.2454 12.2612C14.6408 12.8671 12.4356 13.466 9.99967 13.466V14.866ZM9.16634 10.6993H10.833V9.29935H9.16634V10.6993Z" fill="black"/>
</g>
<defs>
<clipPath id="clip0_3075_4503">
<rect width="20" height="20" fill="white"/>
</clipPath>
</defs>
</svg>
