<svg width="60" height="60" viewBox="0 0 60 60" fill="none" xmlns="http://www.w3.org/2000/svg">
<g clip-path="url(#clip0_2750_3207)">
<path d="M30 39.1611C30.6099 39.1611 31.0165 39.6694 31.0165 40.1776C31.0165 40.6858 30.6099 41.1941 30 41.1941C29.3901 41.1941 28.9835 40.6858 28.9835 40.1776C28.9835 39.6694 29.3901 39.1611 30 39.1611Z" fill="#FFD7D7"/>
<path d="M59.479 4.59924V35.0948H45.2477V8.66527L40.1651 0.533203H55.4129C57.4459 0.533203 59.479 2.56616 59.479 4.59924ZM14.7522 31.0288V35.0948H0.520874V4.59924C0.520874 2.56616 2.55395 0.533203 4.58703 0.533203H10.6861H14.7522V6.63231V10.6983V14.7644V18.8304V22.8965V26.9625V31.0288ZM40.1651 0.533203L35.0825 8.66539V35.0949H31.0164V0.533203H40.1651Z" fill="#F2EDDA"/>
<path d="M40.165 0.533203L45.2477 8.66527H35.0825L40.165 0.533203Z" fill="#ECF4F7"/>
<path d="M40.165 35.0946H35.0825V8.66504H45.2477V35.0946H40.165Z" fill="#80D6FA"/>
<path d="M24.9174 53.3918H35.0826V45.2598H24.9174V53.3918Z" fill="#ECF4F7"/>
<path d="M14.7522 26.9626V22.8966V18.8305V14.7644V10.6983V6.63231V0.533203H31.0165V35.0948H14.7522V31.0288V26.9626Z" fill="#FFE079"/>
<path d="M59.479 35.0947V41.1938C59.479 43.2269 57.4459 45.2599 55.413 45.2599H35.0826H24.9174H4.58703C2.55395 45.2599 0.520996 43.2268 0.520996 41.1938V35.0947H14.7522H31.0164H35.0825H40.1651H45.2477H59.479Z" fill="#ECF4F7"/>
<path d="M55.4128 58.4744V59.4908H47.2806V58.4744C47.2806 56.7462 48.6021 55.4248 50.3302 55.4248H52.3633C54.0914 55.4248 55.4128 56.7462 55.4128 58.4744Z" fill="#ECF4F7"/>
<path d="M55.4129 60H47.2807C46.9757 60 46.7724 59.7967 46.7724 59.4917V58.4752C46.7724 56.5439 48.3988 54.9174 50.3302 54.9174H52.3633C54.2947 54.9174 55.9212 56.5438 55.9212 58.4752V59.4917C55.9212 59.7967 55.7178 60 55.4129 60ZM47.789 58.9835H54.9046V58.4752C54.9046 57.0521 53.7864 55.934 52.3633 55.934H50.3302C48.9071 55.934 47.789 57.0522 47.789 58.4752V58.9835ZM41.1817 60H4.58703C4.28207 60 4.07873 59.7967 4.07873 59.4917C4.07873 59.1867 4.28207 58.9834 4.58703 58.9834H6.1118V57.4586C6.1118 57.1537 6.31515 56.9503 6.6201 56.9503C6.92506 56.9503 7.1284 57.1537 7.1284 57.4586V58.9834H10.178V57.4586C10.178 57.1537 10.3813 56.9503 10.6863 56.9503C10.9912 56.9503 11.1946 57.1537 11.1946 57.4586V58.9834H14.2441V57.4586C14.2441 57.1537 14.4475 56.9503 14.7524 56.9503C15.0574 56.9503 15.2607 57.1537 15.2607 57.4586V58.9834H18.3103V57.4586C18.3103 57.1537 18.5136 56.9503 18.8186 56.9503C19.1235 56.9503 19.3269 57.1537 19.3269 57.4586V58.9834H22.3764V57.4586C22.3764 57.1537 22.5798 56.9503 22.8847 56.9503C23.1897 56.9503 23.393 57.1537 23.393 57.4586V58.9834H26.4426V57.4586C26.4426 57.1537 26.6459 56.9503 26.9509 56.9503C27.2558 56.9503 27.4592 57.1537 27.4592 57.4586V58.9834H30.5087V57.4586C30.5087 57.1537 30.7121 56.9503 31.017 56.9503C31.322 56.9503 31.5253 57.1537 31.5253 57.4586V58.9834H34.5749V57.4586C34.5749 57.1537 34.7782 56.9503 35.0832 56.9503C35.3881 56.9503 35.5915 57.1537 35.5915 57.4586V58.9834H38.641V57.4586C38.641 57.1537 38.8444 56.9503 39.1493 56.9503C39.4543 56.9503 39.6576 57.1537 39.6576 57.4586V58.9834H41.1824C41.4874 58.9834 41.6907 59.1867 41.6907 59.4917C41.6907 59.7967 41.4866 60 41.1817 60ZM35.0826 53.9009C34.7776 53.9009 34.5743 53.6975 34.5743 53.3926V49.3266C34.5743 49.0216 34.7776 48.8183 35.0826 48.8183C35.3875 48.8183 35.5909 49.0216 35.5909 49.3266V53.3926C35.5908 53.6975 35.3875 53.9009 35.0826 53.9009ZM24.9173 53.9009C24.6124 53.9009 24.409 53.6975 24.409 53.3926V49.3266C24.409 49.0216 24.6124 48.8183 24.9173 48.8183C25.2223 48.8183 25.4256 49.0216 25.4256 49.3266V53.3926C25.4256 53.6975 25.2223 53.9009 24.9173 53.9009ZM55.4129 45.7687H4.58703C2.24899 45.7687 0.0126924 43.5324 0.0126924 41.1944V35.0953C0.0126924 34.7903 0.216036 34.587 0.520991 34.587H55.413C55.7179 34.587 55.9213 34.7903 55.9213 35.0953C55.9213 35.4002 55.7179 35.6036 55.413 35.6036H1.02917V41.1944C1.02917 42.9225 2.8589 44.7522 4.58703 44.7522H55.413C57.1411 44.7522 58.9708 42.9225 58.9708 41.1944V4.59971C58.9708 2.87159 57.1411 1.04185 55.413 1.04185H45.2477C44.9428 1.04185 44.7394 0.838509 44.7394 0.533553C44.7394 0.228598 44.9428 0.0252541 45.2477 0.0252541H55.4129C57.7509 0.0252541 59.9872 2.26155 59.9872 4.59959V41.1943C59.9872 43.5324 57.7509 45.7687 55.4129 45.7687ZM29.9999 41.7027C29.1867 41.7027 28.4752 40.9911 28.4752 40.1779C28.4752 39.3646 29.1867 38.6531 29.9999 38.6531C30.8132 38.6531 31.5247 39.3646 31.5247 40.1779C31.5247 40.991 30.8132 41.7027 29.9999 41.7027ZM29.9999 39.6696C29.695 39.6696 29.4916 39.8729 29.4916 40.1779C29.4916 40.4828 29.695 40.6862 29.9999 40.6862C30.3049 40.6862 30.5082 40.4828 30.5082 40.1779C30.5082 39.8729 30.3049 39.6696 29.9999 39.6696ZM45.2477 31.5374C44.9428 31.5374 44.7394 31.3341 44.7394 31.0291V12.7318C44.7394 12.4268 44.9428 12.2235 45.2477 12.2235C45.5527 12.2235 45.756 12.4268 45.756 12.7318V31.0291C45.756 31.3342 45.5527 31.5374 45.2477 31.5374ZM40.1651 31.5374C39.8601 31.5374 39.6568 31.3341 39.6568 31.0291V12.7318C39.6568 12.4268 39.8601 12.2235 40.1651 12.2235C40.47 12.2235 40.6734 12.4268 40.6734 12.7318V31.0291C40.6734 31.3342 40.47 31.5374 40.1651 31.5374ZM35.0826 31.5374C34.7776 31.5374 34.5743 31.3341 34.5743 31.0291V8.66574C34.5743 8.56413 34.5743 8.4624 34.6759 8.36078L39.7585 0.228717C39.9619 -0.0762389 40.47 -0.0762389 40.5718 0.228717L45.6544 8.3609C45.756 8.56425 45.756 8.66586 45.6544 8.8692C45.5528 9.07255 45.3495 9.17416 45.2478 9.17416H39.1487C38.8438 9.17416 38.6404 8.97081 38.6404 8.66586C38.6404 8.3609 38.8438 8.15756 39.1487 8.15756H44.333L40.1652 1.44854L35.5909 8.76747V31.0292C35.5908 31.3342 35.3875 31.5374 35.0826 31.5374ZM31.0164 31.5374C30.7115 31.5374 30.5081 31.3341 30.5081 31.0291V1.04185H15.2603V6.12448H20.8512C21.1561 6.12448 21.3595 6.32783 21.3595 6.63278C21.3595 6.93774 21.1561 7.14108 20.8512 7.14108H15.2603V10.1906H16.7851C17.0901 10.1906 17.2934 10.394 17.2934 10.6989C17.2934 11.0039 17.0901 11.2072 16.7851 11.2072H15.2603V14.2568H16.7851C17.0901 14.2568 17.2934 14.4601 17.2934 14.7651C17.2934 15.07 17.0901 15.2734 16.7851 15.2734H15.2603V18.3229H20.8512C21.1561 18.3229 21.3595 18.5263 21.3595 18.8312C21.3595 19.1362 21.1561 19.3395 20.8512 19.3395H15.2603V22.3891H16.7851C17.0901 22.3891 17.2934 22.5924 17.2934 22.8974C17.2934 23.2023 17.0901 23.4057 16.7851 23.4057H15.2603V26.4552H16.7851C17.0901 26.4552 17.2934 26.6586 17.2934 26.9635C17.2934 27.2685 17.0901 27.4718 16.7851 27.4718H15.2603V31.0297C15.2603 31.3347 15.057 31.538 14.752 31.538C14.4471 31.538 14.2438 31.3347 14.2438 31.0297V0.534149C14.2438 0.229193 14.4471 0.0258497 14.752 0.0258497H31.0163C31.3213 0.0258497 31.5246 0.229193 31.5246 0.534149V31.0297C31.5247 31.3342 31.3214 31.5374 31.0164 31.5374ZM0.520872 31.5374C0.215917 31.5374 0.0125732 31.3341 0.0125732 31.0291V4.59971C0.0125732 2.26167 2.24887 0.0253733 4.58691 0.0253733H10.686C10.991 0.0253733 11.1943 0.228717 11.1943 0.533672C11.1943 0.838628 10.991 1.04197 10.686 1.04197H4.58691C2.8589 1.04185 1.02917 2.87159 1.02917 4.59971V31.0292C1.02917 31.3342 0.825828 31.5374 0.520872 31.5374Z" fill="#51565F"/>
</g>
<defs>
<clipPath id="clip0_2750_3207">
<rect width="60" height="60" fill="white"/>
</clipPath>
</defs>
</svg>
