<svg width="37" height="37" viewBox="0 0 37 37" fill="none" xmlns="http://www.w3.org/2000/svg">
<path d="M32.7515 16.107V7.64279C32.7515 4.52638 30.225 2 27.1087 2H10.6428C7.52636 2 5 4.52636 5 7.64279V24.5712C5 27.6877 7.52636 30.214 10.6428 30.214H18.8758" stroke="#1C1C1C" stroke-width="2" stroke-linecap="round"/>
<path d="M11.4023 16.1064H16.026" stroke="#1C1C1C" stroke-width="2" stroke-linecap="round"/>
<path d="M11.4023 9.94336H20.6471" stroke="#1C1C1C" stroke-width="2" stroke-linecap="round"/>
<path d="M32.6574 22.0919L29.6464 19.0307C29.3412 18.7202 28.846 18.7202 28.5406 19.0307L22.7495 24.9182C22.5819 25.0887 22.4994 25.3272 22.5251 25.5669L22.8563 28.6433C22.8763 28.8286 23.0202 28.9749 23.2024 28.9951L26.2284 29.3318C26.4641 29.358 26.6987 29.2742 26.8665 29.1038L32.6574 23.2162C32.9628 22.9057 32.9628 22.4023 32.6574 22.0919Z" stroke="#DF1463" stroke-width="2" stroke-linecap="round"/>
</svg>
