<svg width="56" height="56" viewBox="0 0 56 56" fill="none" xmlns="http://www.w3.org/2000/svg">
<circle cx="27.9678" cy="27.9678" r="27.4678" stroke="#979797"/>
<path fill-rule="evenodd" clip-rule="evenodd" d="M39.117 37.4268C39.6514 37.4268 40.0851 37.8605 40.0851 38.3949C40.0851 38.9293 39.6514 39.363 39.117 39.363H29.7549C29.2205 39.363 28.7868 38.9293 28.7868 38.3949C28.7868 37.8605 29.2205 37.4268 29.7549 37.4268H39.117ZM33.1352 15.7597C33.1997 15.8101 35.3592 17.4881 35.3592 17.4881C36.144 17.9554 36.7571 18.7905 36.9895 19.7792C37.2205 20.7577 37.0527 21.7671 36.5145 22.6203C36.5109 22.626 36.5073 22.6316 36.4949 22.6483L36.4851 22.6612C36.3978 22.7764 36.018 23.2566 34.1011 25.6583C34.0833 25.6897 34.0631 25.7192 34.0411 25.7479C34.0087 25.7901 33.9736 25.8289 33.936 25.8642C33.8053 26.0289 33.6672 26.2018 33.522 26.3837L33.2278 26.7522C32.6207 27.5124 31.9007 28.4139 31.0464 29.4832L30.608 30.0319C28.9588 32.0961 26.8467 34.739 24.141 38.1239C23.5485 38.8623 22.6604 39.2921 21.7065 39.3037L17.0094 39.3631H16.9965C16.5486 39.3631 16.1587 39.0559 16.0542 38.6183L14.997 34.138C14.7789 33.2099 14.9957 32.2521 15.5908 31.5086L27.75 16.3006C27.7552 16.2954 27.7591 16.289 27.7642 16.2838C29.0976 14.6897 31.5088 14.4547 33.1352 15.7597ZM26.3943 21.095L17.1023 32.7181C16.8816 32.9943 16.8003 33.3506 16.8816 33.6927L17.7606 37.4166L21.6833 37.3675C22.0564 37.3637 22.401 37.1972 22.6295 36.9132C23.806 35.4411 25.2847 33.591 26.805 31.6886L27.3429 31.0155L27.8816 30.3412C29.3074 28.5569 30.716 26.7939 31.8946 25.3183L26.3943 21.095ZM29.2551 17.5191L27.6038 19.5822L33.1036 23.8043C34.1622 22.4784 34.8586 21.6051 34.9229 21.5218C35.1346 21.1785 35.2172 20.6931 35.1062 20.2259C34.9926 19.747 34.6945 19.3404 34.2646 19.0809C34.173 19.0177 31.998 17.3293 31.9309 17.2764C31.1125 16.6207 29.9185 16.7343 29.2551 17.5191Z" fill="#979797"/>
</svg>
