<svg width="33" height="33" viewBox="0 0 33 33" fill="none" xmlns="http://www.w3.org/2000/svg">
<path fill-rule="evenodd" clip-rule="evenodd" d="M15.1318 0.0580277C15.7918 0.0580277 16.3274 0.593667 16.3274 1.25365C16.3274 1.91364 15.7918 2.44928 15.1318 2.44928H9.17124C5.05191 2.44928 2.39125 5.27095 2.39125 9.63737V22.8913C2.39125 27.2577 5.05191 30.0794 9.17124 30.0794H23.2382C27.3575 30.0794 30.0197 27.2577 30.0197 22.8913V16.47C30.0197 15.81 30.5554 15.2743 31.2154 15.2743C31.8753 15.2743 32.411 15.81 32.411 16.47V22.8913C32.411 28.6207 28.7237 32.4706 23.2382 32.4706H9.17124C3.68571 32.4706 0 28.6207 0 22.8913V9.63737C0 3.90794 3.68571 0.0580277 9.17124 0.0580277H15.1318ZM29.0164 1.45866L30.9565 3.39876C31.9018 4.34251 32.4215 5.59712 32.4199 6.93303C32.4199 8.26894 31.9002 9.52195 30.9565 10.4641L18.9859 22.4347C18.1075 23.3131 16.9374 23.7977 15.6939 23.7977H9.72218C9.40016 23.7977 9.09089 23.667 8.86611 23.4358C8.64134 23.2063 8.51859 22.8954 8.52656 22.5718L8.67641 16.5474C8.7067 15.3486 9.18973 14.2216 10.0378 13.3719L21.9526 1.45866C23.9007 -0.486221 27.0683 -0.486221 29.0164 1.45866ZM20.9713 5.8203L11.7292 15.0633C11.3163 15.4762 11.082 16.0246 11.0677 16.6064L10.9481 21.4065H15.6939C16.2997 21.4065 16.8672 21.1721 17.2961 20.7433L26.5939 11.4429L20.9713 5.8203ZM23.6424 3.15007L22.6611 4.12889L28.2837 9.75311L29.2667 8.77269C29.7577 8.28169 30.0287 7.62808 30.0287 6.93303C30.0287 6.23638 29.7577 5.58117 29.2667 5.09017L27.3266 3.15007C26.3111 2.13778 24.6595 2.13778 23.6424 3.15007Z" fill="#4A154B"/>
</svg>
