<svg width="32" height="32" viewBox="0 0 32 32" fill="none" xmlns="http://www.w3.org/2000/svg">
<path d="M0 3.2002V24.8498V28.8002C0 30.5682 1.43264 32.0002 3.2 32.0002H9.6H22.4L32 22.4002V3.2002H0Z" fill="#F1C40F"/>
<path d="M32.0004 22.4004L22.4004 32.0004V25.6004C22.4004 23.8404 23.8324 22.4004 25.6004 22.4004H32.0004Z" fill="#F39C12"/>
<path d="M3.2 0C1.43264 0 0 1.43264 0 3.2V4.8V6.4H32V4.8V3.2C32 1.43264 30.568 0 28.8 0H22.4H9.6H3.2Z" fill="#F1C40F"/>
<path d="M27.1998 6.39941H4.7998V9.59941H27.1998V6.39941Z" fill="#F39C12"/>
<path d="M27.1998 12.7998H4.7998V15.9998H27.1998V12.7998Z" fill="#F39C12"/>
<path d="M19.1998 19.1992H4.7998V22.3992H19.1998V19.1992Z" fill="#F39C12"/>
</svg>
