<svg width="216" height="229" viewBox="0 0 216 229" fill="none" xmlns="http://www.w3.org/2000/svg">
<circle cx="87.7167" cy="31.1405" r="31.1405" fill="#F7F7F7" fill-opacity="0.1"/>
<circle cx="74.0237" cy="93.4212" r="17.4475" fill="#F7F7F7" fill-opacity="0.1"/>
<circle cx="159.716" cy="98.7217" r="55.4345" fill="#F7F7F7" fill-opacity="0.1"/>
<path d="M52.4253 79.4819L24.5039 82.7783L27.6224 109.318L55.5438 106.022L52.4253 79.4819Z" fill="#2F2E41"/>
<path d="M38.1552 94.7799C45.7259 94.7799 51.8632 88.628 51.8632 81.0393C51.8632 73.4507 45.7259 67.2988 38.1552 67.2988C30.5845 67.2988 24.4473 73.4507 24.4473 81.0393C24.4473 88.628 30.5845 94.7799 38.1552 94.7799Z" fill="#FFB6B6"/>
<path d="M29.1167 59.7288H29.1167C20.5744 62.1059 21.3699 65.2978 18.7816 67.3091C14.2214 70.8525 13.2905 79.6402 16.5464 84.9822C17.4163 86.4095 19.1186 88.2958 18.671 90.6023C18.3275 92.3728 16.8773 93.5646 16.6042 93.7817C14.3688 95.5584 15.7349 93.5974 14.792 94.9741C13.7513 96.4937 15.8429 98.2197 14.991 100.822C14.2358 103.128 12.1275 103.19 12.0181 104.597C11.8296 107.021 17.7458 111.15 23.4027 110.102C28.4394 109.17 31.7047 104.423 32.4916 100.223C33.0186 97.4096 32.8348 92.6989 30.3948 90.6859C30.0525 90.4035 29.1286 89.731 28.1857 88.5005C27.4395 87.5267 26.4571 86.2448 26.8259 85.2363C27.2189 84.1619 28.7334 84.5242 29.5443 83.4477C30.6439 81.9877 28.8938 79.9471 28.8639 77.6571C28.8133 73.7795 33.6864 68.5332 39.5103 68.5723C46.1172 68.6166 49.3394 75.4319 49.6776 76.1783C50.3786 77.7254 50.5511 79.2818 50.8961 82.3946C51.3914 86.8617 51.7016 89.6616 50.6426 92.6986C49.1194 97.0667 46.508 96.9225 46.141 100.079C45.5688 105.001 51.4721 109.18 52.1457 109.645C57.1399 113.088 64.1175 113.477 65.0591 111.545C65.9076 109.804 61.0521 107.825 60.612 102.774C60.2306 98.3974 63.5954 96.6522 62.4798 93.7472C61.2519 90.5495 56.8547 91.8312 54.5217 88.3267C52.3441 85.0555 55.3768 82.7399 54.0103 75.6668C53.7212 74.1706 52.7393 69.8943 49.4498 65.9311C48.0006 64.1852 46.5267 62.4094 44.0687 61.674C41.3171 60.8507 33.6355 58.4713 29.1168 59.7287L29.1167 59.7288L29.1167 59.7288Z" fill="#2F2E41"/>
<path d="M24.756 72.473C25.4603 75.4194 30.1088 76.3553 32.0627 76.5028C32.8902 76.5653 35.6866 76.7763 38.2642 75.2814C39.2169 74.7288 39.5365 74.2931 40.5578 74.0321C41.9406 73.6788 42.7113 74.1308 45.0038 74.4857C47.5532 74.8803 48.8279 75.0776 49.3932 74.4567C50.3173 73.4418 49.1833 70.6122 47.75 68.7799C45.0997 65.3917 40.9008 64.7414 38.9424 64.438C36.705 64.0915 32.1645 63.3882 28.4083 66.1709C27.906 66.543 24.0405 69.4794 24.756 72.473H24.756L24.756 72.473Z" fill="#2F2E41"/>
<path d="M54.201 226.474C47.4035 228.126 40.3023 229 32.9986 229C25.0877 229 17.4119 227.976 10.105 226.045C9.30838 223.09 8.40399 219.817 7.37882 216.197C-1.81847 183.696 16.8144 160.654 16.8144 160.654L21.4114 157.018L62.791 162.594C67.6068 186.128 64.4725 203.591 54.201 226.474Z" fill="#791984"/>
<path d="M47.4588 98.5634L28.1009 96.623L14.0664 108.75L18.4219 152.409L16.4861 160.656L62.4612 162.596L60.0415 150.954L63.4291 108.265L47.4588 98.5634Z" fill="white"/>
<path d="M53.752 121.363H22.7793V169.873H53.752V121.363Z" fill="black"/>
<path d="M49.3327 127.744H40.6784C40.4443 127.744 40.2539 127.553 40.2539 127.318C40.2539 127.083 40.4443 126.893 40.6784 126.893H49.3327C49.5667 126.893 49.7572 127.083 49.7572 127.318C49.7572 127.553 49.5667 127.744 49.3327 127.744Z" fill="#2CAD5A"/>
<path d="M49.3327 131.017H40.6784C40.4443 131.017 40.2539 130.826 40.2539 130.592C40.2539 130.357 40.4443 130.166 40.6784 130.166H49.3327C49.5667 130.166 49.7572 130.357 49.7572 130.592C49.7572 130.826 49.5667 131.017 49.3327 131.017Z" fill="#2CAD5A"/>
<path d="M49.3327 134.29H40.6784C40.4443 134.29 40.2539 134.1 40.2539 133.865C40.2539 133.63 40.4443 133.439 40.6784 133.439H49.3327C49.5667 133.439 49.7572 133.63 49.7572 133.865C49.7572 134.1 49.5667 134.29 49.3327 134.29Z" fill="#2CAD5A"/>
<path d="M48.9457 145.741H27.9014C27.3322 145.741 26.8691 145.277 26.8691 144.707C26.8691 144.136 27.3322 143.672 27.9014 143.672H48.9457C49.5149 143.672 49.9779 144.136 49.9779 144.707C49.9779 145.277 49.5149 145.741 48.9457 145.741Z" fill="black"/>
<path d="M37.104 164.584C41.2912 165.899 45.3623 164.8 46.197 162.129C47.0318 159.457 44.3142 156.226 40.1254 154.911C38.4593 154.363 36.6864 154.222 34.9551 154.501L17.1437 149.152L5.83984 157.258L32.6235 161.962C33.8867 163.182 35.4231 164.081 37.104 164.584Z" fill="#FFB6B6"/>
<path d="M15.8916 107.779C15.8916 107.779 9.40223 111.496 7.54811 119.395L0.131653 150.99C0.131653 150.99 -1.25893 155.636 4.99871 157.959C11.2563 160.282 18.9046 150.293 18.9046 150.293L15.4117 146.792L22.1493 117.304L15.8916 107.779V107.779L15.8916 107.779Z" fill="white"/>
<path d="M32.2773 159.914C27.9244 160.469 24.1104 158.667 23.7585 155.89C23.4067 153.114 26.6501 150.413 31.0046 149.859C32.741 149.614 34.5108 149.789 36.166 150.369L54.6391 148.252L64.3402 158.229L37.1488 158.125C35.6907 159.103 34.0203 159.716 32.2773 159.914Z" fill="#FFB6B6"/>
<path d="M63.1466 107.748C63.1466 107.748 68.8806 112.554 69.3163 120.656L71.0594 153.067C71.0594 153.067 71.6109 157.886 65.0427 159.067C58.4745 160.248 52.7031 149.063 52.7031 149.063L56.7571 146.234L55.3116 116.018L63.1466 107.748H63.1466H63.1466Z" fill="white"/>
<path d="M37.2968 124.758H26.166V138.341H37.2968V124.758Z" fill="#2CAD5A"/>
<path d="M29.1375 134.899L28.3729 138.256L28.3535 138.343H26.1758C26.4371 137.237 26.7613 135.869 26.9114 135.214C27.1001 134.418 27.5937 133.904 27.9083 133.647C28.068 133.506 28.1841 133.443 28.1841 133.443L29.1375 134.899H29.1375H29.1375Z" fill="black"/>
<path d="M36.4892 138.342H34.3695L34.1953 134.699L35.3568 133.471L35.3906 133.438C35.3906 133.438 36.2666 134.17 36.3295 135.407C36.3634 136.023 36.4312 137.26 36.4892 138.342H36.4892Z" fill="black"/>
<path d="M189.974 71.2959C190.037 70.5993 188.413 70.2164 188.503 69.6077C188.592 69.0012 190.236 69.1703 192.006 68.1164C192.325 67.9264 194.336 66.7287 194.167 65.7866C193.847 64.001 185.977 64.7045 185.28 62.1009C185.127 61.5295 185.303 60.7382 184.887 58.944C184.721 58.2302 184.578 57.8583 184.269 57.7341C183.831 57.5579 183.443 58.0344 182.338 58.7246C180.682 59.7597 180.393 59.4151 179.2 60.3341C178.314 61.0163 178.009 61.5645 177.634 61.4427C177.103 61.2703 177.373 60.0613 176.769 59.7489C176.153 59.43 175.042 60.26 174.355 60.9869C173.067 62.351 172.901 63.7473 172.452 65.0162C171.964 66.3951 170.913 68.2683 168.376 70.1596L145.256 86.131C150.119 82.9396 163.708 74.3792 168.994 71.3695C170.52 70.5007 172.121 69.6579 173.833 70.1089C175.482 70.5431 177.035 72.1242 179.683 73.2151C179.992 73.3425 180.858 73.6861 181.261 73.3219C181.594 73.0209 181.308 72.5103 181.614 72.2246C182.026 71.8414 182.875 72.4489 184.287 72.686C185.282 72.8532 186.051 72.7512 186.712 72.6634C186.911 72.637 189.889 72.2232 189.974 71.2959L189.974 71.2959L189.974 71.2959V71.2959Z" fill="black"/>
<path d="M151.871 60.8967C151.548 60.6645 150.892 61.3531 150.62 61.1332C150.349 60.9141 150.906 60.1542 150.901 58.9795C150.9 58.7677 150.894 57.4327 150.384 57.244C149.417 56.8862 147.491 60.9609 146.015 60.5527C145.691 60.4631 145.354 60.1481 144.356 59.8352C143.958 59.7107 143.735 59.6739 143.585 59.7899C143.372 59.9546 143.493 60.2833 143.513 61.0258C143.542 62.1393 143.29 62.182 143.395 63.0341C143.474 63.6666 143.654 63.9753 143.486 64.1245C143.249 64.3357 142.735 63.854 142.407 64.0612C142.073 64.2725 142.159 65.0586 142.317 65.606C142.613 66.6333 143.249 67.1177 143.741 67.7048C144.275 68.3428 144.889 69.4004 145.083 71.194L146.233 87.1769C146.073 83.8638 145.802 74.7083 145.854 71.2392C145.869 70.2378 145.918 69.207 146.633 68.4947C147.321 67.8089 148.544 67.501 149.842 66.513C149.993 66.3976 150.411 66.071 150.349 65.7677C150.298 65.517 149.965 65.5105 149.914 65.2771C149.845 64.964 150.388 64.7215 150.911 64.0955C151.28 63.6541 151.452 63.2465 151.6 62.8959C151.644 62.7902 152.301 61.2057 151.871 60.8966L151.871 60.8967L151.871 60.8967V60.8967Z" fill="black"/>
<path d="M157.248 67.0035L158.307 65.1276L158.49 65.0603C159.339 64.7494 159.977 64.3069 160.387 63.7448C160.452 63.6555 160.512 63.5628 160.574 63.4684C160.819 63.0943 161.122 62.6292 161.735 62.2745C162.077 62.0772 162.935 61.6676 163.428 62.1533C163.562 62.2825 163.626 62.433 163.653 62.5756C163.68 62.5646 163.708 62.5538 163.737 62.5421C164.1 62.4033 164.319 62.3893 164.529 62.3759C164.691 62.3654 164.857 62.3549 165.169 62.2693C165.305 62.2318 165.418 62.1936 165.513 62.1617C165.801 62.0654 166.161 61.9624 166.488 62.206C166.829 62.4786 166.802 62.905 166.785 63.1874C166.754 63.6911 166.674 64.0118 166.62 64.2244C166.601 64.302 166.579 64.3896 166.577 64.4206C166.57 64.6706 167.607 65.1841 167.997 65.3796C168.873 65.816 169.631 66.1936 169.553 66.8901C169.498 67.3886 169.012 67.7485 168.069 67.9875C167.775 68.0618 167.504 68.0835 167.274 68.0879C167.345 68.251 167.373 68.4442 167.29 68.6543C167.091 69.1512 166.427 69.3111 165.313 69.1314C165.036 69.0874 164.664 69.0269 164.233 68.8158C164.031 68.7161 163.863 68.6061 163.721 68.5096C163.66 68.5879 163.579 68.6614 163.465 68.7156C163.131 68.8756 162.742 68.7848 162.314 68.4285C161.838 68.0437 161.499 67.6535 161.199 67.3098C160.938 67.0102 160.711 66.7529 160.489 66.6131C160.072 66.3595 159.541 66.4553 158.889 66.6067L157.248 67.0035L157.248 67.0035L157.248 67.0035Z" fill="black"/>
<path d="M165.607 57.324L163.528 56.7734L163.417 56.6125C162.901 55.8681 162.313 55.362 161.666 55.1075C161.564 55.067 161.459 55.0319 161.352 54.9959C160.929 54.8537 160.403 54.677 159.905 54.173C159.628 53.8911 159.015 53.1638 159.359 52.5619C159.45 52.3992 159.579 52.2996 159.709 52.2367C159.692 52.2133 159.675 52.1894 159.656 52.1637C159.43 51.8468 159.361 51.6387 159.294 51.4382C159.243 51.2842 159.191 51.1251 159.029 50.8449C158.958 50.722 158.893 50.6223 158.838 50.5382C158.672 50.2835 158.482 49.961 158.634 49.582C158.81 49.1826 159.229 49.0999 159.505 49.045C159.999 48.9469 160.329 48.9437 160.548 48.9417C160.628 48.9411 160.718 48.94 160.748 48.9335C160.991 48.8771 161.224 47.7412 161.314 47.3142C161.512 46.3538 161.684 45.5228 162.376 45.4218C162.872 45.3492 163.342 45.7289 163.812 46.5826C163.958 46.8485 164.048 47.1057 164.11 47.3275C164.25 47.2181 164.429 47.1413 164.653 47.169C165.183 47.2352 165.506 47.8393 165.615 48.9648C165.643 49.2446 165.679 49.6208 165.584 50.0915C165.539 50.3131 165.476 50.5035 165.418 50.6654C165.509 50.7047 165.601 50.7653 165.682 50.8617C165.921 51.1448 165.932 51.5451 165.697 52.0504C165.447 52.6097 165.156 53.0375 164.9 53.4151C164.678 53.745 164.487 54.0297 164.408 54.2809C164.269 54.7493 164.497 55.2403 164.808 55.8339L165.607 57.324L165.607 57.324L165.607 57.324Z" fill="black"/>
<path d="M168.397 51.5572L169.455 49.6813L169.639 49.614C170.488 49.3031 171.125 48.8606 171.535 48.2985C171.6 48.2092 171.661 48.1165 171.722 48.0221C171.967 47.648 172.271 47.183 172.883 46.8282C173.226 46.6309 174.083 46.2213 174.577 46.707C174.711 46.8362 174.774 46.9867 174.802 47.1293C174.829 47.1183 174.856 47.1075 174.886 47.0958C175.249 46.957 175.467 46.943 175.677 46.9296C175.839 46.9191 176.006 46.9086 176.317 46.823C176.454 46.7855 176.567 46.7473 176.662 46.7154C176.95 46.6191 177.309 46.5161 177.636 46.7598C177.977 47.0323 177.951 47.4587 177.933 47.7411C177.903 48.2448 177.822 48.5655 177.769 48.7781C177.749 48.8557 177.727 48.9433 177.726 48.9743C177.719 49.2243 178.756 49.7378 179.145 49.9333C180.021 50.3697 180.78 50.7473 180.702 51.4438C180.646 51.9423 180.16 52.3022 179.217 52.5413C178.924 52.6155 178.653 52.6372 178.423 52.6416C178.493 52.8048 178.522 52.9979 178.438 53.208C178.24 53.705 177.575 53.8648 176.461 53.6851C176.184 53.6411 175.812 53.5806 175.382 53.3695C175.179 53.2698 175.012 53.1598 174.87 53.0633C174.809 53.1416 174.727 53.2151 174.614 53.2693C174.28 53.4293 173.891 53.3386 173.463 52.9822C172.987 52.5974 172.647 52.2072 172.348 51.8636C172.086 51.5639 171.86 51.3066 171.637 51.1668C171.22 50.9132 170.689 51.009 170.037 51.1605L168.397 51.5572L168.396 51.5572L168.397 51.5572V51.5572Z" fill="black"/>
<path d="M145.856 86.5267L145.657 86.0357L145.872 85.5523L145.657 86.0357L145.199 85.7775C145.221 85.7333 145.263 85.6261 145.331 85.4594C145.701 84.5462 146.829 81.7665 149.031 77.6988C150.569 74.8594 152.305 72.0529 154.192 69.3558C156.082 66.6545 157.668 64.7225 158.943 63.1696C159.905 61.9984 160.841 60.8977 161.754 59.826C164.19 56.962 166.491 54.2564 168.616 50.9541C169.09 50.2172 170.078 48.6827 170.351 46.4865C170.51 45.2126 170.406 43.9044 170.042 42.5987L171.06 42.3135C171.461 43.7558 171.575 45.2043 171.399 46.6186C171.096 49.0537 170.02 50.7257 169.504 51.5291C167.342 54.8896 165.018 57.621 162.558 60.5125C161.649 61.5807 160.717 62.6763 159.759 63.8428C158.496 65.3813 156.923 67.2965 155.057 69.9631C153.193 72.6278 151.478 75.4002 149.959 78.2036C147.785 82.2201 146.675 84.9585 146.31 85.8582C146.115 86.3383 146.074 86.439 145.856 86.5267V86.5267Z" fill="black"/>
<path d="M167.487 42.8211C167.452 42.7957 167.417 42.7691 167.383 42.7405C166.683 42.1725 166.323 41.2456 166.314 39.9857C166.311 39.3937 166.485 38.8473 166.833 37.7576C166.886 37.5894 167.166 36.743 167.718 35.6996C168.078 35.0177 168.276 34.7667 168.563 34.6267C168.883 34.4705 169.231 34.4524 169.565 34.512C169.614 34.422 169.683 34.3437 169.781 34.2832C170.185 34.0312 170.539 34.3594 170.733 34.5342C170.829 34.6246 170.949 34.7383 171.097 34.8344C171.33 34.9866 171.499 35.0071 171.755 35.0393C172 35.07 172.304 35.1081 172.675 35.2762C173.408 35.6049 173.811 36.173 173.944 36.3601C174.646 37.3406 174.582 38.393 174.507 39.6115C174.492 39.8555 174.413 40.7276 174.048 41.7369C173.785 42.465 173.567 42.7156 173.371 42.8774C172.97 43.2107 172.552 43.265 171.547 43.3248C170.496 43.3886 169.969 43.42 169.566 43.379C168.628 43.2821 168.039 43.2212 167.487 42.8211L167.487 42.8211H167.487Z" fill="black"/>
<path d="M128.286 91.4758C108.994 91.4758 93.2984 75.7434 93.2984 56.4054C93.2984 37.0674 108.994 21.335 128.286 21.335C147.578 21.335 163.273 37.0675 163.273 56.4054C163.273 75.7432 147.578 91.4758 128.286 91.4758ZM128.286 21.9244C109.318 21.9244 103.589 46.3852 93.8865 56.4054C80.6759 70.0486 109.318 90.8863 128.286 90.8863C147.254 90.8863 162.685 75.4181 162.685 56.4054C162.685 37.3926 147.254 21.9244 128.286 21.9244Z" fill="black"/>
<path d="M128.325 54.3508C128.325 53.8078 128.764 53.3676 129.306 53.3676C129.847 53.3676 130.286 53.8078 130.286 54.3508V61.8088L132.534 59.5535C132.918 59.1691 133.54 59.1691 133.923 59.5535C134.307 59.9379 134.307 60.5612 133.923 60.9456L130 64.8782C129.618 65.2626 128.997 65.2634 128.613 64.8799L128.611 64.8782L124.688 60.9456C124.305 60.5612 124.305 59.9379 124.688 59.5535C125.072 59.1691 125.693 59.1691 126.077 59.5535L128.325 61.8088V54.3508Z" fill="black"/>
<path d="M141.076 69.1019V50.4224L132.249 41.5742H121.46C119.294 41.5742 117.537 43.3349 117.537 45.5067V69.1019C117.537 71.2738 119.294 73.0344 121.46 73.0344H137.153C139.32 73.0344 141.076 71.2738 141.076 69.1019ZM132.249 47.473C132.249 49.1019 133.566 50.4224 135.192 50.4224H139.115V69.1019C139.115 70.1878 138.237 71.0682 137.153 71.0682H121.46C120.377 71.0682 119.499 70.1878 119.499 69.1019V45.5067C119.499 44.4208 120.377 43.5405 121.46 43.5405H132.249V47.473Z" fill="black"/>
<path d="M33.7411 129.125L29.9551 129.572L30.3779 133.171L34.1639 132.724L33.7411 129.125Z" fill="#2F2E41"/>
<path d="M31.806 131.201C32.8325 131.201 33.6647 130.367 33.6647 129.338C33.6647 128.309 32.8325 127.475 31.806 127.475C30.7794 127.475 29.9473 128.309 29.9473 129.338C29.9473 130.367 30.7794 131.201 31.806 131.201Z" fill="#FFB6B6"/>
<path d="M30.5808 126.447H30.5808C29.4225 126.77 29.5304 127.202 29.1794 127.475C28.5611 127.956 28.4349 129.147 28.8763 129.871C28.9943 130.065 29.2251 130.321 29.1644 130.634C29.1178 130.874 28.9212 131.035 28.8842 131.065C28.5811 131.306 28.7663 131.04 28.6384 131.226C28.4973 131.432 28.7809 131.666 28.6654 132.019C28.563 132.332 28.2771 132.34 28.2623 132.531C28.2368 132.86 29.039 133.42 29.806 133.278C30.489 133.151 30.9317 132.508 31.0384 131.938C31.1099 131.557 31.085 130.918 30.7541 130.645C30.7077 130.607 30.5824 130.515 30.4546 130.349C30.3534 130.216 30.2202 130.043 30.2702 129.906C30.3235 129.76 30.5288 129.809 30.6388 129.663C30.7879 129.465 30.5506 129.189 30.5465 128.878C30.5397 128.352 31.2004 127.641 31.9901 127.646C32.886 127.652 33.3229 128.576 33.3688 128.678C33.4638 128.887 33.4872 129.099 33.534 129.521C33.6012 130.126 33.6432 130.506 33.4996 130.918C33.2931 131.51 32.939 131.49 32.8892 131.919C32.8116 132.586 33.6121 133.153 33.7034 133.216C34.3806 133.682 35.3267 133.735 35.4544 133.473C35.5695 133.237 34.9111 132.969 34.8514 132.284C34.7997 131.69 35.256 131.454 35.1047 131.06C34.9382 130.626 34.342 130.8 34.0256 130.325C33.7303 129.881 34.1416 129.567 33.9563 128.608C33.9171 128.405 33.7839 127.826 33.3379 127.288C33.1414 127.051 32.9415 126.811 32.6082 126.711C32.2351 126.599 31.1935 126.277 30.5808 126.447L30.5808 126.447H30.5808Z" fill="#2F2E41"/>
<path d="M29.9924 128.175C30.0879 128.574 30.7182 128.701 30.9832 128.721C31.0954 128.73 31.4745 128.758 31.8241 128.556C31.9532 128.481 31.9966 128.422 32.1351 128.386C32.3226 128.338 32.4271 128.4 32.7379 128.448C33.0836 128.501 33.2564 128.528 33.3331 128.444C33.4584 128.306 33.3046 127.923 33.1103 127.674C32.7509 127.215 32.1816 127.126 31.916 127.085C31.6126 127.038 30.997 126.943 30.4876 127.32C30.4195 127.371 29.8954 127.769 29.9924 128.175H29.9924H29.9924Z" fill="#2F2E41"/>
<path d="M35.4345 133.518L35.0522 138.34H28.3786L28.3737 138.252L27.9091 133.644L27.9043 133.59L29.3174 132.373L29.753 131.994L30.0482 131.742L30.808 131.82L32.9954 132.038H33.0003L33.7359 132.484L34.8344 133.154L35.3571 133.469L35.4345 133.518Z" fill="black"/>
</svg>
