<svg width="57" height="52" viewBox="0 0 57 52" fill="none" xmlns="http://www.w3.org/2000/svg">
<path d="M40.6018 45.1133H24.8123V47.3689H40.6018V45.1133Z" fill="#31CFFF"/>
<path d="M38.3461 49.625H15.7896V51.8807H38.3461V49.625Z" fill="#31CFFF"/>
<path d="M34.6242 35.6845C32.9798 37.3086 29.4588 38.5695 26.8873 39.2935C27.5866 36.7446 28.8723 33.1582 30.4964 31.5566L34.6242 35.6845Z" fill="#BCBCBC"/>
<path d="M53.7523 10.1504C52.9402 9.83464 52.1508 9.6993 51.3839 9.6993C48.2936 9.6993 45.7898 11.7519 45.7898 11.7519C45.7898 11.7519 39.0003 17.1881 33.4063 21.8573C32.6394 15.97 30.9702 7.82711 29.3236 4.5113C27.0679 0 24.8123 0 24.8123 0H9.0227C9.0227 0 6.76705 0 4.51139 4.5113C2.7971 7.9399 1.0828 16.6242 0.360994 22.5565H2.61665C2.86477 20.5039 3.24823 18.1354 3.69936 15.7896H30.1356C30.2709 16.5339 30.4063 17.3009 30.5416 18.0452C30.88 20.0076 31.1506 21.9249 31.3311 23.5716C29.2333 25.3535 27.4965 26.8648 26.6393 27.6994C24.3837 29.9551 22.9175 34.6468 22.2634 37.1483C21.6092 36.9025 20.8649 36.7423 20.0754 36.7423C18.8348 36.7423 17.4588 37.1483 16.0603 38.3438H15.7897C15.3385 38.3438 14.9325 38.3438 14.5039 38.2987C14.0979 38.2987 13.6919 38.2513 13.3084 38.2085C5.34598 37.4213 3.04522 32.7521 2.43619 29.3235H0.180542C0.879794 33.7897 3.92493 39.9476 14.1205 40.5566C11.0302 45.3161 12.2934 51.6319 12.2934 51.6319C12.2934 51.6319 13.534 51.88 15.4062 51.88C21.316 51.88 23.5942 49.6243 23.5942 49.6243C26.1882 47.6394 27.0002 45.113 27.0002 45.113C27.316 43.8273 27.1356 42.6318 26.7521 41.6393C29.2785 40.9852 33.9477 39.5416 36.2033 37.2634C39.4063 34.0852 52.1508 18.1377 52.1508 18.1377C52.1508 18.1377 55.1733 14.5715 53.7523 10.1504ZM15.7897 13.5339H4.15049C4.8723 10.173 5.70689 7.12786 6.51892 5.52635C7.8272 2.90979 8.95503 2.34588 9.20315 2.25565H15.7897V13.5339ZM18.0453 13.5339V2.25565H24.6318C24.8348 2.32332 25.692 2.7519 26.7521 4.5113C26.9326 4.80454 27.113 5.14289 27.316 5.52635C28.1281 7.12786 28.9627 10.173 29.6845 13.5339H18.0453ZM18.316 49.3762C16.9626 49.5567 15.6769 49.604 14.3235 49.604C14.2333 48.2281 14.3009 46.8499 14.5716 45.4988C15.113 42.7266 17.2107 38.4837 20.6619 39.0476C22.895 39.4085 24.925 41.4183 24.925 43.7394C24.925 47.0303 21.0453 48.8349 18.316 49.3762ZM26.8875 39.2935C26.4814 39.4062 26.098 39.4965 25.7596 39.5867L25.2634 39.113L25.1281 38.9551L24.9476 38.7769L24.3386 38.1453C24.6093 37.0175 25.0604 35.4611 25.6243 33.9498L29.9777 38.2807C28.9176 38.6844 27.8348 39.0228 26.8875 39.2935ZM32.1882 37.3085L26.5965 31.737C27.0927 30.7445 27.6341 29.8874 28.2431 29.3009L30.4988 31.5566L34.6266 35.6844C34.0153 36.2709 33.1582 36.8348 32.1882 37.3085ZM51.4966 14.6617C51.0906 15.8572 50.459 16.6467 50.3914 16.7144C50.3011 16.8497 40.5793 29.0077 36.1582 34.0378L29.8875 27.7671C34.9176 23.3483 47.053 13.6016 47.2109 13.5136C47.2109 13.4911 49.1959 11.9572 51.3861 11.9572C51.5417 11.9572 51.7019 11.9798 51.8598 11.9798C51.9703 12.9926 51.7899 13.9174 51.4966 14.6617Z" fill="#2D2220"/>
<path d="M24.9251 43.7368C24.9251 44.6842 24.5642 45.7466 23.459 46.8496C21.5191 48.7894 18.8123 49.4436 16.5792 49.5812C16.4439 47.3007 16.6243 43.1729 19.3311 40.4683C19.9627 39.8368 20.5943 39.4059 21.2259 39.1826C22.1281 39.4533 22.8499 39.9721 23.2108 40.2428L23.3687 40.3804L23.6394 40.6488C24.1582 41.233 24.9251 42.3608 24.9251 43.7368Z" fill="#31CFFF"/>
<path d="M51.4966 14.6611C51.0905 15.8566 50.459 16.6461 50.3913 16.7138C50.3011 16.8491 40.5792 29.0071 36.1581 34.0372L32.1431 30.0221C37.1732 25.6033 49.3086 15.8566 49.4665 15.7687C49.4665 15.7438 50.3011 15.0897 51.4966 14.6611Z" fill="#E371FF"/>
<path d="M29.6844 13.5343H20.3009V4.51172H26.7521C26.9325 4.80495 27.113 5.1433 27.316 5.52676C28.128 7.12827 28.9626 10.1734 29.6844 13.5343Z" fill="#FFA28D"/>
<path d="M15.7895 4.51172V13.5343H6.9248C7.51127 11.0982 8.14286 9.02302 8.77444 7.78241C10.0827 5.16586 11.2105 4.60194 11.4587 4.51172H15.7895Z" fill="#FFA28D"/>
<path d="M29.6844 13.5343H20.3009V4.51172H26.7521C26.9325 4.80495 27.113 5.1433 27.316 5.52676C28.128 7.12827 28.9626 10.1734 29.6844 13.5343Z" fill="#BCBCBC"/>
<path d="M15.7895 4.51172V13.5343H6.9248C7.51127 11.0982 8.14286 9.02302 8.77444 7.78241C10.0827 5.16586 11.2105 4.60194 11.4587 4.51172H15.7895Z" fill="#BCBCBC"/>
<path d="M31.3311 23.5722C29.2333 25.3542 27.4965 26.8655 26.6393 27.7001C24.3837 29.9557 22.9175 34.6475 22.2634 37.149C21.6092 36.9032 20.8649 36.743 20.0754 36.743C18.8348 36.743 17.4588 37.149 16.0603 38.3445H15.7897C15.3385 38.3445 14.9325 38.3445 14.5039 38.2994C14.0979 38.2994 13.6919 38.252 13.3084 38.2092C9.56406 35.6174 9.02271 31.5121 9.02271 29.3242C9.02271 27.0234 9.60918 22.467 10.4663 18.0459H30.5416C30.88 20.0083 31.1507 21.9256 31.3311 23.5722Z" fill="#BCBCBC"/>
<path d="M1.12783 27.0682C1.75071 27.0682 2.25565 26.5632 2.25565 25.9403C2.25565 25.3174 1.75071 24.8125 1.12783 24.8125C0.504945 24.8125 0 25.3174 0 25.9403C0 26.5632 0.504945 27.0682 1.12783 27.0682Z" fill="#2D2220"/>
<path d="M49.6244 46.2411C49.6244 45.6185 49.1191 45.1133 48.4966 45.1133H43.9852C43.3627 45.1133 42.8574 45.6185 42.8574 46.2411C42.8574 46.8637 43.3627 47.3689 43.9852 47.3689H48.4966C49.1191 47.3689 49.6244 46.8637 49.6244 46.2411Z" fill="#31CFFF"/>
<path d="M56.3913 46.2411C56.3913 45.6185 55.886 45.1133 55.2635 45.1133H53.0078C52.3853 45.1133 51.88 45.6185 51.88 46.2411C51.88 46.8637 52.3853 47.3689 53.0078 47.3689H55.2635C55.886 47.3689 56.3913 46.8637 56.3913 46.2411Z" fill="#31CFFF"/>
<path d="M47.3686 50.7528C47.3686 50.1303 46.8634 49.625 46.2408 49.625H41.7295C41.107 49.625 40.6017 50.1303 40.6017 50.7528C40.6017 51.3754 41.107 51.8807 41.7295 51.8807H46.2408C46.8634 51.8807 47.3686 51.3754 47.3686 50.7528Z" fill="#31CFFF"/>
<path d="M54.1356 50.7528C54.1356 50.1303 53.6303 49.625 53.0077 49.625H50.7521C50.1295 49.625 49.6243 50.1303 49.6243 50.7528C49.6243 51.3754 50.1295 51.8807 50.7521 51.8807H53.0077C53.6303 51.8807 54.1356 51.3754 54.1356 50.7528Z" fill="#31CFFF"/>
</svg>
