<svg width="51" height="64" viewBox="0 0 51 64" fill="none" xmlns="http://www.w3.org/2000/svg">
<path fill-rule="evenodd" clip-rule="evenodd" d="M34.5544 7.14746L1.55212 21.3312L13.9327 51.1353L46.3435 36.9884L34.5544 7.14746Z" fill="#2A2941"/>
<path d="M7.28049 61.4135L13.7478 48.9613L16.8152 51.2823L17.5174 36.1406L5.2478 44.8719L8.83266 46.2719L1.95874 58.282L7.28049 61.4135Z" fill="#2A2941"/>
<path d="M17.5174 36.1417L16.8152 51.2832L13.7478 48.9622L7.24351 61.4143L1.95874 58.2829L8.83266 46.2728L5.21083 44.8728L17.5174 36.1417ZM19.1435 33.1943L16.6675 34.9628L4.39784 43.6939L2.18043 45.2781L4.73046 46.2728L6.72617 47.0465L0.702211 57.5461L0 58.7986L1.25653 59.5354L6.5413 62.6669L7.87178 63.4774L8.61096 62.0775L14.3022 51.1725L15.9653 52.4252L18.2196 54.1199L18.3674 51.32L19.0696 36.1785L19.1435 33.1943Z" fill="#2A2941"/>
<path fill-rule="evenodd" clip-rule="evenodd" d="M49.559 31.4261L37.3263 1.47461L4.39795 15.6583L16.7785 45.4993L49.559 31.4261Z" fill="white"/>
<path d="M16.1501 46.9352L2.95654 15.0679L37.9174 0L51.0001 31.9778L16.1501 46.9352ZM5.83919 16.2468L17.3696 44.0247L48.1175 30.8357L36.6979 2.94731L5.83919 16.2468Z" fill="#2A2941"/>
<path d="M40.0086 8.10059L6.98535 21.9078L7.84356 23.9459L40.8666 10.1387L40.0086 8.10059Z" fill="#2A2941"/>
<path fill-rule="evenodd" clip-rule="evenodd" d="M8.94348 20.1165L11.4196 19.0482L10.5325 16.9482L8.0564 17.9798L8.94348 20.1165Z" fill="#2A2941"/>
<path fill-rule="evenodd" clip-rule="evenodd" d="M13.2674 18.3473L15.7435 17.3158L14.8566 15.2158L12.3435 16.2106L13.2674 18.3473Z" fill="#2A2941"/>
<path fill-rule="evenodd" clip-rule="evenodd" d="M17.5174 16.5794L19.9935 15.511L19.1066 13.4111L16.6305 14.4426L17.5174 16.5794Z" fill="#2A2941"/>
<path fill-rule="evenodd" clip-rule="evenodd" d="M30.3784 19.8202C30.3784 19.8202 34.7763 18.1255 36.2545 21.7359C37.6589 25.1252 33.4088 27.0409 33.4088 27.0409C33.1132 25.641 31.8936 21.5885 30.3784 19.8202Z" fill="#A694FE"/>
<path fill-rule="evenodd" clip-rule="evenodd" d="M30.1936 19.3796L29.6022 19.6007L30.0087 20.0796C31.4501 21.8111 32.6327 25.753 32.9653 27.0793L33.1131 27.6319L33.6306 27.4109C34.4066 27.0425 35.1088 26.5266 35.7001 25.9373C36.3283 25.3847 36.7349 24.6847 36.9196 23.8742C37.1044 23.1006 37.0306 22.2531 36.6979 21.5164C36.4023 20.7428 35.8848 20.0796 35.1827 19.6007C34.4805 19.1217 33.6306 18.9007 32.7805 18.9375C31.8935 18.9375 31.0436 19.0848 30.1936 19.3796ZM31.1543 20.0428C31.6718 19.8953 32.2261 19.8585 32.7805 19.8585C33.4457 19.8217 34.1109 20.006 34.6653 20.3744C35.2196 20.7428 35.6261 21.2585 35.848 21.8849C36.1066 22.4742 36.1436 23.1006 35.9957 23.7268C35.8478 24.3531 35.5154 24.9057 35.0348 25.3109C34.6653 25.6793 34.2219 26.0477 33.7413 26.3057C33.187 24.0952 32.3001 21.9953 31.1543 20.0428Z" fill="#2A2941"/>
<path fill-rule="evenodd" clip-rule="evenodd" d="M21.7305 30.5426C19.6609 29.4742 18.8479 26.8585 18.9218 24.427C23.4674 22.9534 27.5326 20.8167 30.674 17.0957C33.9262 20.0062 35.2935 23.1376 35.4044 28.3321C29.787 27.6321 25.5369 28.9216 21.7305 30.5426Z" fill="#32EDBB"/>
<path fill-rule="evenodd" clip-rule="evenodd" d="M21.5086 30.9463L21.6935 31.0567L21.9152 30.9831C25.6478 29.3621 29.824 28.1094 35.3674 28.8094L35.9217 28.8831V28.3674C35.811 22.9886 34.4065 19.7835 31.0435 16.7994L30.6739 16.4678L30.3413 16.8362C27.2739 20.4835 23.2827 22.5834 18.8109 24.0202L18.5152 24.1307V24.4254C18.4043 27.0412 19.3282 29.8042 21.5086 30.9463ZM21.7675 30.0251C20.0674 29.0305 19.4022 26.8569 19.4022 24.7202C23.763 23.2465 27.6435 21.1835 30.7109 17.7205C33.5196 20.336 34.7392 23.2465 34.924 27.8148C29.5653 27.2253 25.4631 28.4778 21.7675 30.0251Z" fill="#2A2941"/>
<path fill-rule="evenodd" clip-rule="evenodd" d="M19.1065 26.5996C19.1065 26.5996 16.8152 27.4101 17.5543 29.0679C18.2935 30.689 20.474 29.5469 20.474 29.5469C19.7718 28.6626 19.3282 27.668 19.1065 26.5996Z" fill="#4C5EFD"/>
<path fill-rule="evenodd" clip-rule="evenodd" d="M19.5501 26.4895L19.4391 25.9736L18.9218 26.1579C18.4782 26.342 18.0717 26.5632 17.7391 26.8579C17.3695 27.1157 17.1108 27.4841 17 27.9262C16.8891 28.3682 16.9261 28.8105 17.1108 29.2157C17.2587 29.5473 17.4804 29.8419 17.813 30.0262C18.1456 30.2103 18.4782 30.3209 18.8478 30.3209C19.4761 30.3209 20.1044 30.1735 20.6587 29.9156L21.139 29.6578L20.8066 29.2157C20.1783 28.4421 19.7717 27.4841 19.5501 26.4895ZM18.7739 27.2632C18.9956 28 19.2912 28.663 19.6978 29.3262C19.5131 29.363 19.3652 29.4367 19.1805 29.4367C18.9586 29.5103 18.6999 29.4735 18.4782 29.363C18.2566 29.2525 18.0717 29.1051 17.9609 28.8841C17.85 28.663 17.85 28.4052 17.9239 28.1841C17.9977 27.963 18.1456 27.742 18.3303 27.5946C18.4782 27.4473 18.626 27.3736 18.7739 27.2632Z" fill="#2A2941"/>
<path fill-rule="evenodd" clip-rule="evenodd" d="M23.9847 29.6947C25.1305 31.6841 25.8695 33.8945 26.1652 36.1787L30.1934 34.4103C29.0108 32.642 28.05 30.6894 27.3847 28.6631C26.2022 28.921 25.0565 29.2894 23.9847 29.6947Z" fill="#A694FE"/>
<path fill-rule="evenodd" clip-rule="evenodd" d="M23.8001 29.2886L23.3196 29.4728L23.5414 29.9149C24.6501 31.8675 25.3892 34.0041 25.6849 36.2146L25.7588 36.8778L30.9327 34.6305L30.637 34.1884C29.4545 32.42 28.5306 30.5411 27.8653 28.5517L27.7174 28.1465L27.311 28.2201C26.1283 28.4781 24.9457 28.8465 23.8001 29.2886ZM24.6501 29.9149C25.463 29.6201 26.2762 29.3622 27.1261 29.1781C27.7544 30.9463 28.5675 32.6043 29.5652 34.1884L26.5718 35.4778C26.2022 33.5252 25.574 31.6832 24.6501 29.9149Z" fill="#2A2941"/>
<path fill-rule="evenodd" clip-rule="evenodd" d="M20.0675 23.9467C20.1413 26.2308 21.0284 28.4043 22.5806 30.1359C22.6544 30.2096 22.8023 30.2832 22.9132 30.2832C23.0239 30.2832 23.1718 30.2464 23.2456 30.1359C23.3196 30.0254 23.3935 29.9516 23.3935 29.8043C23.3935 29.6938 23.3566 29.5832 23.2456 29.4727C21.8414 27.9254 21.0652 25.9729 20.9914 23.9467C20.9914 23.8362 20.9544 23.7256 20.8435 23.6151C20.7696 23.5414 20.6218 23.4678 20.5109 23.4678C20.4001 23.4678 20.2522 23.5046 20.1783 23.6151C20.1045 23.7256 20.0675 23.8362 20.0675 23.9467Z" fill="#2A2941"/>
<path d="M9.86742 61.4135L16.3717 48.9613L19.4023 51.2823L20.1044 36.1406L7.87186 44.8719L11.4566 46.2719L4.58264 58.282L9.86742 61.4135Z" fill="#FEC34E"/>
<path d="M20.1045 36.1417L19.4023 51.2832L16.3349 48.9622L9.83055 61.4143L4.5826 58.2829L11.4565 46.2728L7.83484 44.8728L20.1045 36.1417ZM21.7306 33.1943L19.2544 34.9628L6.98488 43.6939L4.76747 45.2781L7.3175 46.2728L9.31306 47.0465L3.2891 57.5461L2.58704 58.7986L3.84356 59.5354L9.12834 62.6669L10.4588 63.4774L11.1979 62.0775L16.8892 51.1725L18.5523 52.4252L20.8065 54.1199L20.9544 51.32L21.6566 36.1785L21.7306 33.1943Z" fill="#2A2941"/>
</svg>
