<svg width="61" height="61" viewBox="0 0 61 61" fill="none" xmlns="http://www.w3.org/2000/svg">
<path d="M55.1875 49.4847H5.8125C3.08453 49.4847 0.875 47.2752 0.875 44.5472V5.8125C0.875 3.08453 3.08453 0.875 5.8125 0.875H55.1875C57.9155 0.875 60.125 3.08453 60.125 5.8125V44.5472C60.125 47.2628 57.9155 49.4847 55.1875 49.4847Z" fill="#A38FD8"/>
<path d="M55.1844 17.388V5.80957L5.80945 5.80957V17.388L55.1844 17.388Z" fill="white"/>
<path d="M14.9716 36.3633H5.8125V44.5348H14.9716V36.3633Z" fill="#7C64BD"/>
<path d="M14.9716 22.3281H5.8125V30.4997H14.9716V22.3281Z" fill="#7C64BD"/>
<path d="M28.2781 22.3281H19.1191V30.4997H28.2781V22.3281Z" fill="#7C64BD"/>
<path d="M53.9284 39.9551L39.3628 37.548V24.6612C39.3628 22.6368 37.8445 20.8223 35.8201 20.7112C33.66 20.6001 31.8701 22.3159 31.8701 24.4513V40.7204L28.9447 37.6962C27.5005 36.2149 25.1305 36.1902 23.6492 37.6344C22.168 39.0787 22.1433 41.4487 23.5875 42.9299L29.278 48.8055C30.932 50.5213 31.8578 52.8049 31.8578 55.1873C31.8578 57.9152 34.0673 60.1248 36.7953 60.1248H55.1875C57.9155 60.1248 60.125 57.9152 60.125 55.1873V47.2626C60.125 43.6335 57.5081 40.5476 53.9284 39.9551Z" fill="#FBD872"/>
</svg>
