<svg width="1920" height="1294" viewBox="0 0 1920 1294" fill="none" xmlns="http://www.w3.org/2000/svg">
<g clip-path="url(#clip0_3053_3501)">
<rect width="1920" height="1294" fill="#4A154B"/>
<path d="M2095.98 52.1122C2214.93 252.854 2148.63 512.02 1947.89 630.975C1747.15 749.931 1487.98 683.629 1369.02 482.888C1250.07 282.146 1316.37 22.9798 1517.11 -95.9756C1717.85 -214.931 1977.02 -148.63 2095.98 52.1122ZM1475.39 419.858C1559.53 561.857 1742.86 608.756 1884.86 524.611C2026.86 440.466 2073.76 257.14 1989.61 115.141C1905.47 -26.8572 1722.14 -73.7566 1580.14 10.3887C1438.14 94.534 1391.24 277.86 1475.39 419.858Z" fill="url(#paint0_linear_3053_3501)"/>
<path d="M895.339 909.476C1014.29 1110.22 947.993 1369.38 747.251 1488.34C546.509 1607.29 287.343 1540.99 168.388 1340.25C49.4323 1139.51 115.733 880.343 316.475 761.388C517.217 642.432 776.383 708.734 895.339 909.476ZM274.752 1277.22C358.897 1419.22 542.223 1466.12 684.222 1381.97C826.22 1297.83 873.12 1114.5 788.974 972.505C704.829 830.506 521.503 783.607 379.505 867.752C237.506 951.897 190.607 1135.22 274.752 1277.22Z" fill="url(#paint1_linear_3053_3501)"/>
</g>
<defs>
<linearGradient id="paint0_linear_3053_3501" x1="1517.11" y1="-95.9756" x2="1947.89" y2="630.975" gradientUnits="userSpaceOnUse">
<stop stop-color="#370738"/>
<stop offset="1" stop-color="#4A154B" stop-opacity="0"/>
</linearGradient>
<linearGradient id="paint1_linear_3053_3501" x1="316.475" y1="761.388" x2="747.251" y2="1488.34" gradientUnits="userSpaceOnUse">
<stop stop-color="#370738"/>
<stop offset="1" stop-color="#4A154B" stop-opacity="0"/>
</linearGradient>
<clipPath id="clip0_3053_3501">
<rect width="1920" height="1294" fill="white"/>
</clipPath>
</defs>
</svg>
