<svg width="26" height="24" viewBox="0 0 26 24" fill="none" xmlns="http://www.w3.org/2000/svg">
<path fill-rule="evenodd" clip-rule="evenodd" d="M12.5026 1.41193C14.4889 0.15616 17.1275 -0.190764 19.4069 0.539731C24.3652 2.13876 25.9044 7.54418 24.5277 11.8453C22.4034 18.6005 13.3309 23.6395 12.9461 23.8508C12.8093 23.9266 12.6578 23.9644 12.5063 23.9644C12.3548 23.9644 12.2046 23.9278 12.0678 23.8533C11.6854 23.6444 2.67884 18.6799 0.483686 11.8465L0.482465 11.8453C-0.895459 7.54295 0.638825 2.13631 5.59226 0.539731C7.91812 -0.212753 10.4529 0.118291 12.5026 1.41193ZM6.15418 2.28412C2.14623 3.57654 1.13967 7.88743 2.22808 11.287C3.94071 16.6155 10.7069 20.924 12.5051 21.9904C14.3093 20.913 21.1244 16.5569 22.7821 11.2919C23.8705 7.88866 22.8603 3.57776 18.8462 2.28412C16.9015 1.6599 14.6331 2.03981 13.067 3.2516C12.7396 3.50324 12.2852 3.50813 11.9554 3.25893C10.2965 2.01171 8.12945 1.64647 6.15418 2.28412ZM17.6735 4.71003C19.3385 5.24874 20.5051 6.72316 20.648 8.46633C20.6883 8.97084 20.3133 9.41305 19.8088 9.45336C19.7832 9.4558 19.7587 9.45702 19.7331 9.45702C19.2603 9.45702 18.8597 9.09422 18.8206 8.61537C18.74 7.61124 18.0681 6.76347 17.1116 6.45442C16.6291 6.29806 16.3652 5.78134 16.5204 5.30126C16.678 4.81997 17.1898 4.55855 17.6735 4.71003Z" fill="#F4EDE4"/>
</svg>
