<svg width="73" height="73" viewBox="0 0 73 73" fill="none" xmlns="http://www.w3.org/2000/svg">
<path d="M60.955 58.1266C60.955 59.4041 59.7688 60.4079 58.2175 60.4079H16.1513C14.6913 60.4079 13.4138 59.4041 13.4138 58.1266V26.4629C13.4138 25.1854 14.6 24.1816 16.1513 24.1816H58.2175C59.6775 24.1816 60.955 25.1854 60.955 26.4629V58.1266Z" fill="#E1E0A6"/>
<path d="M58.2175 61.3198H16.1512C14.1437 61.3198 12.5012 59.8598 12.5012 58.1261V26.4623C12.5012 24.7286 14.1437 23.2686 16.1512 23.2686H58.2175C60.225 23.2686 61.8675 24.7286 61.8675 26.4623V58.1261C61.8675 59.8598 60.225 61.3198 58.2175 61.3198ZM16.1512 25.0936C15.1475 25.0936 14.3262 25.7323 14.3262 26.4623V58.1261C14.3262 58.8561 15.1475 59.4948 16.1512 59.4948H58.2175C59.2212 59.4948 60.0425 58.8561 60.0425 58.1261V26.4623C60.0425 25.7323 59.2212 25.0936 58.2175 25.0936H16.1512Z" fill="#231C1C"/>
<path d="M65.4263 32.0287C65.4263 33.5799 64.4225 34.8574 63.145 34.8574L37.1388 23.4512L11.1325 34.8574C9.85501 34.8574 8.85126 33.5799 8.85126 32.0287V28.0137C8.85126 26.4624 9.85501 25.1849 11.1325 25.1849L37.1388 12.0449L63.145 25.1849C64.4225 25.1849 65.4263 26.4624 65.4263 28.0137V32.0287Z" fill="#6FB0BE"/>
<path d="M63.145 35.77C63.0537 35.77 62.8712 35.77 62.78 35.6787L37.1387 24.455L11.4975 35.6787C11.4062 35.77 11.2237 35.77 11.1325 35.77C9.39872 35.77 7.93872 34.1275 7.93872 32.0287V28.0137C7.93872 26.0062 9.21622 24.3637 10.8587 24.2725L36.6825 11.2237C36.9562 11.1325 37.23 11.1325 37.5037 11.2237L63.3275 24.2725C64.97 24.455 66.2475 26.0062 66.2475 28.0137V32.0287C66.3387 34.0362 64.97 35.77 63.145 35.77ZM37.1387 13.0487L11.5887 26.0062C11.4975 26.0975 11.315 26.0975 11.2237 26.0975C10.4937 26.0975 9.85497 27.01 9.85497 28.0137V32.0287C9.85497 33.0325 10.4025 33.8537 11.0412 33.945L36.865 22.63C37.1387 22.5387 37.3212 22.5387 37.595 22.63L63.4187 33.945C64.0575 33.8537 64.605 33.0325 64.605 32.0287V28.0137C64.605 26.9187 63.9662 26.0975 63.2362 26.0975C63.0537 26.0975 62.9625 26.0975 62.78 26.0062L37.1387 13.0487Z" fill="#231C1C"/>
<path d="M44.4388 60.4991H31.755V45.2603C31.755 43.9828 32.85 43.0703 34.1275 43.0703H42.0663C43.3438 43.0703 44.4388 43.9828 44.4388 45.2603V60.4991Z" fill="#FDE8C2"/>
<path d="M44.4388 61.411H31.755C31.2075 61.411 30.8425 61.046 30.8425 60.4985V45.2597C30.8425 43.526 32.2113 42.1572 34.1275 42.1572H42.0663C43.8913 42.1572 45.3513 43.4347 45.3513 45.2597V60.4072C45.3513 60.9547 44.9863 61.411 44.4388 61.411ZM32.6675 59.586H43.5263V45.2597C43.5263 44.4385 42.7963 43.9822 42.0663 43.9822H34.1275C33.3975 43.9822 32.6675 44.3472 32.6675 45.2597V59.586Z" fill="#231C1C"/>
</svg>
