<svg width="37" height="37" viewBox="0 0 37 37" fill="none" xmlns="http://www.w3.org/2000/svg">
<g filter="url(#filter0_b_3220_5108)">
<circle cx="18.5" cy="18.5" r="18.5" fill="white" fill-opacity="0.5"/>
</g>
<path d="M14.9079 8.00017C15.6009 8.02125 16.2719 8.14224 16.922 8.36334H16.9869C17.0309 8.38424 17.0639 8.40734 17.0859 8.42824C17.329 8.50634 17.5589 8.59434 17.7789 8.71534L18.1969 8.90234C18.3619 8.99034 18.5599 9.15423 18.6699 9.22133C18.7799 9.28623 18.9009 9.35333 18.9999 9.42923C20.222 8.49534 21.7059 7.98935 23.2349 8.00017C23.929 8.00017 24.6219 8.09824 25.2808 8.31934C29.3409 9.63933 30.8039 14.0943 29.5818 17.9882C28.8888 19.9781 27.7558 21.7942 26.2719 23.2781C24.1479 25.3351 21.817 27.161 19.3079 28.734L19.0329 28.9001L18.7469 28.723C16.229 27.161 13.885 25.3351 11.7411 23.2671C10.2671 21.7832 9.13301 19.9781 8.42901 17.9882C7.18603 14.0943 8.64901 9.63933 12.7531 8.29624C13.0721 8.18624 13.401 8.10924 13.731 8.06635H13.863C14.1721 8.02125 14.479 8.00017 14.7869 8.00017H14.9079ZM24.7088 11.4763C24.2578 11.3212 23.7629 11.5643 23.5979 12.0263C23.4439 12.4883 23.6859 12.9943 24.1478 13.1582C24.8529 13.4222 25.3248 14.1163 25.3248 14.8852V14.9193C25.3039 15.1712 25.3798 15.4143 25.5338 15.6013C25.6878 15.7883 25.9188 15.8972 26.1608 15.9203C26.6118 15.9082 26.9968 15.5463 27.0298 15.0832V14.9523C27.0628 13.4112 26.1289 12.0153 24.7088 11.4763Z" fill="#F30000"/>
<defs>
<filter id="filter0_b_3220_5108" x="-4" y="-4" width="45" height="45" filterUnits="userSpaceOnUse" color-interpolation-filters="sRGB">
<feFlood flood-opacity="0" result="BackgroundImageFix"/>
<feGaussianBlur in="BackgroundImageFix" stdDeviation="2"/>
<feComposite in2="SourceAlpha" operator="in" result="effect1_backgroundBlur_3220_5108"/>
<feBlend mode="normal" in="SourceGraphic" in2="effect1_backgroundBlur_3220_5108" result="shape"/>
</filter>
</defs>
</svg>
