<svg width="41" height="41" viewBox="0 0 41 41" fill="none" xmlns="http://www.w3.org/2000/svg">
<g clip-path="url(#clip0_3024_4135)">
<path d="M23.6323 20.0148C23.5822 19.5945 23.5531 19.1719 23.5454 18.7486C24.9696 17.8817 26.0714 16.018 26.2796 15.4527C26.3139 15.3474 26.3849 15.1492 26.4478 14.9138L26.579 14.8935C26.86 14.8466 27.1241 14.7276 27.3454 14.5481C27.6178 14.3165 27.837 14.0287 27.9881 13.7046C28.3087 13.0633 28.4468 12.3461 28.3873 11.6316C28.3789 11.449 28.3323 11.2703 28.2504 11.1069C28.1798 10.9884 28.0835 10.8873 27.9687 10.811C27.8538 10.7346 27.7233 10.685 27.5868 10.6657C27.4476 10.6453 27.3057 10.6552 27.1707 10.6947C27.0357 10.7342 26.9108 10.8024 26.8046 10.8946C26.8046 10.8946 27.0283 5.52832 20.3509 5.52832C14.7647 5.52832 13.755 9.25953 13.6892 10.5056C13.6812 10.6351 13.6801 10.765 13.686 10.8946C13.5798 10.8024 13.4549 10.7342 13.3199 10.6947C13.185 10.6552 13.043 10.6453 12.9039 10.6657C12.7673 10.685 12.6368 10.7347 12.522 10.811C12.4072 10.8874 12.3109 10.9885 12.2402 11.1069C12.1583 11.2703 12.1117 11.449 12.1033 11.6316C12.0439 12.3461 12.182 13.0633 12.5026 13.7046C12.6537 14.0287 12.8729 14.3164 13.1453 14.5481C13.3666 14.7276 13.6306 14.8466 13.9117 14.8935L14.1615 14.9316C14.4049 15.8365 14.8368 16.6797 15.4289 17.4059C15.8592 17.9351 16.376 18.3875 16.9574 18.744C16.9476 19.1156 16.9175 19.5804 16.8728 19.9987C16.8728 19.9987 16.964 23.1346 20.2847 23.1346C23.6054 23.1346 23.6323 20.0148 23.6323 20.0148Z" fill="white"/>
<path d="M18.4577 0.347751C16.9962 0.514521 15.4919 1.0405 14.2733 2.26731L14.8567 2.76534C13.8622 3.37983 13.0813 4.57038 12.7224 5.62415C12.3003 6.86397 12.1741 8.6284 12.6754 10.7129L12.679 10.7282C12.7509 10.6975 12.8264 10.6762 12.9037 10.6647C13.0428 10.6443 13.1847 10.6542 13.3197 10.6937C13.4547 10.7331 13.5796 10.8013 13.6858 10.8935L14.5241 10.3942L14.5926 10.3531C16.365 8.69456 17.353 8.00786 18.9417 6.75994C18.9513 6.87059 19.3055 7.75599 19.3884 7.78964C19.4911 7.83117 20.5145 7.19819 21.3478 6.68317L22.7544 6.85428C23.4004 6.99561 24.0067 7.3466 24.5528 7.81645C25.5205 8.64916 26.2988 9.8551 26.7732 10.9278C26.8791 10.824 27.0077 10.7461 27.1488 10.7004C27.2899 10.6547 27.4397 10.6425 27.5863 10.6645C27.6444 10.6732 27.7014 10.6874 27.7568 10.707C28.2428 9.45837 28.3139 7.64991 27.6997 5.93373C27.2682 4.72722 26.2396 3.4655 25.4281 3.11063L24.4705 2.42815C23.5315 1.14053 21.9649 0.351287 19.9598 0.290032C19.4583 0.27326 18.9564 0.292549 18.4577 0.347751Z" fill="#7A7473"/>
<path d="M26.998 11.0878C27.1393 10.9713 27.3209 10.9154 27.5033 10.9322C27.6857 10.949 27.854 11.0372 27.9717 11.1776C28.1092 11.3584 28.118 11.6169 28.1252 11.834C28.1343 12.0715 28.1193 12.3093 28.0804 12.5438C27.9309 13.4096 27.4712 14.4648 26.5062 14.6296C26.4365 14.6494 26.3774 14.6958 26.3416 14.7588C26.3059 14.8218 26.2963 14.8963 26.315 14.9663C26.3358 15.0354 26.3823 15.0939 26.4451 15.1295C26.5078 15.1651 26.5819 15.1751 26.6519 15.1575C27.6248 14.9914 28.2053 14.0831 28.4821 13.2082C28.6332 12.7317 28.6962 12.2317 28.6681 11.7327C28.6391 11.2527 28.5012 10.7994 28.0605 10.5464C27.8327 10.4189 27.5709 10.3653 27.3113 10.3928C27.0516 10.4203 26.8069 10.5276 26.6108 10.7C26.5601 10.7517 26.5316 10.8212 26.5316 10.8936C26.5316 10.966 26.5601 11.0355 26.6108 11.0872C26.6629 11.1371 26.7322 11.1651 26.8044 11.1651C26.8766 11.1651 26.9459 11.1371 26.998 11.0872V11.0878Z" fill="#211715"/>
<path d="M26.2952 14.1652C26.2796 14.4453 26.2281 14.7222 26.1419 14.9891C26.1109 15.0939 26.0768 15.1974 26.042 15.3009C26.0318 15.3312 26.0221 15.3618 26.0111 15.3921C26.0078 15.4009 26.004 15.4095 26.0009 15.4183C25.9791 15.48 26.01 15.3989 26.0017 15.4172C25.8755 15.6908 25.7311 15.9556 25.5694 16.2098C25.1064 16.9782 24.5145 17.661 23.8195 18.2283C23.4421 18.538 23.0012 18.7608 22.5281 18.8808C22.1847 18.9596 22.3301 19.4876 22.6736 19.4088C23.6479 19.1853 24.4632 18.4825 25.1056 17.7479C25.6517 17.1454 26.107 16.4664 26.4572 15.7324C26.6846 15.2395 26.8155 14.7077 26.8428 14.1656C26.8542 13.8131 26.3066 13.8135 26.2952 14.1656V14.1652Z" fill="#211715"/>
<path d="M13.8789 10.6997C13.7084 10.5487 13.4999 10.4468 13.2759 10.4051C13.0519 10.3633 12.8207 10.3832 12.6072 10.4627C12.1363 10.6489 11.9 11.0433 11.8398 11.5325C11.7251 12.5081 11.9741 13.4919 12.5392 14.2954C12.8586 14.7272 13.2984 15.0644 13.838 15.1566C13.9079 15.1738 13.9818 15.1635 14.0444 15.128C14.107 15.0924 14.1537 15.0342 14.1747 14.9654C14.1935 14.8954 14.1839 14.8208 14.1481 14.7578C14.1124 14.6948 14.0532 14.6484 13.9836 14.6286C13.0186 14.4638 12.5588 13.4081 12.4094 12.5429C12.3704 12.3084 12.3553 12.0706 12.3646 11.833C12.3716 11.6163 12.3806 11.3572 12.5181 11.1767C12.6358 11.0363 12.8042 10.9482 12.9866 10.9315C13.169 10.9148 13.3506 10.9709 13.4918 11.0876C13.544 11.1372 13.6133 11.1649 13.6854 11.1649C13.7574 11.1649 13.8267 11.1372 13.8789 11.0876C13.9297 11.0359 13.9581 10.9664 13.9581 10.894C13.9581 10.8216 13.9297 10.7521 13.8789 10.7004V10.6997Z" fill="#211715"/>
<path d="M13.6865 14.0658C13.8401 15.0357 14.1741 15.9681 14.6712 16.8149C15.2379 17.7471 16.061 18.5893 17.0325 19.0997C17.548 19.3711 18.1108 19.5408 18.6904 19.5997C18.7628 19.5992 18.8322 19.5702 18.8834 19.5189C18.9347 19.4677 18.9637 19.3984 18.9641 19.3259C18.9626 19.2538 18.9332 19.1851 18.8822 19.134C18.8312 19.083 18.7625 19.0537 18.6904 19.0521C16.7185 18.8479 15.1838 17.0817 14.5655 15.3052C14.4109 14.8539 14.2934 14.3907 14.2142 13.9203C14.1944 13.8506 14.1479 13.7915 14.0849 13.7557C14.022 13.72 13.9474 13.7104 13.8774 13.7291C13.8083 13.7497 13.7499 13.7963 13.7142 13.859C13.6786 13.9218 13.6686 13.9959 13.6863 14.0658H13.6865Z" fill="#211715"/>
<path d="M25.2907 3.34762C25.6694 3.53627 26.0057 3.80021 26.2789 4.1233C26.6283 4.50865 26.9266 4.93744 27.1663 5.39905C27.6911 6.40126 27.899 7.58508 27.8638 8.70935C27.8487 9.28148 27.7527 9.8486 27.5786 10.3938C27.4695 10.7297 27.998 10.8737 28.1065 10.5394C28.4644 9.43654 28.4892 8.23607 28.2905 7.10028C28.0927 5.92189 27.5825 4.81813 26.8129 3.90405C26.4699 3.49854 26.0572 3.09473 25.5664 2.87435C25.5032 2.83986 25.4293 2.83081 25.3596 2.84907C25.29 2.86733 25.23 2.91151 25.1919 2.97256C25.1558 3.0354 25.1459 3.1099 25.1643 3.17998C25.1827 3.25006 25.2279 3.31011 25.2901 3.34717L25.2907 3.34762Z" fill="#211715"/>
<path d="M15.3289 2.233C14.1594 2.67103 13.2914 3.72617 12.759 4.82375C12.2371 5.89988 12.0526 7.10388 12.0774 8.2926C12.0998 9.13307 12.2115 9.96878 12.4108 10.7856C12.4925 11.1278 13.0205 10.9832 12.9388 10.64C12.3984 8.3704 12.4343 5.76722 14.0003 3.89294C14.3978 3.41716 14.8863 2.9813 15.4745 2.76103C15.5434 2.74001 15.6016 2.69337 15.6372 2.63071C15.6728 2.56805 15.6829 2.49413 15.6657 2.42418C15.6459 2.35449 15.5995 2.29538 15.5364 2.25961C15.4734 2.22384 15.3989 2.21428 15.3289 2.233Z" fill="#211715"/>
<path d="M24.7078 2.29027C23.819 1.0825 22.4672 0.35234 20.9977 0.116445C19.4974 -0.12447 17.8494 0.00237522 16.4282 0.553673C15.5481 0.891442 14.7482 1.40922 14.0797 2.07388C13.83 2.32323 14.2166 2.7105 14.4669 2.46103C15.5268 1.40224 16.9292 0.804398 18.4075 0.627362C19.8061 0.460022 21.3099 0.539757 22.5845 1.18893C23.2343 1.5136 23.7994 1.98529 24.235 2.56654C24.2731 2.62767 24.3331 2.67191 24.4028 2.69017C24.4724 2.70843 24.5464 2.69934 24.6096 2.66476C24.6719 2.62776 24.7171 2.56773 24.7355 2.49765C24.7539 2.42757 24.7439 2.35307 24.7078 2.29027Z" fill="#211715"/>
<path d="M21.6323 6.18697C21.0713 6.53123 20.5152 6.88382 19.9463 7.21497C19.8351 7.27976 19.7232 7.34375 19.6098 7.40466C19.5635 7.42953 19.517 7.45406 19.4697 7.47733C19.4515 7.48622 19.4331 7.49466 19.4149 7.50356C19.3647 7.52809 19.4067 7.5071 19.4109 7.50573C19.3979 7.50821 19.3854 7.51268 19.3738 7.51896C19.3566 7.54029 19.3267 7.50003 19.3771 7.52193C19.4428 7.53671 19.5068 7.55799 19.5683 7.58546C19.5781 7.59276 19.6005 7.64136 19.5774 7.59413C19.5318 7.50151 19.4818 7.41162 19.4397 7.3174C19.3887 7.20333 19.3485 7.10398 19.2979 6.97029C19.2766 6.91394 19.2557 6.85736 19.2369 6.8001C19.2255 6.76587 19.2003 6.63949 19.2159 6.7604C19.214 6.70709 19.1969 6.65545 19.1664 6.61162C19.136 6.5678 19.0937 6.53363 19.0444 6.5132C18.9951 6.49277 18.941 6.48693 18.8885 6.49638C18.836 6.50582 18.7873 6.53016 18.7482 6.56648C17.6369 7.43911 16.5046 8.28403 15.4402 9.21529C15.064 9.54465 14.6938 9.88088 14.3299 10.224C14.0723 10.4656 14.46 10.8522 14.717 10.6112C15.8067 9.59001 16.9526 8.6454 18.1333 7.73284C18.4679 7.47428 18.802 7.21466 19.1357 6.95397L18.6681 6.76006C18.7176 7.00662 18.8001 7.24541 18.9132 7.47003C18.9937 7.65972 19.0927 7.99475 19.3203 8.05509C19.5285 8.11064 19.774 7.93885 19.9465 7.84406C20.2446 7.68037 20.5355 7.50311 20.8257 7.32607C21.1875 7.10535 21.5471 6.8812 21.9082 6.65945C22.2081 6.47545 21.9333 6.00161 21.6319 6.18663L21.6323 6.18697Z" fill="#211715"/>
<path d="M22.6818 7.11882C23.6039 7.32768 24.3663 7.93727 24.986 8.62761C25.6006 9.3254 26.1071 10.1113 26.4887 10.9592C26.5257 11.0215 26.5858 11.0667 26.6559 11.0851C26.726 11.1034 26.8005 11.0935 26.8633 11.0574C26.9247 11.0196 26.9692 10.9596 26.9875 10.8899C27.0058 10.8201 26.9965 10.746 26.9615 10.6829C26.5508 9.77907 26.0043 8.94336 25.3409 8.20476C24.6679 7.46433 23.8196 6.81562 22.8272 6.59079C22.484 6.51311 22.3375 7.04079 22.6816 7.11882H22.6818Z" fill="#211715"/>
<path d="M17.1462 19.9973C17.1903 19.5804 17.2199 19.1615 17.2317 18.7425C17.2311 18.6701 17.2021 18.6008 17.1509 18.5496C17.0997 18.4984 17.0304 18.4693 16.958 18.4688C16.8858 18.4701 16.8169 18.4994 16.7659 18.5505C16.7148 18.6015 16.6856 18.6703 16.6842 18.7425C16.6728 19.1615 16.6428 19.5804 16.5986 19.9973C16.5989 20.0698 16.6278 20.1393 16.6791 20.1906C16.7304 20.2419 16.7999 20.2708 16.8724 20.271C16.9444 20.2691 17.0129 20.2396 17.0638 20.1887C17.1147 20.1378 17.1442 20.0693 17.1462 19.9973Z" fill="#211715"/>
<path d="M23.2725 18.763C23.2804 19.1813 23.3093 19.5989 23.3592 20.0143C23.3609 20.0863 23.3903 20.1549 23.4413 20.2059C23.4923 20.2568 23.5609 20.2863 23.6329 20.288C23.7668 20.2821 23.9247 20.1665 23.9067 20.0143C23.8569 19.5989 23.8279 19.1813 23.82 18.763C23.82 18.6904 23.7912 18.6208 23.7398 18.5694C23.6885 18.5181 23.6188 18.4893 23.5462 18.4893C23.4736 18.4893 23.404 18.5181 23.3526 18.5694C23.3013 18.6208 23.2725 18.6904 23.2725 18.763Z" fill="#211715"/>
<path d="M33.9021 32.6281C33.8387 31.4165 33.6766 29.9171 33.5599 28.9716C33.4501 28.0796 33.3581 27.1562 33.001 26.3313C32.3736 24.8816 30.9383 23.9538 29.4976 23.3059C28.043 22.6518 25.9765 21.823 25.0171 21.3501C24.9617 21.1014 24.3514 19.9688 24.1463 19.439C24.1319 19.4017 24.1128 19.36 24.0744 19.3486C24.0326 19.3361 23.9912 19.3666 23.9581 19.395C23.5879 19.713 21.5551 21.3684 21.3372 21.6359C21.2842 21.8139 21.1866 22.228 21.0651 22.5979C20.8141 23.2025 20.4971 23.9554 20.2542 24.4645C20.085 24.1002 19.7694 23.3238 19.5936 22.9067C19.3757 22.2223 19.2463 21.8884 19.1715 21.6359C18.9536 21.3687 16.9208 19.713 16.5506 19.395C16.5175 19.3666 16.4761 19.3361 16.4342 19.3486C16.3959 19.36 16.3772 19.4017 16.3624 19.439C16.1561 19.9716 15.5403 21.1138 15.4906 21.3531C13.5405 22.1555 11.6626 23.1234 9.8775 24.2463C9.22879 24.6505 8.57802 25.0875 8.12619 25.7041C7.43037 26.6538 7.27752 27.9199 7.15946 29.0914C7.05588 30.1188 6.92162 32.6275 7.08542 34.528C7.18516 35.3697 7.55046 36.1578 8.12834 36.7778C8.70622 37.3979 9.46662 37.8177 10.2992 37.9763C12.061 38.2739 13.3007 36.9296 14.3009 35.6797C14.5848 35.3249 14.8484 34.9578 15.0957 34.5809L15.338 34.5616C15.913 34.4741 16.5471 35.0387 16.9806 35.205C17.4947 35.4024 18.5466 35.6737 19.0959 35.7111L19.1301 35.7159C19.0396 37.0989 18.8212 39.2817 18.8725 39.895C20.2185 40.2922 26.201 40.8057 27.7727 40.727C29.2804 40.6516 30.8829 40.802 32.1817 39.9021C33.559 38.9476 33.9965 38.0051 33.9916 36.3932C33.9876 35.0904 33.9904 33.9293 33.9009 32.6091" fill="#6DBF6B"/>
<path d="M19.9805 24.077C19.9805 25.063 19.9955 26.0492 20.007 27.0353C20.0264 28.6963 20.0478 30.3574 20.0714 32.0185C20.0858 33.0594 20.1005 34.1003 20.1158 35.1412C20.1209 35.4932 20.6684 35.4948 20.6633 35.1412C20.6368 33.3217 20.6116 31.5023 20.5875 29.6829C20.5688 28.2556 20.552 26.8283 20.5369 25.4009C20.5327 24.9595 20.5281 24.5183 20.528 24.077C20.528 23.7246 19.9805 23.7241 19.9805 24.077Z" fill="#211715"/>
<path d="M24.9055 21.5995C25.7288 22.001 26.5803 22.3463 27.423 22.7042C28.366 23.1047 29.3325 23.4807 30.2317 23.9746C31.0865 24.444 31.9104 25.0469 32.4463 25.8764C33.0585 26.8242 33.1637 27.9684 33.2967 29.0614C33.4409 30.2461 33.5643 31.4356 33.6275 32.6276C33.6461 32.9781 34.1937 32.9803 34.175 32.6276C34.1164 31.5256 34.005 30.4261 33.8761 29.3301C33.7422 28.1914 33.6571 26.9929 33.1247 25.9558C32.141 24.0394 29.9918 23.2081 28.1273 22.4135C27.1426 21.9939 26.1442 21.596 25.1817 21.1268C25.1185 21.0919 25.0444 21.0827 24.9747 21.101C24.905 21.1193 24.8449 21.1637 24.807 21.225C24.771 21.2878 24.7612 21.3623 24.7795 21.4323C24.7979 21.5024 24.8431 21.5624 24.9053 21.5995H24.9055Z" fill="#211715"/>
<path d="M15.4175 21.0888C14.1874 21.59 12.9863 22.1598 11.8199 22.7953C11.2395 23.111 10.667 23.441 10.1026 23.7854C9.56403 24.095 9.05088 24.4469 8.56806 24.8378C8.11686 25.2163 7.75482 25.6899 7.50778 26.2245C7.27298 26.7644 7.11213 27.3335 7.0296 27.9164C6.89118 28.8541 6.8058 29.7989 6.77386 30.7462C6.70542 32.0062 6.71795 33.2693 6.81139 34.5276C6.81321 34.5997 6.84263 34.6683 6.89359 34.7192C6.94454 34.7702 7.01312 34.7996 7.08515 34.8014C7.15759 34.8009 7.22692 34.7719 7.27814 34.7206C7.32937 34.6694 7.35838 34.6001 7.35892 34.5276C7.27623 33.4332 7.25749 32.3348 7.3028 31.2381C7.33154 30.3414 7.38561 29.4453 7.49067 28.5542C7.61866 27.4677 7.85467 26.3286 8.64277 25.517C9.05679 25.1177 9.51782 24.7702 10.0157 24.4822C10.5606 24.1425 11.1133 23.8155 11.6738 23.5012C12.9301 22.793 14.2292 22.1635 15.5636 21.6165C15.6324 21.5953 15.6905 21.5486 15.726 21.486C15.7615 21.4234 15.7718 21.3496 15.7548 21.2797C15.7351 21.21 15.6887 21.1508 15.6256 21.115C15.5626 21.0793 15.488 21.0697 15.418 21.0885L15.4175 21.0888Z" fill="#211715"/>
<path d="M20.4906 24.3256C20.3765 24.0777 20.2712 23.8254 20.1661 23.5734C20.0531 23.3031 19.9218 23.0329 19.8323 22.754C19.7392 22.464 19.6408 22.1761 19.5421 21.8881C19.4827 21.715 19.448 21.525 19.3181 21.3906C19.0757 21.1397 18.7969 20.9193 18.531 20.694C18.1637 20.3823 17.7932 20.0745 17.4225 19.7669C17.2728 19.6428 17.1232 19.5185 16.9736 19.3942C16.8504 19.2915 16.7028 19.1268 16.5477 19.0841C16.1712 18.9804 16.0675 19.4482 15.9616 19.6773C15.8508 19.9168 15.7342 20.1537 15.6194 20.3911C15.5167 20.6032 15.412 20.8149 15.3194 21.0317C15.2596 21.172 15.1853 21.3205 15.2289 21.4766C15.2803 21.6196 15.3476 21.7562 15.4297 21.8841C15.5437 22.0894 15.6645 22.2928 15.7872 22.494C16.1187 23.0693 16.4924 23.6193 16.905 24.1394C16.9694 24.2194 17.0603 24.2736 17.1613 24.292C17.2622 24.3105 17.3665 24.2921 17.455 24.2402C17.6209 24.1368 17.6913 23.9059 17.7771 23.7383C17.9681 23.3656 18.1613 22.9945 18.3568 22.6248C18.5218 22.3137 18.0488 22.0366 17.8841 22.3484C17.732 22.6359 17.5813 22.9243 17.4319 23.2135C17.3596 23.3539 17.2874 23.4946 17.2152 23.6356C17.1667 23.7304 17.0099 23.9228 17.2711 23.7583C17.2997 23.7403 17.326 23.8307 17.2919 23.7523C17.28 23.7333 17.2662 23.7156 17.2508 23.6994C16.9314 23.2824 16.6449 22.84 16.3679 22.3944C16.1605 22.0609 15.9493 21.7238 15.7754 21.371C15.7659 21.3517 15.7583 21.3306 15.7474 21.3121C15.7284 21.28 15.7658 21.3818 15.7537 21.3243C15.7462 21.2882 15.7599 21.4103 15.7604 21.3787C15.7604 21.3629 15.7312 21.4496 15.7548 21.4207C15.7655 21.3968 15.7732 21.3716 15.7776 21.3458C15.7875 21.3181 15.7987 21.2908 15.8098 21.2635C15.7858 21.3223 15.8334 21.2105 15.8409 21.1937C15.8871 21.0911 15.9355 20.9895 15.9842 20.8881C16.0982 20.6498 16.2158 20.413 16.3297 20.1745C16.3834 20.062 16.4364 19.9492 16.4874 19.8355C16.5284 19.7219 16.5783 19.6118 16.6366 19.5062L16.5384 19.6044L16.5709 19.5841L16.4327 19.6215H16.4741L16.336 19.5841C16.3924 19.6193 16.4455 19.6598 16.4945 19.7049C16.569 19.7673 16.6437 19.8295 16.7185 19.8915C16.9192 20.0582 17.12 20.2249 17.3207 20.3915C17.7482 20.7469 18.1762 21.1021 18.5942 21.4691C18.7306 21.579 18.8583 21.6991 18.9764 21.8284L18.9059 21.7076C19.2079 22.6971 19.5791 23.6642 20.0166 24.6017C20.0537 24.6639 20.1137 24.7091 20.1838 24.7275C20.2538 24.7458 20.3283 24.7359 20.3911 24.6999C20.4526 24.6621 20.4971 24.6021 20.5154 24.5323C20.5337 24.4625 20.5244 24.3883 20.4893 24.3253L20.4906 24.3256Z" fill="#211715"/>
<path d="M20.4901 24.6028C20.7195 24.12 20.9276 23.6273 21.1348 23.1347C21.2442 22.888 21.3389 22.6352 21.4185 22.3774C21.4823 22.1554 21.5361 21.9305 21.601 21.7088L21.5305 21.8296C21.6265 21.7235 21.7302 21.6246 21.8409 21.5338C22.0286 21.3668 22.2199 21.2039 22.4112 21.0415C22.8414 20.6771 23.2757 20.3178 23.7096 19.9578C23.8008 19.8818 23.8921 19.8057 23.9833 19.7297C24.0164 19.7021 24.0494 19.6744 24.0823 19.6466C24.1082 19.6214 24.1381 19.6005 24.1706 19.5848L24.0325 19.6222H24.0738L23.9356 19.5848L23.9682 19.6051L23.8699 19.5069C23.9706 19.6911 24.0579 19.8824 24.1312 20.0791C24.2345 20.2979 24.3414 20.5151 24.447 20.7328C24.5301 20.9039 24.6448 21.1395 24.7017 21.2759C24.6914 21.251 24.7202 21.3227 24.726 21.3384C24.7345 21.3612 24.7397 21.3876 24.7494 21.4102C24.7591 21.4327 24.7423 21.443 24.7506 21.4039C24.7697 21.3119 24.7217 21.5016 24.7549 21.3192C24.7458 21.3695 24.7549 21.3215 24.7621 21.3078C24.3541 22.0917 23.8867 22.8432 23.364 23.5558C23.3286 23.6042 23.2927 23.6524 23.2564 23.7001C23.2564 23.7001 23.2157 23.7521 23.2153 23.753L23.1948 23.779C23.2567 23.7366 23.3204 23.7503 23.3858 23.82C23.3736 23.7872 23.3576 23.7559 23.3381 23.7267L23.2583 23.5704C23.2185 23.4928 23.1787 23.4152 23.1389 23.3376C22.9691 23.0072 22.7973 22.6778 22.6235 22.3495C22.4584 22.038 21.9857 22.3144 22.1508 22.6259C22.3175 22.9405 22.4822 23.2561 22.6449 23.5727C22.7916 23.8579 22.9375 24.3746 23.3509 24.2913C23.4924 24.2513 23.6128 24.1581 23.687 24.0311C23.7761 23.9155 23.8627 23.7982 23.9468 23.6791C24.1077 23.4523 24.262 23.221 24.4123 22.9872C24.674 22.5804 24.9314 22.1673 25.1574 21.7395C25.2304 21.6316 25.2772 21.5082 25.2943 21.3791C25.2741 21.2164 25.2211 21.0595 25.1385 20.9178C24.9332 20.4604 24.6972 20.0167 24.492 19.5595C24.4835 19.5406 24.4752 19.5216 24.4669 19.5025C24.4679 19.5047 24.4292 19.415 24.4487 19.4615C24.4259 19.408 24.4074 19.352 24.3822 19.2999C24.3614 19.2495 24.3295 19.2044 24.2888 19.1681C24.2482 19.1318 24.1998 19.1051 24.1474 19.0901C24.095 19.0751 24.0399 19.0722 23.9861 19.0815C23.9324 19.0908 23.8815 19.1122 23.8372 19.1439C23.7226 19.2278 23.613 19.3182 23.5089 19.4147C22.8451 19.9672 22.1743 20.512 21.5254 21.082C21.4101 21.1832 21.292 21.2837 21.1858 21.3945C21.1137 21.4736 21.0638 21.5704 21.0411 21.6749C20.9955 21.844 20.9522 22.0136 20.9042 22.1821C20.7888 22.5522 20.6498 22.9147 20.4883 23.2672C20.3369 23.6223 20.1829 23.9766 20.0172 24.3253C19.9825 24.3885 19.9733 24.4625 19.9916 24.5322C20.0099 24.6019 20.0542 24.6619 20.1155 24.6999C20.1783 24.7359 20.2527 24.7458 20.3228 24.7275C20.3929 24.7091 20.4529 24.6639 20.4899 24.6017L20.4901 24.6028Z" fill="#211715"/>
<path d="M28.4112 28.1521C28.3943 30.1802 28.4523 32.2075 28.5138 34.2345C28.5214 34.4855 28.5314 34.7364 28.5316 34.9867C28.5316 35.339 29.0792 35.3396 29.0792 34.9867C29.0792 34.4129 29.0488 33.8382 29.0318 33.2648C29.001 32.2249 28.9756 31.1849 28.9634 30.1447C28.9558 29.4805 28.9543 28.8164 28.9589 28.1521C28.9619 27.7997 28.4144 27.7994 28.4114 28.1521H28.4112Z" fill="#211715"/>
<path d="M12.615 37.387C11.9485 37.8579 11.1831 38.1304 10.2812 37.9726C10.7222 38.5634 11.6011 38.7597 11.9434 38.8146C13.0691 38.9948 14.2597 39.1975 15.4096 39.0904C16.0004 39.0354 16.569 38.894 17.1663 38.8979C17.7947 38.9023 18.0218 38.8471 18.6497 38.8794L18.895 38.8711C18.9508 37.938 19.0697 36.6438 19.1308 35.7129L19.0959 35.7105C18.5465 35.6731 17.4947 35.4017 16.9806 35.2044C16.5471 35.0381 15.9132 34.4734 15.338 34.5609L15.0803 34.6032C14.8373 34.9722 14.5789 35.3316 14.3008 35.679C13.8081 36.2945 13.2574 36.933 12.615 37.387Z" fill="white"/>
<path d="M19.0954 35.437C18.4523 35.3694 17.8201 35.2221 17.2133 34.9985C16.6133 34.792 16.0433 34.198 15.3382 34.2874C15.2663 34.2896 15.1979 34.3192 15.1471 34.37C15.0962 34.4209 15.0667 34.4893 15.0645 34.5612C15.0649 34.6337 15.0938 34.7031 15.1451 34.7543C15.1964 34.8056 15.2657 34.8345 15.3382 34.835C15.6815 34.7914 15.9924 34.9726 16.2794 35.1387C16.5487 35.3043 16.8345 35.4415 17.1321 35.5482C17.7665 35.7731 18.426 35.9196 19.0959 35.9845C19.1683 35.9839 19.2376 35.9549 19.2888 35.9037C19.34 35.8525 19.369 35.7832 19.3697 35.7108C19.3683 35.6386 19.339 35.5698 19.2879 35.5187C19.2369 35.4677 19.1681 35.4384 19.0959 35.437H19.0954Z" fill="#211715"/>
<path d="M14.3226 36.1662C14.3926 36.1895 14.4621 36.2146 14.531 36.2415C14.5543 36.2506 14.5776 36.2599 14.6009 36.2693C14.6144 36.2738 14.6275 36.2792 14.6402 36.2855L14.5976 36.2675L14.6204 36.2774C14.6702 36.299 14.7194 36.3215 14.7681 36.345C14.866 36.3915 14.9603 36.445 15.0503 36.5053C15.0717 36.5199 15.143 36.5824 15.0673 36.5157C15.0841 36.5306 15.1016 36.5443 15.1184 36.5596C15.1353 36.5749 15.1483 36.5892 15.1626 36.6046C15.1968 36.6417 15.1512 36.5824 15.1448 36.5797C15.1522 36.5829 15.1614 36.6035 15.1658 36.6105C15.1839 36.6415 15.208 36.6687 15.2367 36.6904C15.2653 36.7122 15.298 36.7281 15.3327 36.7372C15.3675 36.7463 15.4038 36.7485 15.4394 36.7436C15.475 36.7387 15.5093 36.7268 15.5404 36.7087C15.5714 36.6906 15.5986 36.6665 15.6203 36.6378C15.6421 36.6092 15.658 36.5765 15.6671 36.5417C15.6762 36.507 15.6784 36.4707 15.6735 36.4351C15.6686 36.3995 15.6567 36.3651 15.6386 36.3341C15.4897 36.132 15.2886 35.9742 15.0568 35.8778C14.8663 35.7848 14.6697 35.7047 14.4684 35.6383C14.3983 35.6196 14.3238 35.6291 14.2608 35.6649C14.1977 35.7007 14.1513 35.7598 14.1315 35.8296C14.1139 35.8995 14.124 35.9736 14.1596 36.0363C14.1952 36.099 14.2537 36.1456 14.3228 36.1663L14.3226 36.1662Z" fill="#211715"/>
<path d="M18.6493 38.6054C18.1285 38.5804 17.6057 38.6169 17.0847 38.6245C16.4573 38.6335 15.845 38.7912 15.2206 38.8313C14.5744 38.863 13.9266 38.8332 13.286 38.7423C12.7713 38.6876 12.2599 38.606 11.7537 38.498C11.2946 38.3902 10.8354 38.2036 10.5217 37.838C10.4701 37.7872 10.4006 37.7588 10.3282 37.7588C10.2557 37.7588 10.1862 37.7872 10.1346 37.838C10.0846 37.89 10.0566 37.9594 10.0566 38.0316C10.0566 38.1037 10.0846 38.1731 10.1346 38.2251C10.7944 38.9949 11.8986 39.0931 12.8332 39.2279C13.4971 39.3349 14.1684 39.39 14.8409 39.3926C15.4989 39.3845 16.1363 39.2383 16.7895 39.1861C17.1105 39.1603 17.4338 39.1725 17.7555 39.1582C18.054 39.1449 18.3507 39.1382 18.6494 39.1525C19.0017 39.1696 19.0007 38.622 18.6494 38.605L18.6493 38.6054Z" fill="#211715"/>
<path d="M29.2806 34.7228C29.1871 34.7374 29.3404 34.7174 29.25 34.7271C29.2108 34.7312 29.1717 34.7357 29.1324 34.7395C29.0332 34.749 28.9337 34.7566 28.8343 34.7636C28.5623 34.7825 28.2899 34.7961 28.0176 34.8082C27.2656 34.8414 26.5129 34.8619 25.7604 34.8782C24.1159 34.9138 22.4697 34.9328 20.825 34.9059C20.4888 34.9004 20.1527 34.8929 19.8167 34.8782C19.6943 34.8727 19.5719 34.8668 19.4498 34.8577C19.4007 34.8542 19.3517 34.8504 19.3027 34.8463C19.2685 34.843 19.1162 34.8241 19.2356 34.8403C19.1951 34.8302 19.1527 34.8294 19.1118 34.8378C19.0708 34.8462 19.0323 34.8638 18.999 34.8891C18.9657 34.9145 18.9386 34.947 18.9196 34.9842C18.9005 35.0214 18.8901 35.0625 18.8891 35.1043C18.8394 36.4538 18.6712 37.7963 18.6058 39.1455C18.5875 39.3951 18.5849 39.6456 18.5982 39.8956C18.5998 39.9551 18.6201 40.0126 18.6562 40.0599C18.6922 40.1073 18.7423 40.1421 18.7992 40.1595C19.187 40.2625 19.5812 40.3394 19.9793 40.3896C20.5838 40.4808 21.1906 40.5541 21.7981 40.6206C23.1337 40.7667 24.4741 40.8808 25.8157 40.9554C27.0251 41.0185 28.2371 41.0156 29.4461 40.9467C30.3701 40.8974 31.3102 40.7521 32.1163 40.2699C32.7732 39.877 33.4002 39.3242 33.778 38.6509C34.1387 38.0083 34.2532 37.2707 34.264 36.5428C34.2795 35.5007 34.264 34.4535 34.2183 33.4123C34.2067 33.1446 34.1918 32.8771 34.1737 32.6097C34.1721 32.5376 34.1427 32.4689 34.0917 32.418C34.0407 32.367 33.9721 32.3376 33.9 32.3359C33.8276 32.3366 33.7583 32.3656 33.7071 32.4168C33.6559 32.468 33.6268 32.5373 33.6262 32.6097C33.6946 33.6411 33.711 34.6744 33.7148 35.7077C33.7177 36.4852 33.7527 37.275 33.4744 38.0156C33.2474 38.6196 32.7765 39.1235 32.256 39.5128C31.906 39.7829 31.5133 39.9925 31.0942 40.133C30.6803 40.2609 30.2534 40.3416 29.8214 40.3735C29.0654 40.4383 28.2964 40.4499 27.5377 40.4609C27.0742 40.4676 26.6099 40.4479 26.147 40.4253C24.8481 40.3616 23.5506 40.2542 22.2572 40.1218C21.1914 40.0122 20.1905 39.9278 19.15 39.685C19.081 39.6689 19.0124 39.6514 18.9447 39.6316L19.1456 39.8956C19.1044 39.3701 19.1685 38.8277 19.2059 38.3041C19.2585 37.5756 19.3219 36.848 19.3754 36.1196C19.4003 35.7815 19.4241 35.4431 19.4365 35.1044L19.09 35.3684C19.5748 35.4228 20.0622 35.4498 20.5501 35.449C21.3126 35.4653 22.0755 35.4668 22.8383 35.4638C24.4923 35.4576 26.1463 35.4327 27.7987 35.3656C28.3427 35.3583 28.8859 35.3202 29.4256 35.2516C29.4953 35.2318 29.5545 35.1854 29.5903 35.1223C29.626 35.0593 29.6356 34.9847 29.6168 34.9147C29.5959 34.8457 29.5494 34.7873 29.4867 34.7517C29.424 34.7161 29.35 34.706 29.28 34.7235L29.2806 34.7228Z" fill="#211715"/>
<path d="M19.2329 18.6009C18.456 18.7594 17.5488 19.2897 17.2958 19.8203C16.9228 20.6245 16.6241 21.461 16.4036 22.3196C16.1754 23.1795 15.9613 24.0797 15.5098 24.8311C15.4425 24.943 15.2965 25.1532 15.1816 25.3124C15.9207 25.7331 16.9269 26.3529 17.6285 26.8045C18.0546 26.5564 18.5283 26.3909 18.7156 25.9845C19.0635 25.2301 18.6982 24.7398 19.7 24.6593C20.0606 24.6303 20.3417 24.6707 20.584 24.3221C20.757 24.0727 20.7999 23.599 20.5673 23.4063C21.2061 23.4246 21.6396 22.9158 21.2473 22.1435C21.9137 21.8469 21.5739 20.8503 21.2815 20.5957C21.2815 20.0844 21.1283 19.6353 20.9456 19.3979C20.6533 19.0181 20.3027 18.6451 19.8498 18.5652C19.6436 18.5434 19.4352 18.5555 19.2329 18.6009Z" fill="white"/>
<path d="M15.4433 25.4121C16.0695 24.572 16.353 23.5878 16.6158 22.588C16.7506 22.0758 16.8976 21.5678 17.0753 21.0688C17.1627 20.8236 17.2558 20.58 17.3587 20.3411C17.4292 20.146 17.5224 19.9599 17.6364 19.7866C17.8583 19.5307 18.1305 19.3233 18.4361 19.1773C18.7503 19.0082 19.0914 18.8944 19.4442 18.8409C19.6032 18.8139 19.7662 18.8225 19.9215 18.8659C20.1085 18.9373 20.2763 19.051 20.412 19.1982C20.7121 19.4722 20.9123 19.8385 20.9808 20.2391C21.0036 20.3778 20.9808 20.5349 21.0173 20.6689C21.0375 20.7251 21.0712 20.7754 21.1153 20.8156C21.1289 20.8307 21.1724 20.8856 21.1412 20.8425C21.2262 20.9549 21.2867 21.0838 21.319 21.221C21.3602 21.3539 21.3692 21.4946 21.3454 21.6316C21.3343 21.6945 21.3065 21.7532 21.265 21.8017C21.2234 21.8501 21.1696 21.8865 21.1092 21.907C21.0474 21.9445 21.0027 22.0045 20.9844 22.0744C20.966 22.1443 20.9756 22.2185 21.0109 22.2815C21.1187 22.5012 21.1706 22.7552 21.0573 22.9332C21.0361 22.968 21.0084 22.9983 20.9756 23.0224C21.0051 22.9979 20.9325 23.0507 20.9343 23.0496C20.9125 23.0629 20.89 23.0749 20.8668 23.0855C20.771 23.1205 20.6693 23.1365 20.5673 23.1325C20.5137 23.1336 20.4615 23.1504 20.4172 23.1807C20.3729 23.211 20.3384 23.2535 20.3179 23.3031C20.2973 23.3526 20.2916 23.4071 20.3015 23.4599C20.3113 23.5126 20.3363 23.5614 20.3734 23.6001C20.5527 23.7632 20.4319 24.1755 20.2188 24.3054C20.0926 24.3612 19.9549 24.3861 19.8171 24.3781C19.6232 24.3815 19.4307 24.4105 19.2445 24.4646C19.1084 24.5057 18.9852 24.5811 18.8867 24.6836C18.7882 24.7861 18.7177 24.9122 18.682 25.0497C18.6107 25.3026 18.5968 25.5674 18.4942 25.8125C18.324 26.2194 17.8258 26.3728 17.4724 26.5777C17.1676 26.7543 17.443 27.2279 17.7487 27.0505C18.141 26.8232 18.5863 26.6537 18.8615 26.2742C19.0679 25.989 19.1151 25.6323 19.1856 25.2978C19.1974 25.2381 19.2135 25.1793 19.2335 25.1218C19.2156 25.1713 19.2335 25.1234 19.2455 25.1013C19.2522 25.0892 19.2599 25.0778 19.2673 25.0662C19.2872 25.0347 19.2252 25.1137 19.2701 25.0648C19.2798 25.0543 19.2907 25.0446 19.3013 25.0351C19.2928 25.0427 19.2566 25.0641 19.3004 25.0372C19.3134 25.0292 19.3701 24.9983 19.3574 25.0041C19.4317 24.9773 19.5085 24.9578 19.5866 24.9457C20.0021 24.8822 20.4179 24.9423 20.723 24.5872C21.031 24.229 21.1466 23.5635 20.7609 23.213L20.567 23.6807C20.7544 23.6919 20.9415 23.6544 21.1101 23.572C21.2788 23.4896 21.4233 23.365 21.5296 23.2103C21.7655 22.8352 21.6659 22.3781 21.4834 22.0059L21.3852 22.3804C21.7724 22.1979 21.9413 21.7802 21.8985 21.3695C21.8634 21.0287 21.7353 20.6395 21.4741 20.4027L21.5539 20.5966C21.5595 20.1811 21.4626 19.7706 21.2718 19.4015C21.0749 19.0663 20.8086 18.777 20.4909 18.5529C19.8943 18.1262 19.1449 18.2791 18.5127 18.5415C17.9142 18.7907 17.2963 19.1689 17.0138 19.7771C16.632 20.6204 16.3262 21.4961 16.0999 22.3937C15.9728 22.8767 15.8479 23.3615 15.6766 23.831C15.5062 24.2983 15.2679 24.738 14.9694 25.1359C14.9332 25.1987 14.9233 25.2732 14.9416 25.3433C14.96 25.4134 15.0053 25.4735 15.0676 25.5105C15.1307 25.5454 15.2048 25.5548 15.2746 25.5365C15.3443 25.5182 15.4044 25.4737 15.4422 25.4123L15.4433 25.4121Z" fill="#211715"/>
<path d="M19.0751 20.4305C19.7481 20.5874 20.4325 20.7052 21.1011 20.8806C21.1711 20.8999 21.2459 20.8906 21.3091 20.8547C21.3723 20.8188 21.4186 20.7594 21.4379 20.6893C21.4572 20.6193 21.4479 20.5445 21.412 20.4813C21.3762 20.4182 21.3167 20.3718 21.2466 20.3525C20.5779 20.1772 19.8938 20.0594 19.2207 19.9024C19.186 19.8929 19.1498 19.8902 19.1141 19.8947C19.0784 19.8991 19.0439 19.9105 19.0127 19.9283C18.9814 19.9461 18.9539 19.9698 18.9318 19.9982C18.9097 20.0265 18.8934 20.059 18.8839 20.0937C18.8743 20.1283 18.8717 20.1645 18.8761 20.2002C18.8806 20.2359 18.892 20.2704 18.9097 20.3017C18.9275 20.3329 18.9512 20.3604 18.9796 20.3825C19.008 20.4046 19.0404 20.4209 19.0751 20.4305Z" fill="#211715"/>
<path d="M18.5786 21.8682C19.022 21.9422 19.4626 22.0348 19.9027 22.1262C20.2899 22.2066 20.6802 22.2817 21.0628 22.382C21.4039 22.4715 21.5494 21.9434 21.2083 21.854C20.8258 21.7537 20.4354 21.6786 20.0483 21.5983C19.6082 21.507 19.1675 21.4142 18.7241 21.3401C18.6542 21.323 18.5804 21.3333 18.5177 21.3688C18.4551 21.4043 18.4085 21.4625 18.3873 21.5313C18.3686 21.6013 18.3781 21.6759 18.4139 21.7389C18.4497 21.8019 18.5089 21.8484 18.5786 21.8682Z" fill="#211715"/>
<path d="M18.4589 23.3678C18.6135 23.3793 18.7676 23.3994 18.9213 23.4195L18.975 23.4266L19.0321 23.4343L19.1894 23.4564C19.3015 23.4723 19.4135 23.4887 19.5254 23.5055C19.8513 23.5431 20.175 23.598 20.495 23.6702C20.8361 23.76 20.9815 23.232 20.6406 23.1422C20.3124 23.0683 19.9805 23.0121 19.6463 22.9738C19.2529 22.915 18.8565 22.8484 18.4593 22.8203C18.3867 22.8203 18.3171 22.8492 18.2657 22.9005C18.2144 22.9518 18.1855 23.0215 18.1855 23.0941C18.1855 23.1667 18.2144 23.2363 18.2657 23.2877C18.3171 23.339 18.3867 23.3678 18.4593 23.3678H18.4589Z" fill="#211715"/>
<path d="M11.8906 28.6315C12.9382 27.0027 14.0084 25.3585 14.2387 24.9917C14.2603 24.957 14.2933 24.9309 14.3321 24.918C14.3708 24.9052 14.4129 24.9063 14.4509 24.9213C15.4091 25.2999 18.3313 27.2153 18.4512 27.3711C18.5117 27.4498 18.58 27.5412 18.5503 27.6345C18.4319 28.0057 17.409 30.169 17.0386 30.9556L11.8906 28.6315Z" fill="#6DBF6B"/>
<path d="M10.0251 32.1103C10.4102 31.4427 10.8324 30.7952 11.2457 30.1452C11.8244 29.2363 12.4071 28.3297 12.9935 27.4255C13.4316 26.7477 13.8719 26.071 14.3076 25.3919C14.3371 25.3462 14.3664 25.3004 14.3958 25.2543C14.4122 25.2286 14.4642 25.1738 14.4662 25.1435C14.4432 25.1649 14.4138 25.1782 14.3826 25.1814C14.3049 25.1799 14.3172 25.155 14.356 25.1789C14.3862 25.1976 14.4214 25.2109 14.453 25.227C14.5296 25.2658 14.6055 25.3061 14.6811 25.3469C15.1031 25.5751 15.5169 25.8213 15.9282 26.0692C16.6912 26.5291 17.4708 26.9854 18.192 27.5102C18.2105 27.5237 18.2284 27.5385 18.2475 27.5514C18.1519 27.4867 18.2247 27.5264 18.2344 27.5428C18.2405 27.55 18.2475 27.5566 18.255 27.5625C18.1965 27.5035 18.302 27.617 18.2881 27.617C18.2318 27.617 18.3152 27.5288 18.2759 27.5917C18.2484 27.6477 18.2255 27.7058 18.2074 27.7655C18.2028 27.7769 18.1764 27.8394 18.2032 27.776C18.1944 27.7968 18.1855 27.8174 18.1766 27.8382C18.1538 27.8919 18.1305 27.9455 18.1066 27.9991C17.8909 28.4896 17.6645 28.976 17.438 29.4619C16.8727 30.6746 16.3178 31.8962 15.6761 33.0709C15.2822 33.8034 14.8371 34.5073 14.3444 35.1773C13.9313 35.7471 13.4658 36.277 12.9541 36.7601C12.4788 37.1959 11.9248 37.5614 11.2857 37.6955C10.7777 37.7899 10.2535 37.7398 9.77257 37.5511C9.33357 37.3841 8.92758 37.1409 8.57335 36.8325C8.14755 36.4599 7.8154 35.9923 7.60376 35.4676C7.48459 35.1652 7.40232 34.8496 7.35874 34.5275C7.35648 34.4556 7.32692 34.3872 7.27606 34.3364C7.2252 34.2855 7.15687 34.2559 7.08497 34.2537C6.9522 34.2537 6.79159 34.3798 6.81121 34.5275C6.89143 35.2228 7.13695 35.8889 7.52722 36.4699C7.86645 36.9571 8.30196 37.3696 8.80685 37.6818C9.2146 37.9392 9.66465 38.1224 10.1362 38.2231C10.8419 38.3643 11.5746 38.266 12.2181 37.9436C12.858 37.6296 13.3995 37.1315 13.8743 36.6076C14.4125 36.0115 14.9034 35.3743 15.3425 34.7019C16.1972 33.3971 16.8579 31.981 17.5204 30.5726C17.7734 30.0348 18.0256 29.4966 18.2733 28.9563C18.4752 28.5611 18.6526 28.1537 18.8045 27.7367C18.937 27.3146 18.5258 27.0705 18.2355 26.8751C17.8477 26.6138 17.4513 26.3641 17.0543 26.1167C16.5822 25.8222 16.107 25.5327 15.6265 25.2521C15.4227 25.133 15.2179 25.0155 15.0105 24.9023C14.8479 24.7964 14.6732 24.7105 14.4901 24.6462C14.0964 24.5464 13.8909 25.0292 13.7169 25.2992C13.4989 25.6376 13.2805 25.9756 13.0615 26.3133C12.4659 27.234 11.8716 28.1555 11.2786 29.0778C10.7671 29.8763 10.2536 30.6729 9.7615 31.4827C9.69078 31.5989 9.62063 31.7155 9.55264 31.8335C9.37629 32.1392 9.84922 32.4152 10.0255 32.1098L10.0251 32.1103Z" fill="#211715"/>
<path d="M19.1156 16.1245C19.4969 16.3214 19.9216 16.4195 20.3507 16.4097C20.7881 16.4069 21.2356 16.3232 21.5866 16.0498C21.6375 15.9982 21.6661 15.9287 21.6661 15.8562C21.6661 15.7837 21.6375 15.7142 21.5866 15.6626C21.5343 15.6128 21.4649 15.585 21.3926 15.585C21.3204 15.585 21.251 15.6128 21.1987 15.6626C21.2786 15.6006 21.2049 15.6562 21.1845 15.6693C21.1591 15.6855 21.133 15.7006 21.1063 15.715C21.0901 15.7235 21.0015 15.7624 21.0648 15.737C21.0293 15.7512 20.9935 15.7645 20.9571 15.7761C20.7478 15.8414 20.5288 15.8707 20.3097 15.8626C20.1006 15.867 19.8921 15.8389 19.6916 15.7794C19.6523 15.768 19.6137 15.7535 19.5748 15.7402C19.5622 15.7357 19.5499 15.7301 19.5372 15.7255C19.6056 15.7506 19.5478 15.7301 19.5345 15.724C19.4862 15.7012 19.4385 15.6774 19.3914 15.6526C19.3284 15.6175 19.2542 15.6081 19.1844 15.6264C19.1145 15.6447 19.0545 15.6893 19.0168 15.7508C18.981 15.8137 18.9712 15.8881 18.9895 15.9581C19.0079 16.0281 19.0529 16.0881 19.115 16.1253L19.1156 16.1245Z" fill="#211715"/>
<path d="M20.2374 13.1828C20.2956 13.3927 20.3422 13.6057 20.377 13.8208L20.3671 13.748C20.3713 13.7772 20.3721 13.8067 20.3695 13.8361L20.3793 13.7633C20.3773 13.7768 20.3741 13.79 20.3697 13.8029L20.3973 13.7374C20.3933 13.7463 20.3886 13.7549 20.3832 13.763L20.426 13.7075C20.4198 13.7151 20.4129 13.722 20.4052 13.7281L20.4606 13.6853C20.4444 13.6954 20.4276 13.7043 20.4101 13.712L20.4755 13.6844C20.4482 13.6961 20.4196 13.7044 20.3903 13.7092L20.4631 13.6994C20.4365 13.7026 20.4097 13.7026 20.3832 13.6994L20.456 13.7092C20.4259 13.705 20.3963 13.6978 20.3662 13.6936C20.2949 13.677 20.2199 13.6868 20.1552 13.7212C20.1241 13.7394 20.097 13.7634 20.0752 13.7921C20.0535 13.8207 20.0376 13.8534 20.0285 13.8882C20.0194 13.923 20.0172 13.9592 20.0221 13.9948C20.027 14.0305 20.0388 14.0648 20.057 14.0958C20.0744 14.1267 20.0978 14.1537 20.126 14.1753C20.1541 14.1969 20.1863 14.2125 20.2207 14.2213C20.2844 14.2298 20.3462 14.2463 20.4114 14.2491C20.5069 14.2498 20.6013 14.2277 20.6865 14.1846C20.7396 14.161 20.7866 14.1258 20.8241 14.0816C20.8616 14.0373 20.8887 13.9852 20.9033 13.929C20.9223 13.8362 20.9213 13.7403 20.9002 13.6479C20.866 13.4425 20.8179 13.2386 20.7651 13.037C20.7458 12.967 20.6995 12.9075 20.6363 12.8717C20.5732 12.8358 20.4984 12.8265 20.4283 12.8458C20.3583 12.8651 20.2988 12.9114 20.263 12.9746C20.2271 13.0377 20.2178 13.1126 20.2371 13.1826L20.2374 13.1828Z" fill="#211715"/>
<path d="M16.8121 11.3903C16.7056 11.7365 16.775 12.5328 17.4309 12.6007C18.2979 12.5954 18.3435 11.6326 18.052 11.1799C17.8132 10.8092 17.1106 10.6551 16.8121 11.3903Z" fill="#211715"/>
<path d="M23.7538 11.3903C23.8603 11.7365 23.791 12.5329 23.1351 12.6007C22.2682 12.5954 22.2225 11.6326 22.5139 11.1798C22.7528 10.8092 23.4553 10.6551 23.7538 11.3903Z" fill="#211715"/>
</g>
<defs>
<clipPath id="clip0_3024_4135">
<rect width="41" height="41" fill="white"/>
</clipPath>
</defs>
</svg>
