<svg width="42" height="42" viewBox="0 0 42 42" fill="none" xmlns="http://www.w3.org/2000/svg">
<path d="M32.6817 1H8.78147C4.48388 1 1 4.48388 1 8.78147V32.6817C1 36.9793 4.48388 40.4632 8.78147 40.4632H32.6817C36.9793 40.4632 40.4632 36.9793 40.4632 32.6817V8.78147C40.4632 4.48388 36.9793 1 32.6817 1Z" fill="#F4EDE4" stroke="#4A154B" stroke-width="1.64384"/>
<path d="M21.5444 17.4397L26.6553 6.80918C26.7292 6.65566 26.8841 6.55811 27.0545 6.55811H34.1944C34.3467 6.55811 34.4881 6.63639 34.5694 6.76528C34.6503 6.89417 34.6594 7.05572 34.5936 7.19286L27.8175 21.2873C27.7626 21.4013 27.6617 21.4865 27.5402 21.5213C27.5004 21.5328 27.4593 21.5384 27.4182 21.5384C27.3352 21.5384 27.253 21.5151 27.1812 21.4699L21.7066 18.0059C21.5167 17.8856 21.4471 17.6421 21.5444 17.4397Z" fill="#FF4F19"/>
<path d="M30.9178 6.55811H34.1944C34.3467 6.55811 34.4881 6.63639 34.5694 6.76528C34.6503 6.89417 34.6594 7.05572 34.5937 7.19286L27.8175 21.2873C27.7626 21.4013 27.6618 21.4865 27.5402 21.5213C27.5004 21.5328 27.4593 21.5384 27.4183 21.5384C27.3352 21.5384 27.2531 21.5151 27.1812 21.4699L24.5493 19.8046L30.9178 6.55811Z" fill="#E3001E"/>
<path d="M19.6973 17.4397L14.5865 6.80918C14.5125 6.65566 14.3577 6.55811 14.1873 6.55811H7.04735C6.8951 6.55811 6.75364 6.63639 6.67237 6.76528C6.59148 6.89417 6.5824 7.05572 6.64812 7.19286L13.4243 21.2873C13.4792 21.4013 13.58 21.4865 13.7015 21.5213C13.7413 21.5328 13.7824 21.5384 13.8235 21.5384C13.9066 21.5384 13.9887 21.5151 14.0605 21.4699L19.5352 18.0059C19.725 17.8856 19.7947 17.6421 19.6973 17.4397Z" fill="#FF4F19"/>
<path d="M10.324 6.55811H7.04735C6.8951 6.55811 6.75364 6.63639 6.67237 6.76528C6.59148 6.89417 6.5824 7.05572 6.64812 7.19286L13.4243 21.2873C13.4792 21.4013 13.58 21.4865 13.7015 21.5213C13.7413 21.5328 13.7824 21.5384 13.8235 21.5384C13.9066 21.5384 13.9887 21.5151 14.0605 21.4699L16.6925 19.8046L10.324 6.55811Z" fill="#E3001E"/>
<path d="M20.6269 34.9052C25.5193 34.9052 29.4853 30.9392 29.4853 26.0468C29.4853 21.1545 25.5193 17.1885 20.6269 17.1885C15.7346 17.1885 11.7686 21.1545 11.7686 26.0468C11.7686 30.9392 15.7346 34.9052 20.6269 34.9052Z" fill="#FFCD00"/>
<path d="M20.6269 34.9049C23.0731 34.9049 25.2877 33.9134 26.8907 32.3103L14.3631 19.7827C12.76 21.3857 11.7686 23.6003 11.7686 26.0465C11.7686 30.9388 15.7346 34.9049 20.6269 34.9049Z" fill="#FF9100"/>
<path d="M22.9431 30.4318C22.7978 30.4318 22.6515 30.3967 22.5166 30.3258L20.6269 29.3325L18.7371 30.3258C18.4265 30.4886 18.0567 30.4616 17.7739 30.2559C17.4897 30.0496 17.3504 29.7066 17.4097 29.3608L17.7704 27.2569L16.2414 25.7671C15.9901 25.5218 15.9014 25.1624 16.01 24.8287C16.1186 24.495 16.4014 24.256 16.7488 24.2054L18.8613 23.8985L19.8063 21.9843C19.9612 21.6698 20.2757 21.4743 20.6264 21.4741C20.9776 21.4741 21.2925 21.6696 21.4478 21.9843L22.3925 23.8985L24.5046 24.2054C24.8523 24.256 25.1352 24.4949 25.2438 24.8287C25.3524 25.1624 25.2637 25.5218 25.0124 25.7668L23.4833 27.2569L23.8445 29.3608C23.9037 29.7066 23.7645 30.0496 23.4803 30.2559C23.3199 30.3725 23.1321 30.4318 22.9431 30.4318ZM16.8599 25.1325L18.5554 26.785C18.6597 26.8869 18.7072 27.0335 18.6826 27.1771L18.2825 29.5105L18.5312 29.9338L18.3253 29.5417L20.421 28.44C20.5498 28.3721 20.7038 28.3721 20.8327 28.44L22.9284 29.5417L23.4081 29.4357L22.9716 29.5105L22.5711 27.1772C22.5465 27.0336 22.594 26.887 22.6983 26.7851L24.3938 25.1326L24.441 24.6438L24.3774 25.0822L22.0348 24.7418C21.8903 24.7208 21.7658 24.6302 21.7013 24.4994L20.6537 22.3765C20.6537 22.3769 20.6273 22.3767 20.6113 22.3765C20.6048 22.3765 20.6005 22.3765 20.6005 22.3765L19.5524 24.4996C19.488 24.6302 19.3634 24.7208 19.219 24.7418L16.8764 25.0822L16.5507 25.4499L16.8599 25.1325Z" fill="#F4EDE4"/>
<path d="M27.7149 26.4897C27.5994 26.4897 27.4843 26.4408 27.4 26.3613C27.316 26.2771 27.2719 26.1618 27.2719 26.0468C27.2719 25.9315 27.316 25.8165 27.4 25.7323C27.5639 25.5684 27.8606 25.5684 28.0245 25.7323C28.1089 25.8165 28.1577 25.9315 28.1577 26.0468C28.1577 26.1618 28.1089 26.2771 28.0245 26.3613C27.945 26.4408 27.8299 26.4897 27.7149 26.4897Z" fill="#F4EDE4"/>
<path d="M20.6282 19.4028C20.5084 19.4028 20.3977 19.3539 20.3134 19.2744C20.2294 19.1902 20.1853 19.0749 20.1853 18.9599C20.1853 18.8446 20.2294 18.7296 20.3134 18.6454C20.4773 18.4815 20.774 18.4815 20.9379 18.6454C21.0223 18.7296 21.0711 18.8446 21.0711 18.9599C21.0711 19.0749 21.0223 19.1902 20.9379 19.2744C20.8583 19.3539 20.7433 19.4028 20.6282 19.4028Z" fill="#F4EDE4"/>
<path d="M15.6142 21.48C15.4991 21.48 15.3836 21.4311 15.304 21.347C15.2197 21.2674 15.1713 21.1521 15.1713 21.037C15.1713 20.9174 15.2197 20.8022 15.304 20.7226C15.4636 20.5586 15.7647 20.5586 15.9286 20.7226C16.0125 20.8067 16.057 20.9174 16.057 21.037C16.057 21.1521 16.0125 21.2674 15.9286 21.347C15.8443 21.4311 15.7336 21.48 15.6142 21.48Z" fill="#F4EDE4"/>
<path d="M25.6374 31.4989C25.5223 31.4989 25.4068 31.4545 25.3229 31.3704C25.2433 31.2907 25.1945 31.1754 25.1945 31.056C25.1945 30.9407 25.2433 30.8257 25.3229 30.7458C25.4912 30.5776 25.7835 30.5776 25.9518 30.7458C26.0314 30.8256 26.0802 30.9407 26.0802 31.056C26.0802 31.1753 26.0314 31.2861 25.9518 31.3704C25.8675 31.4546 25.7525 31.4989 25.6374 31.4989Z" fill="#F4EDE4"/>
<path d="M25.6374 21.48C25.5223 21.48 25.4068 21.4311 25.3229 21.3515C25.2433 21.2674 25.1945 21.1521 25.1945 21.037C25.1945 20.9174 25.2433 20.8022 25.3229 20.7226C25.4868 20.5586 25.7835 20.5586 25.9518 20.7226C26.0314 20.8022 26.0802 20.9174 26.0802 21.037C26.0802 21.1521 26.0314 21.2674 25.9518 21.3515C25.8675 21.4311 25.7525 21.48 25.6374 21.48Z" fill="#F4EDE4"/>
<path d="M27.1742 23.7788C27.0592 23.7788 26.9441 23.7301 26.8598 23.6458C26.7802 23.5662 26.7313 23.4509 26.7313 23.3359C26.7313 23.2163 26.7802 23.101 26.8598 23.0214C27.028 22.8575 27.3204 22.8575 27.4887 23.0214C27.5687 23.101 27.6171 23.2163 27.6171 23.3359C27.6171 23.4509 27.5687 23.5662 27.4887 23.6458C27.4048 23.7301 27.2893 23.7788 27.1742 23.7788Z" fill="#F4EDE4"/>
<path d="M17.9127 19.9433C17.7977 19.9433 17.6826 19.8947 17.603 19.8106C17.5187 19.7308 17.4698 19.6157 17.4698 19.5004C17.4698 19.3854 17.5187 19.2701 17.603 19.1859C17.7665 19.022 18.0636 19.022 18.2271 19.1859C18.3114 19.2701 18.3556 19.3808 18.3556 19.5004C18.3556 19.6157 18.3114 19.7307 18.2271 19.8149C18.1432 19.8947 18.0325 19.9433 17.9127 19.9433Z" fill="#F4EDE4"/>
<path d="M27.1742 29.1998C27.0592 29.1998 26.9441 29.1557 26.8598 29.0714C26.7802 28.9872 26.7313 28.8765 26.7313 28.7569C26.7313 28.6419 26.7802 28.5266 26.8598 28.447C27.0237 28.2787 27.3247 28.2787 27.4887 28.447C27.5687 28.5266 27.6171 28.6419 27.6171 28.7569C27.6171 28.8765 27.5687 28.9872 27.4887 29.0714C27.4048 29.1557 27.2893 29.1998 27.1742 29.1998Z" fill="#F4EDE4"/>
<path d="M23.3385 19.9433C23.2234 19.9433 23.1084 19.8947 23.024 19.8149C22.9444 19.7307 22.8956 19.6157 22.8956 19.5004C22.8956 19.3808 22.9445 19.2658 23.024 19.1859C23.188 19.022 23.4847 19.022 23.6529 19.1859C23.7329 19.2701 23.7814 19.3808 23.7814 19.5004C23.7814 19.6157 23.7329 19.7307 23.6529 19.8149C23.569 19.8947 23.454 19.9433 23.3385 19.9433Z" fill="#F4EDE4"/>
<path d="M27.573 25.0767C27.4532 25.0767 27.3381 25.0278 27.2585 24.9482C27.1742 24.8639 27.1301 24.7488 27.1301 24.6338C27.1301 24.5185 27.1742 24.4035 27.2585 24.3191C27.4224 24.1554 27.7191 24.1554 27.8831 24.3191C27.967 24.4034 28.0158 24.5185 28.0158 24.6338C28.0158 24.7488 27.967 24.8639 27.8831 24.9482C27.8031 25.0279 27.688 25.0767 27.573 25.0767Z" fill="#F4EDE4"/>
<path d="M19.2151 19.5449C19.0953 19.5449 18.9845 19.4962 18.9006 19.4164C18.8163 19.3323 18.7722 19.2216 18.7722 19.102C18.7722 18.9869 18.8163 18.8717 18.9006 18.7875C19.0645 18.6236 19.3612 18.6236 19.5295 18.7875C19.6091 18.8717 19.6579 18.9869 19.6579 19.102C19.6579 19.217 19.6091 19.3323 19.5295 19.4164C19.4452 19.4962 19.3302 19.5449 19.2151 19.5449Z" fill="#F4EDE4"/>
<path d="M26.5367 30.4002C26.4212 30.4002 26.3061 30.3515 26.2222 30.272C26.1422 30.1877 26.0938 30.0769 26.0938 29.9573C26.0938 29.8422 26.1422 29.7272 26.2222 29.6428C26.3861 29.4791 26.6872 29.4791 26.8511 29.6428C26.9307 29.7271 26.9795 29.8422 26.9795 29.9573C26.9795 30.0769 26.9306 30.1876 26.8511 30.272C26.7668 30.3515 26.6517 30.4002 26.5367 30.4002Z" fill="#F4EDE4"/>
<path d="M24.5388 20.581C24.4238 20.581 24.3087 20.5324 24.2243 20.4526C24.1447 20.3684 24.0959 20.2534 24.0959 20.1381C24.0959 20.0185 24.1448 19.9078 24.2243 19.8236C24.3883 19.6597 24.6897 19.6597 24.8489 19.8236C24.9332 19.9034 24.9817 20.0185 24.9817 20.1381C24.9817 20.2534 24.9332 20.3684 24.8489 20.4526C24.7693 20.5324 24.6543 20.581 24.5388 20.581Z" fill="#F4EDE4"/>
<path d="M26.5012 22.5254C26.3862 22.5254 26.2707 22.481 26.1867 22.3969C26.1067 22.3171 26.0583 22.202 26.0583 22.0824C26.0583 21.9674 26.1067 21.8521 26.1867 21.768C26.355 21.604 26.6474 21.604 26.8156 21.768C26.8996 21.8521 26.9441 21.9674 26.9441 22.0824C26.9441 22.202 26.8995 22.3171 26.8156 22.3969C26.7313 22.4811 26.6206 22.5254 26.5012 22.5254Z" fill="#F4EDE4"/>
<path d="M16.6639 20.6124C16.5441 20.6124 16.4334 20.568 16.3495 20.4839C16.2695 20.4041 16.221 20.289 16.221 20.1738C16.221 20.0542 16.2695 19.9391 16.3495 19.8593C16.5134 19.6953 16.8144 19.6953 16.9783 19.8593C17.058 19.9391 17.1068 20.0542 17.1068 20.1738C17.1068 20.289 17.0579 20.4041 16.9783 20.4839C16.8941 20.568 16.779 20.6124 16.6639 20.6124Z" fill="#F4EDE4"/>
<path d="M27.5817 27.8403C27.4667 27.8403 27.3516 27.796 27.2672 27.7119C27.1876 27.6277 27.1388 27.517 27.1388 27.3974C27.1388 27.2823 27.1877 27.1671 27.2672 27.0829C27.4355 26.919 27.7279 26.919 27.8961 27.0829C27.9804 27.1671 28.0246 27.2823 28.0246 27.3974C28.0246 27.517 27.9804 27.6277 27.8961 27.7119C27.8123 27.796 27.7015 27.8403 27.5817 27.8403Z" fill="#F4EDE4"/>
<path d="M21.979 19.5311C21.8592 19.5311 21.7485 19.4868 21.6645 19.4027C21.5845 19.3185 21.5361 19.2078 21.5361 19.0882C21.5361 18.9729 21.5845 18.8579 21.6645 18.778C21.8285 18.6098 22.1252 18.6098 22.2934 18.778C22.373 18.8578 22.4219 18.9729 22.4219 19.0882C22.4219 19.2078 22.373 19.3228 22.2934 19.4027C22.2091 19.4868 22.094 19.5311 21.979 19.5311Z" fill="#F4EDE4"/>
<path d="M22.9432 30.4322C23.1322 30.4322 23.3199 30.373 23.4804 30.2564C23.7645 30.05 23.9038 29.707 23.8445 29.3612L23.8245 29.2445L22.7397 28.1598L22.9717 29.5109L23.4081 29.436L22.9284 29.542L20.8328 28.4403C20.7039 28.3724 20.5499 28.3724 20.421 28.4403L18.3253 29.542L18.5312 29.9341L18.2825 29.5108L18.6827 27.1775C18.7073 27.0339 18.6597 26.8872 18.5555 26.7854L16.8599 25.1328L16.5507 25.4501L16.8764 25.0824L19.219 24.742C19.2472 24.7379 19.2737 24.7291 19.3 24.7199L18.5274 23.9473L16.7488 24.2057C16.4015 24.2563 16.1186 24.4952 16.01 24.829C15.9014 25.1627 15.9901 25.5221 16.2414 25.7673L17.7704 27.2572L17.4097 29.3611C17.3504 29.7069 17.4897 30.0499 17.7739 30.2562C18.0567 30.4619 18.4265 30.4889 18.7371 30.3261L20.6269 29.3328L22.5166 30.3261C22.6517 30.3972 22.7978 30.4322 22.9432 30.4322Z" fill="#FFCD00"/>
<path d="M13.5415 26.4897C13.426 26.4897 13.311 26.4408 13.2266 26.3613C13.147 26.2771 13.0986 26.1618 13.0986 26.0468C13.0986 25.9315 13.147 25.8165 13.2266 25.7323C13.3905 25.5684 13.6872 25.5684 13.8511 25.7323C13.9355 25.8165 13.9844 25.9315 13.9844 26.0468C13.9844 26.1618 13.9355 26.2771 13.8511 26.3613C13.7716 26.4408 13.6565 26.4897 13.5415 26.4897Z" fill="#FFCD00"/>
<path d="M20.6282 33.5761C20.5127 33.5761 20.3977 33.5273 20.3134 33.4477C20.2294 33.3635 20.1853 33.2483 20.1853 33.1332C20.1853 33.018 20.2294 32.9029 20.3134 32.8188C20.4821 32.6548 20.774 32.6548 20.9379 32.8188C21.0223 32.9029 21.0711 33.018 21.0711 33.1332C21.0711 33.2483 21.0223 33.3635 20.9379 33.4477C20.8583 33.5273 20.7433 33.5761 20.6282 33.5761Z" fill="#FFCD00"/>
<path d="M15.6142 31.4992C15.4991 31.4992 15.3836 31.4549 15.304 31.3708C15.2197 31.2865 15.1713 31.1714 15.1713 31.0563C15.1713 30.941 15.2197 30.826 15.304 30.7462C15.468 30.5822 15.7647 30.5779 15.9286 30.7462C16.0125 30.8259 16.057 30.941 16.057 31.0563C16.057 31.1714 16.0125 31.2864 15.9286 31.3708C15.8491 31.4549 15.7336 31.4992 15.6142 31.4992Z" fill="#FFCD00"/>
<path d="M14.0818 29.1998C13.962 29.1998 13.8469 29.1557 13.7673 29.0714C13.683 28.9872 13.6389 28.8722 13.6389 28.7569C13.6389 28.6419 13.683 28.5266 13.7673 28.447C13.9312 28.2787 14.2279 28.2787 14.3919 28.447C14.4758 28.5266 14.5246 28.6419 14.5246 28.7569C14.5246 28.8722 14.4757 28.9872 14.3919 29.0714C14.3119 29.1557 14.1968 29.1998 14.0818 29.1998Z" fill="#FFCD00"/>
<path d="M23.3385 33.0361C23.2234 33.0361 23.1084 32.9918 23.024 32.9077C22.9444 32.828 22.8956 32.7128 22.8956 32.5932C22.8956 32.4781 22.9445 32.3629 23.024 32.2787C23.1923 32.1148 23.4847 32.1148 23.6529 32.2787C23.7329 32.3629 23.7814 32.4781 23.7814 32.5932C23.7814 32.7085 23.7329 32.8235 23.6529 32.9077C23.569 32.9918 23.454 33.0361 23.3385 33.0361Z" fill="#FFCD00"/>
<path d="M14.0818 23.7788C13.962 23.7788 13.8469 23.7301 13.7673 23.6458C13.683 23.5662 13.6389 23.4509 13.6389 23.3359C13.6389 23.2163 13.683 23.101 13.7673 23.0214C13.9312 22.8575 14.2279 22.8575 14.3919 23.0214C14.4758 23.1055 14.5246 23.2163 14.5246 23.3359C14.5246 23.4509 14.4757 23.5662 14.3919 23.6458C14.3119 23.7301 14.1968 23.7788 14.0818 23.7788Z" fill="#FFCD00"/>
<path d="M17.9127 33.036C17.7977 33.036 17.6826 32.9917 17.603 32.9076C17.5187 32.8234 17.4698 32.7127 17.4698 32.5931C17.4698 32.478 17.5187 32.3628 17.603 32.2829C17.7665 32.1147 18.0636 32.1147 18.2271 32.2829C18.3114 32.3627 18.3556 32.478 18.3556 32.5931C18.3556 32.7127 18.3114 32.8234 18.2271 32.9076C18.1476 32.9917 18.0325 33.036 17.9127 33.036Z" fill="#FFCD00"/>
<path d="M13.683 27.9023C13.5679 27.9023 13.4529 27.8534 13.3685 27.7739C13.2889 27.6897 13.2401 27.5744 13.2401 27.4594C13.2401 27.3441 13.2889 27.2291 13.3685 27.1449C13.5368 26.981 13.8291 26.981 13.9974 27.1449C14.0774 27.2291 14.1258 27.3441 14.1258 27.4594C14.1258 27.5744 14.0774 27.6897 13.9974 27.7739C13.9135 27.8535 13.798 27.9023 13.683 27.9023Z" fill="#FFCD00"/>
<path d="M22.0408 33.4345C21.9215 33.4345 21.806 33.3859 21.7263 33.3061C21.642 33.2219 21.5979 33.1069 21.5979 32.9916C21.5979 32.8766 21.642 32.7613 21.7263 32.6772C21.8903 32.5132 22.187 32.5132 22.3509 32.6772C22.4349 32.7613 22.4837 32.8766 22.4837 32.9916C22.4837 33.1069 22.4348 33.2219 22.3509 33.3061C22.2714 33.3859 22.1559 33.4345 22.0408 33.4345Z" fill="#FFCD00"/>
<path d="M14.7193 22.5786C14.5999 22.5786 14.4849 22.5299 14.4048 22.4501C14.3209 22.366 14.2764 22.2507 14.2764 22.1357C14.2764 22.0161 14.3209 21.9053 14.4048 21.8212C14.5687 21.6573 14.8654 21.6573 15.0294 21.8212C15.1137 21.9053 15.1621 22.0204 15.1621 22.1357C15.1621 22.2507 15.1137 22.366 15.0294 22.4501C14.9498 22.5299 14.8348 22.5786 14.7193 22.5786Z" fill="#FFCD00"/>
<path d="M16.7171 32.3983C16.5973 32.3983 16.4823 32.3496 16.4027 32.2699C16.3184 32.1857 16.2742 32.075 16.2742 31.9554C16.2742 31.8401 16.3184 31.7251 16.4027 31.6452C16.5662 31.477 16.8633 31.477 17.0268 31.6452C17.1111 31.725 17.16 31.8401 17.16 31.9554C17.16 32.075 17.1111 32.1857 17.0268 32.2699C16.9473 32.3496 16.8322 32.3983 16.7171 32.3983Z" fill="#FFCD00"/>
<path d="M14.7505 30.4536C14.6354 30.4536 14.5204 30.4049 14.436 30.3208C14.3564 30.241 14.3076 30.1259 14.3076 30.0107C14.3076 29.8911 14.3564 29.7803 14.436 29.6962C14.6043 29.5323 14.901 29.5323 15.0649 29.6962C15.1492 29.7803 15.1933 29.8911 15.1933 30.0107C15.1933 30.1259 15.1492 30.241 15.0649 30.3208C14.981 30.4049 14.8703 30.4536 14.7505 30.4536Z" fill="#FFCD00"/>
<path d="M24.592 32.3624C24.4726 32.3624 24.3576 32.318 24.2775 32.2339C24.1936 32.1543 24.149 32.039 24.149 31.9195C24.149 31.8044 24.1936 31.6891 24.2775 31.6095C24.4371 31.4456 24.7381 31.441 24.9021 31.6095C24.9864 31.6891 25.0348 31.8044 25.0348 31.9195C25.0348 32.039 24.9864 32.1543 24.9021 32.2339C24.8225 32.318 24.7075 32.3624 24.592 32.3624Z" fill="#FFCD00"/>
<path d="M13.6695 25.1386C13.5544 25.1386 13.4394 25.09 13.355 25.0059C13.2754 24.9261 13.2266 24.811 13.2266 24.6957C13.2266 24.5761 13.2754 24.4654 13.355 24.3813C13.5189 24.2173 13.8204 24.2173 13.9843 24.3813C14.0683 24.4654 14.1124 24.5761 14.1124 24.6957C14.1124 24.811 14.0683 24.926 13.9843 25.0059C13.9 25.09 13.785 25.1386 13.6695 25.1386Z" fill="#FFCD00"/>
<path d="M19.2726 33.4477C19.1576 33.4477 19.0425 33.3988 18.9625 33.3147C18.8786 33.2351 18.834 33.1199 18.834 33.0048C18.834 32.8852 18.8786 32.7699 18.9625 32.6903C19.1264 32.5264 19.4231 32.5264 19.5871 32.6903C19.6714 32.7699 19.7155 32.8852 19.7155 33.0048C19.7155 33.1199 19.6714 33.2351 19.5871 33.3147C19.5075 33.3988 19.3925 33.4477 19.2726 33.4477Z" fill="#FFCD00"/>
<path d="M15.3036 20.7236C15.2197 20.8032 15.1713 20.9181 15.1713 21.0374C15.1713 21.1525 15.2197 21.2678 15.304 21.3474C15.3836 21.4315 15.4991 21.4804 15.6142 21.4804C15.7332 21.4804 15.8436 21.4316 15.9279 21.3479L15.3036 20.7236Z" fill="#FFCD00"/>
<path d="M25.6374 31.499C25.7521 31.499 25.8669 31.4547 25.9512 31.3709L25.3249 30.7446L25.3229 30.7459C25.2433 30.8257 25.1945 30.9408 25.1945 31.0561C25.1945 31.1754 25.2433 31.2907 25.3229 31.3705C25.4068 31.4547 25.5223 31.499 25.6374 31.499Z" fill="#FFCD00"/>
</svg>
