<svg width="27" height="27" viewBox="0 0 27 27" fill="none" xmlns="http://www.w3.org/2000/svg">
<path d="M20.2275 12.1388V16.6388C20.2275 16.9313 20.2163 17.2125 20.1825 17.4825C19.9238 20.52 18.135 22.0275 14.8388 22.0275H14.3888C14.1075 22.0275 13.8375 22.1625 13.6687 22.3875L12.3188 24.1875C11.7225 24.9862 10.755 24.9862 10.1587 24.1875L8.80873 22.3875C8.66248 22.1962 8.33625 22.0275 8.08875 22.0275H7.63876C4.05001 22.0275 2.25 21.1388 2.25 16.6388V12.1388C2.25 8.84251 3.76876 7.05376 6.79501 6.79501C7.06501 6.76126 7.34626 6.75 7.63876 6.75H14.8388C18.4275 6.75 20.2275 8.55001 20.2275 12.1388Z" stroke="white" stroke-width="1.5" stroke-miterlimit="10" stroke-linecap="round" stroke-linejoin="round"/>
<path d="M24.7274 7.63876V12.1388C24.7274 15.4463 23.2087 17.2238 20.1824 17.4825C20.2162 17.2125 20.2274 16.9313 20.2274 16.6388V12.1388C20.2274 8.55001 18.4274 6.75 14.8387 6.75H7.63867C7.34617 6.75 7.06492 6.76126 6.79492 6.79501C7.05367 3.76876 8.84242 2.25 12.1387 2.25H19.3387C22.9274 2.25 24.7274 4.05001 24.7274 7.63876Z" stroke="white" stroke-width="1.5" stroke-miterlimit="10" stroke-linecap="round" stroke-linejoin="round"/>
<path d="M15.1824 14.9062H15.1926" stroke="white" stroke-width="2" stroke-linecap="round" stroke-linejoin="round"/>
<path d="M11.2449 14.9062H11.2551" stroke="white" stroke-width="2" stroke-linecap="round" stroke-linejoin="round"/>
<path d="M7.30744 14.9062H7.31756" stroke="white" stroke-width="2" stroke-linecap="round" stroke-linejoin="round"/>
</svg>
