<svg width="69" height="69" viewBox="0 0 69 69" fill="none" xmlns="http://www.w3.org/2000/svg">
<path d="M61.352 56.9183H11.8054C9.95916 56.9183 8.46326 55.4156 8.46326 53.5761V20.1879C8.46326 18.3416 9.96589 16.8457 11.8054 16.8457H61.352C63.1983 16.8457 64.6942 18.3483 64.6942 20.1879V53.5761C64.6942 55.4156 63.1916 56.9183 61.352 56.9183Z" fill="#A7B8C6"/>
<path d="M61.4531 49.8158V17.3777C61.4531 15.5854 59.9505 14.1299 58.111 14.1299H35.1334V53.0704H58.1042C59.9505 53.0704 61.4531 51.6082 61.4531 49.8158Z" fill="#D97D4A"/>
<path d="M10.7543 14.1299C8.59131 14.1299 6.83936 15.5854 6.83936 17.3777V49.8226C6.83936 51.6149 8.59805 53.0704 10.7543 53.0704H41.8852V14.1299H10.7543Z" fill="#75BFAB"/>
<path d="M58.1042 53.9807H8.56438C6.21946 53.9807 4.30579 52.0737 4.30579 49.7221V16.3406C4.30579 13.9957 6.21272 12.082 8.56438 12.082H58.111C60.4559 12.082 62.3696 13.989 62.3696 16.3406V49.7288C62.3628 52.0737 60.4559 53.9807 58.1042 53.9807ZM8.56438 13.9081C7.22346 13.9081 6.13186 14.9997 6.13186 16.3406V49.7288C6.13186 51.0697 7.22346 52.1613 8.56438 52.1613H58.111C59.4519 52.1613 60.5435 51.0697 60.5435 49.7288V16.3406C60.5435 14.9997 59.4519 13.9081 58.111 13.9081H8.56438Z" fill="#3E3A39"/>
<path d="M11.8459 33.0312C11.8459 35.1469 12.2626 37.2419 13.0723 39.1966C13.8819 41.1514 15.0687 42.9274 16.5648 44.4235C18.0608 45.9196 19.8369 47.1063 21.7916 47.916C23.7463 48.7257 25.8414 49.1424 27.9571 49.1424C30.0729 49.1424 32.1679 48.7257 34.1226 47.916C36.0773 47.1063 37.8534 45.9196 39.3495 44.4235C40.8455 42.9274 42.0323 41.1514 42.842 39.1966C43.6516 37.2419 44.0683 35.1469 44.0683 33.0312C44.0683 28.7582 42.3709 24.6602 39.3495 21.6388C36.328 18.6173 32.2301 16.9199 27.9571 16.9199C23.6842 16.9199 19.5862 18.6173 16.5648 21.6388C13.5433 24.6602 11.8459 28.7582 11.8459 33.0312Z" fill="#8A7D96"/>
<path d="M27.9571 50.0516C18.5707 50.0516 10.9362 42.4171 10.9362 33.0307C10.9362 23.6442 18.5707 16.0098 27.9571 16.0098C37.3435 16.0098 44.978 23.6442 44.978 33.0307C44.978 42.4171 37.3503 50.0516 27.9571 50.0516ZM27.9571 17.8291C19.5747 17.8291 12.7556 24.6482 12.7556 33.0307C12.7556 41.4131 19.5747 48.2322 27.9571 48.2322C36.3395 48.2322 43.1587 41.4131 43.1587 33.0307C43.1587 24.6482 36.3395 17.8291 27.9571 17.8291Z" fill="white"/>
<path d="M21.9938 33.0308C21.9938 34.6123 22.6221 36.1292 23.7404 37.2475C24.8588 38.3659 26.3756 38.9941 27.9572 38.9941C29.5387 38.9941 31.0555 38.3659 32.1739 37.2475C33.2922 36.1292 33.9205 34.6123 33.9205 33.0308C33.9205 31.4492 33.2922 29.9324 32.1739 28.814C31.0555 27.6957 29.5387 27.0674 27.9572 27.0674C26.3756 27.0674 24.8588 27.6957 23.7404 28.814C22.6221 29.9324 21.9938 31.4492 21.9938 33.0308Z" fill="#F1E1CC"/>
<path d="M27.9572 39.9043C24.1702 39.9043 21.0841 36.8182 21.0841 33.0312C21.0841 29.2443 24.1702 26.1582 27.9572 26.1582C31.7441 26.1582 34.8302 29.2443 34.8302 33.0312C34.8302 36.8182 31.7508 39.9043 27.9572 39.9043ZM27.9572 27.9843C25.1742 27.9843 22.9102 30.2483 22.9102 33.0312C22.9102 35.8142 25.1742 38.0782 27.9572 38.0782C30.7401 38.0782 33.0041 35.8142 33.0041 33.0312C33.0109 30.2483 30.7468 27.9843 27.9572 27.9843Z" fill="#EFC467"/>
<path d="M47.9766 51.2914C44.5872 51.2914 41.8245 48.5287 41.8245 45.1394C41.8245 41.75 44.5872 38.9873 47.9766 38.9873C51.3659 38.9873 54.1286 41.75 54.1286 45.1394C54.1286 48.5355 51.3659 51.2914 47.9766 51.2914ZM47.9766 40.2002C45.2543 40.2002 43.0374 42.4171 43.0374 45.1394C43.0374 47.8616 45.2543 50.0785 47.9766 50.0785C50.6988 50.0785 52.9157 47.8616 52.9157 45.1394C52.909 42.4171 50.6988 40.2002 47.9766 40.2002Z" fill="#D49967"/>
<path d="M45.6182 45.1396C45.6182 45.7651 45.8666 46.365 46.3089 46.8073C46.7512 47.2496 47.3511 47.498 47.9766 47.498C48.602 47.498 49.2019 47.2496 49.6442 46.8073C50.0865 46.365 50.335 45.7651 50.335 45.1396C50.335 44.5142 50.0865 43.9143 49.6442 43.472C49.2019 43.0297 48.602 42.7812 47.9766 42.7812C47.3511 42.7812 46.7512 43.0297 46.3089 43.472C45.8666 43.9143 45.6182 44.5142 45.6182 45.1396Z" fill="#DB9C69"/>
<path d="M29.4867 44.351L27.8763 43.3672L27.3844 44.1893L29.224 45.3078C29.4733 45.4561 29.7563 45.5369 30.046 45.5369H47.0871V44.5733H30.3088C30.0191 44.5801 29.7361 44.4992 29.4867 44.351Z" fill="#F5EDC7"/>
<path d="M37.8691 45.6987V44.5869C37.8691 44.1422 38.233 43.7783 38.6777 43.7783H47.4442C48.1989 43.7783 48.8121 44.3915 48.8121 45.1462C48.8121 45.9009 48.1989 46.5141 47.4442 46.5141H38.6777C38.233 46.5073 37.8691 46.1435 37.8691 45.6987Z" fill="#EBB447"/>
<path d="M28.6579 43.913L28.2468 44.5936C28.2064 44.661 28.0986 44.6812 27.9706 44.6475L26.7981 44.2769C26.5892 44.2095 26.4342 44.0074 26.5084 43.8861L27.2091 42.7204C27.2833 42.5991 27.5326 42.6395 27.6876 42.7945L28.5703 43.6502C28.6646 43.7311 28.6983 43.8389 28.6579 43.913Z" fill="#E78341"/>
<path d="M27.6539 43.0913L27.0744 44.0818C26.9127 44.3513 26.5691 44.4457 26.2928 44.284L26.158 44.2031C25.8885 44.0414 25.7942 43.6977 25.9559 43.4215L26.5354 42.4309C26.6971 42.1614 27.0407 42.0671 27.317 42.2288L27.4518 42.3096C27.7213 42.4646 27.8157 42.815 27.6539 43.0913Z" fill="#EAB545"/>
<path d="M51.2716 28.166H53.5761V39.9176H51.2716V28.166Z" fill="#AA4A23"/>
<path d="M51.2716 28.166H51.8511V39.9176H51.2716V28.166Z" fill="#E9A675"/>
<path d="M50.1328 32.7949H55.072V34.8231H50.1328V32.7949Z" fill="#E6E7E5"/>
<path d="M50.1328 34.1768H55.072V34.7697H50.1328V34.1768Z" fill="#C4C4C4"/>
<path d="M49.2972 25.0593C49.2972 25.5829 49.5053 26.0851 49.8755 26.4553C50.2458 26.8256 50.7479 27.0336 51.2716 27.0336C51.7952 27.0336 52.2974 26.8256 52.6676 26.4553C53.0379 26.0851 53.2459 25.5829 53.2459 25.0593C53.2459 24.5357 53.0379 24.0335 52.6676 23.6632C52.2974 23.293 51.7952 23.085 51.2716 23.085C50.7479 23.085 50.2458 23.293 49.8755 23.6632C49.5053 24.0335 49.2972 24.5357 49.2972 25.0593Z" fill="#BE2E2D"/>
<path d="M51.2716 27.5395C49.9037 27.5395 48.7919 26.4276 48.7919 25.0598C48.7919 23.6919 49.9037 22.5801 51.2716 22.5801C52.6394 22.5801 53.7512 23.6919 53.7512 25.0598C53.7512 26.4276 52.6394 27.5395 51.2716 27.5395ZM51.2716 23.5908C50.463 23.5908 49.8026 24.2512 49.8026 25.0598C49.8026 25.8684 50.463 26.5287 51.2716 26.5287C52.0802 26.5287 52.7405 25.8684 52.7405 25.0598C52.7405 24.2512 52.0802 23.5908 51.2716 23.5908Z" fill="#EFDFCB"/>
<path d="M44.1964 18.6044C44.1964 19.607 44.5947 20.5685 45.3036 21.2774C46.0125 21.9863 46.974 22.3846 47.9766 22.3846C48.9792 22.3846 49.9407 21.9863 50.6496 21.2774C51.3585 20.5685 51.7568 19.607 51.7568 18.6044C51.7568 17.6018 51.3585 16.6403 50.6496 15.9314C49.9407 15.2225 48.9792 14.8242 47.9766 14.8242C46.974 14.8242 46.0125 15.2225 45.3036 15.9314C44.5947 16.6403 44.1964 17.6018 44.1964 18.6044Z" fill="#BFBEBD"/>
<path d="M47.9766 22.7956C45.6653 22.7956 43.7853 20.9156 43.7853 18.6044C43.7853 16.2932 45.6653 14.4199 47.9766 14.4199C50.2878 14.4199 52.1678 16.2999 52.1678 18.6111C52.1678 20.9224 50.281 22.7956 47.9766 22.7956ZM47.9766 15.2285C46.1168 15.2285 44.6007 16.7446 44.6007 18.6044C44.6007 20.4642 46.1168 21.9803 47.9766 21.9803C49.8363 21.9803 51.3524 20.4642 51.3524 18.6044C51.3524 16.7446 49.8363 15.2285 47.9766 15.2285Z" fill="#E1E0DF"/>
<path d="M47.3634 16.0771H48.61V20.4975H47.3634V16.0771Z" fill="#B1B0AF"/>
<path d="M48.2933 16.0771H48.61V20.4975H48.2933V16.0771Z" fill="#AAA9A8"/>
<path d="M30.5109 34.2374L30.5177 30.0799V30.0664H30.5109L26.468 30.6055V33.8937C26.3063 33.8398 26.1311 33.8196 25.9424 33.8398C25.3494 33.9005 24.9047 34.3183 24.9519 34.7832C24.999 35.2481 25.5179 35.5783 26.1108 35.5177C26.7038 35.457 27.1485 35.0393 27.1014 34.5743C27.1014 34.5676 27.1014 34.5608 27.0946 34.5541H27.1014V31.7038L29.891 31.2995V33.577C29.7293 33.5231 29.5541 33.5029 29.3654 33.5231C28.7725 33.5838 28.3277 34.0016 28.3749 34.4665C28.4221 34.9314 28.9409 35.2616 29.5339 35.201C30.1269 35.1403 30.5716 34.7226 30.5244 34.2576C30.5177 34.2509 30.5109 34.2441 30.5109 34.2374Z" fill="#DC5854"/>
</svg>
