<svg width="26" height="29" viewBox="0 0 26 29" fill="none" xmlns="http://www.w3.org/2000/svg">
<path d="M13 9.97656V13.5841" stroke="white" stroke-width="1.5" stroke-miterlimit="10" stroke-linecap="round"/>
<path d="M13.0218 5.16699C9.03513 5.16699 5.8068 8.39533 5.8068 12.382V14.657C5.8068 15.3937 5.50347 16.4987 5.1243 17.127L3.74847 19.4237C2.90347 20.8428 3.48847 22.4245 5.04847 22.9445C10.2268 24.667 15.8276 24.667 21.006 22.9445C22.4685 22.457 23.0968 20.7453 22.306 19.4237L20.9301 17.127C20.551 16.4987 20.2476 15.3828 20.2476 14.657V12.382C20.2368 8.41699 16.9868 5.16699 13.0218 5.16699Z" stroke="white" stroke-width="1.5" stroke-miterlimit="10" stroke-linecap="round"/>
<path d="M16.6076 23.3887C16.6076 25.3712 14.9826 26.9962 13.0001 26.9962C12.0142 26.9962 11.1042 26.5845 10.4542 25.9345C9.80424 25.2845 9.39258 24.3745 9.39258 23.3887" stroke="white" stroke-width="1.5" stroke-miterlimit="10"/>
<circle cx="20.5" cy="4.5" r="4" fill="#00D12E" stroke="#4A154B"/>
</svg>
