<svg width="60" height="60" viewBox="0 0 60 60" fill="none" xmlns="http://www.w3.org/2000/svg">
<g clip-path="url(#clip0_2750_3194)">
<path d="M39.9995 56.249H19.9989L22.4928 43.7575L37.5018 43.7539L39.9995 56.249Z" fill="#CCD1D9"/>
<path d="M60 45C60 45.6921 59.4396 46.2487 58.7493 46.2487H1.2488C0.560284 46.2485 0 45.6921 0 44.9999V4.99966C0 4.30939 0.560284 3.75098 1.2488 3.75098H58.7493C59.4396 3.75098 60 4.30939 60 4.99966V45Z" fill="#E6E9ED"/>
<path d="M39.9995 56.2493H19.9989C19.3104 56.2493 18.7501 55.6891 18.7501 55.0006C18.7501 54.3084 19.3104 53.748 19.9989 53.748H39.9995C40.6898 53.748 41.2501 54.3083 41.2501 55.0006C41.2501 55.6892 40.6897 56.2493 39.9995 56.2493Z" fill="#E6E9ED"/>
<path d="M58.7493 3.75098H1.2488C0.560284 3.75098 0 4.30939 0 4.99966V38.7487H60V4.99966C60 4.30939 59.4396 3.75098 58.7493 3.75098Z" fill="#656D78"/>
<path d="M31.2487 42.4987C31.2487 43.1908 30.6902 43.7511 29.9999 43.7511C29.3097 43.7511 28.7494 43.191 28.7494 42.4987C28.7494 41.8102 29.3097 41.25 29.9999 41.25C30.6902 41.25 31.2487 41.8102 31.2487 42.4987Z" fill="#434A54"/>
<path d="M43.7494 8.74902H6.24946C5.55907 8.74902 4.9989 9.30931 4.9989 9.99958C4.9989 10.69 5.55919 11.2503 6.24946 11.2503H43.7494C44.4396 11.2503 45 10.69 45 9.99958C45 9.30931 44.4395 8.74902 43.7494 8.74902Z" fill="#FC6E51"/>
<path d="M6.24946 16.2494H26.25C26.9404 16.2494 27.4988 15.6908 27.4988 15.0006C27.4988 14.3084 26.9404 13.75 26.25 13.75H6.24946C5.55907 13.75 4.9989 14.3084 4.9989 15.0006C4.99878 15.6908 5.55907 16.2494 6.24946 16.2494Z" fill="#AC92EB"/>
<path d="M6.24946 21.2502H33.75C34.4404 21.2502 34.9988 20.6899 34.9988 19.9997C34.9988 19.3094 34.4403 18.751 33.75 18.751H6.24946C5.55907 18.751 4.9989 19.3094 4.9989 19.9997C4.99878 20.6899 5.55907 21.2502 6.24946 21.2502Z" fill="#48CFAD"/>
<path d="M6.24946 26.2483L23.7487 26.2501C24.4409 26.2501 24.9993 25.6899 24.9993 24.9996C24.9993 24.3093 24.4409 23.749 23.7487 23.749H6.24946C5.55907 23.749 4.9989 24.3093 4.9989 24.9996C4.99878 25.6897 5.55907 26.2483 6.24946 26.2483Z" fill="#5D9CEC"/>
<path d="M38.7488 28.75H6.24946C5.55907 28.75 4.9989 29.3103 4.9989 29.9988C4.9989 30.691 5.55919 31.2495 6.24946 31.2495H38.7488C39.4409 31.2495 39.9994 30.691 39.9994 30.0007C39.9994 29.3105 39.4409 28.75 38.7488 28.75Z" fill="#FFCE54"/>
<path d="M16.2488 33.749H6.24946C5.55907 33.749 4.9989 34.3094 4.9989 34.9978C4.9989 35.69 5.55919 36.2504 6.24946 36.2504H16.2489C16.941 36.2504 17.4995 35.6901 17.4995 34.9978C17.4995 34.3094 16.9409 33.749 16.2488 33.749Z" fill="#ED5564"/>
</g>
<defs>
<clipPath id="clip0_2750_3194">
<rect width="60" height="60" fill="white"/>
</clipPath>
</defs>
</svg>
