<svg width="57" height="47" viewBox="0 0 57 47" fill="none" xmlns="http://www.w3.org/2000/svg">
<path d="M50.5941 21.0989C50.1404 20.0275 49.6 19.0826 48.9635 18.4283C47.936 17.3716 46.9566 17.4876 46.1267 18.0687C46.1086 18.0778 46.0908 18.0882 46.0734 18.1001C46.0559 18.1119 46.033 18.1266 46.0044 18.144C45.8793 18.2279 45.7628 18.3239 45.6563 18.4304L45.6093 18.4774C45.5779 18.5098 45.5466 18.5433 45.5163 18.582L45.4222 18.6917L45.3751 18.7492L45.3302 18.8067L45.3072 18.838C45.2986 18.8477 45.2906 18.8578 45.2832 18.8683L45.233 18.9373L45.1818 19.0084L45.1734 19.021C45.0982 19.1255 45.0229 19.23 44.9466 19.3471C44.909 19.4035 44.8703 19.461 44.8316 19.5206C44.7501 19.645 44.6675 19.7735 44.5839 19.9073L44.4794 20.0693L44.4323 20.1467L44.3508 20.2815C44.256 20.4404 44.1599 20.6052 44.0623 20.7759C44.0205 20.848 43.9787 20.9223 43.9369 20.9965C43.8752 21.101 43.8125 21.2191 43.7498 21.333L43.6839 21.4532C43.5982 21.6086 43.5122 21.7682 43.4258 21.932C43.3394 22.0957 43.2519 22.2616 43.1634 22.4295C43.0819 22.5849 43.0003 22.7431 42.9188 22.904L42.8028 23.1309C42.7275 23.2772 42.6533 23.4256 42.5781 23.5761L42.4652 23.803C42.4265 23.8793 42.3889 23.9545 42.3512 24.0319C42.2666 24.2012 42.1819 24.3737 42.0962 24.5472C41.7084 25.3395 41.3091 26.1725 40.9015 27.0296C40.8356 27.1666 40.7698 27.3056 40.7039 27.4477C40.3339 28.2254 39.9576 29.0156 39.5761 29.8215V29.8267C38.4964 32.0886 37.3811 34.408 36.2428 36.5163C36.0905 36.802 35.9209 37.0781 35.7348 37.3431C34.4429 39.1869 32.9984 40.9293 32.0524 41.4718C30.3738 42.4314 28.3261 42.492 26.5398 41.8084C24.3719 40.9722 23.195 38.6152 22.6933 36.1902C22.4372 34.9641 22.4288 33.4046 22.5114 31.8409C22.7945 32.2829 23.1254 32.6923 23.4981 33.0618C24.7336 34.2607 26.3642 34.6683 28.0972 31.8545C29.5606 29.4713 31.4357 25.5287 33.5565 21.77C33.5565 21.77 33.5565 21.77 33.5565 21.7647C34.0792 20.8376 34.6196 19.9251 35.1662 19.0471C35.3606 18.7335 35.5519 18.4388 35.7516 18.144C35.7516 18.1388 35.7516 18.1388 35.7516 18.1388C38.349 14.1825 41.1942 11.2286 44.0257 11.9028C49.206 13.1341 50.0119 15.4953 50.5941 21.0989Z" fill="#B55184"/>
<path d="M35.2786 15.5846C35.2619 15.8982 35.2358 16.2117 35.2097 16.5253C35.1443 17.3634 35.1313 18.2047 35.171 19.0444C34.6243 19.9245 34.086 20.837 33.5613 21.762C33.5613 21.7672 33.5613 21.7672 33.5613 21.7672C31.4405 25.528 29.5591 29.4759 28.0957 31.8539C26.3648 34.6677 24.7342 34.2579 23.4966 33.0611C23.1231 32.6914 22.7915 32.2817 22.5078 31.8392C22.5726 30.5055 22.8214 27.8955 22.8412 27.7628C23.1663 22.4905 22.9458 16.819 22.6761 12.9757V12.9704C22.6552 12.6067 22.6291 12.2576 22.6029 11.9252C23.4673 10.5183 24.4478 9.18873 25.7387 8.14766L25.8557 8.05464C25.9279 7.99819 26.001 7.9428 26.0763 7.88949L26.0888 7.88008C26.878 7.30163 27.7729 6.88332 28.7229 6.64878C29.8935 6.31535 31.1018 6.28817 32.2108 6.86828C32.6003 7.07073 32.968 7.31239 33.3084 7.5895L33.3773 7.64595C33.6849 7.90173 33.9623 8.19175 34.2041 8.51036C34.4079 8.77862 34.5856 9.0656 34.7351 9.36747C34.7529 9.40405 34.7748 9.45422 34.7999 9.51276C34.8003 9.51588 34.8003 9.51904 34.7999 9.52216C34.942 9.82402 35.0626 10.1356 35.1605 10.4545C35.16 10.4594 35.16 10.4643 35.1605 10.4692C35.1605 10.4692 35.1605 10.4796 35.1605 10.4848C35.3915 12.1562 35.3905 13.8767 35.2786 15.5846Z" fill="#F4EDE4"/>
<path d="M35.1747 10.4842C35.1753 10.4741 35.1753 10.464 35.1747 10.4539C35.0768 10.135 34.9563 9.82339 34.8141 9.52153C34.8145 9.51841 34.8145 9.51525 34.8141 9.51212C34.7891 9.45359 34.7671 9.4076 34.7493 9.36683C34.5999 9.06497 34.4221 8.77798 34.2183 8.50973C33.9765 8.19111 33.6991 7.9011 33.3915 7.64531L33.3226 7.58887C32.9822 7.31176 32.6145 7.0701 32.2251 6.86765C31.116 6.28754 29.9077 6.31471 28.7371 6.64815C27.7824 6.88071 26.8828 7.29872 26.0895 7.8784L26.0769 7.88781C26.0017 7.94112 25.9285 7.99233 25.8564 8.05296L25.7393 8.14599C24.4526 9.19123 23.4722 10.5166 22.6036 11.9235C22.0611 12.8067 21.5583 13.7213 21.067 14.614C19.0163 18.2953 17.1913 22.2171 15.937 26.2936C14.8688 29.8001 13.9792 33.3585 13.2716 36.9551C12.6685 39.9748 12.2796 42.983 9.94456 45.1258C7.95859 46.9518 4.6138 47.4682 2.27976 45.892C-0.298862 44.1495 -0.034414 40.3135 0.050251 37.53C0.329332 28.3318 2.69786 20.8761 7.15793 13.6283C11.1926 7.0767 17.7588 -1.29573 26.5588 0.168658C30.1011 0.758178 32.8428 3.42669 34.1431 6.52585C34.3983 7.12046 34.6195 7.72908 34.8058 8.34876C34.8981 8.6647 34.9735 8.98535 35.0315 9.30935C35.0734 9.55393 35.1653 10.2752 35.1747 10.4842Z" fill="#4A154B"/>
<path d="M56.2331 37.6854C56.168 37.7945 56.0957 37.8993 56.0167 37.9989C55.0478 39.2386 53.1945 39.6536 51.7594 39.1268C50.1916 38.5519 48.8495 37.284 48.0331 35.8729C46.8833 33.8869 46.437 31.671 46.0471 29.4404C45.652 27.1932 45.3416 24.8758 44.7573 22.6066C44.7416 22.5449 44.7186 22.4864 44.6988 22.4258C44.6507 22.2784 44.6016 22.1321 44.5503 21.9857C44.4061 21.5739 44.2451 21.1663 44.0664 20.768C44.1633 20.598 44.2594 20.4332 44.3549 20.2736L44.4364 20.1388L44.4835 20.0614L44.588 19.8994C44.6716 19.7656 44.7542 19.6371 44.8357 19.5127C44.8744 19.4531 44.9131 19.3956 44.9507 19.3392C45.027 19.2252 45.1022 19.1165 45.1775 19.0131L45.1859 19.0005L45.2371 18.9294L45.2883 18.8604L45.3113 18.8301L45.3364 18.7967L45.3824 18.7382L45.4294 18.6807L45.5235 18.5709C45.5538 18.5364 45.5851 18.503 45.6165 18.4664L45.6635 18.4194C45.77 18.3128 45.8866 18.2169 46.0116 18.133C46.0346 18.1169 46.0576 18.1023 46.0806 18.0891C46.1036 18.0758 46.1214 18.0654 46.1339 18.0577C46.9638 17.4797 47.9432 17.3605 48.9707 18.4173C49.6073 19.0716 50.1477 20.0165 50.6013 21.0879C50.6262 21.194 50.6374 21.3029 50.6347 21.4119C50.6466 21.5269 50.6581 21.6419 50.6692 21.7568C50.871 23.8316 51.0298 25.9117 51.2588 27.9844C51.4856 30.0352 51.7563 32.0222 52.651 33.9068C53.3033 35.2823 54.4468 37.1105 56.093 37.3331C56.159 37.3337 56.2225 37.3582 56.2718 37.4021C56.3261 37.4868 56.2822 37.6007 56.2331 37.6854Z" fill="#F4EDE4"/>
</svg>
