<svg width="175" height="146" viewBox="0 0 175 146" fill="none" xmlns="http://www.w3.org/2000/svg">
<path d="M157.272 65.5853C155.862 62.2549 154.182 59.3176 152.203 57.2836C149.009 53.9986 145.964 54.3593 143.384 56.1659C143.328 56.194 143.273 56.2265 143.219 56.2633C143.165 56.3002 143.093 56.3456 143.004 56.3998C142.616 56.6607 142.253 56.9589 141.922 57.2901L141.776 57.4363C141.679 57.537 141.581 57.641 141.487 57.7612L141.195 58.1024L141.048 58.2811L140.909 58.4598L140.837 58.5573C140.81 58.5873 140.785 58.6187 140.762 58.6515L140.606 58.866L140.447 59.0869L140.421 59.1259C140.187 59.4508 139.953 59.7757 139.716 60.1396C139.599 60.3151 139.479 60.4938 139.359 60.679C139.105 61.0657 138.849 61.4653 138.589 61.8812L138.264 62.3849L138.118 62.6253L137.864 63.0445C137.569 63.5383 137.271 64.0506 136.967 64.5813C136.837 64.8055 136.707 65.0362 136.577 65.2669C136.386 65.5918 136.191 65.959 135.996 66.3132L135.791 66.6868C135.525 67.1699 135.257 67.6659 134.989 68.175C134.72 68.684 134.448 69.1996 134.173 69.7216C133.92 70.2047 133.666 70.6964 133.413 71.1968L133.052 71.9018C132.818 72.3567 132.587 72.8181 132.353 73.286L132.002 73.9911C131.882 74.2283 131.765 74.4622 131.648 74.7027C131.385 75.229 131.122 75.7652 130.855 76.3045C129.65 78.7674 128.409 81.3571 127.142 84.0214C126.937 84.4471 126.732 84.8792 126.528 85.3211C125.377 87.7385 124.208 90.195 123.022 92.7001V92.7164C119.665 99.7477 116.198 106.958 112.66 113.511C112.186 114.4 111.659 115.258 111.081 116.082C107.065 121.813 102.574 127.23 99.6337 128.916C94.4155 131.899 88.0502 132.087 82.4973 129.962C75.7584 127.363 72.0998 120.036 70.5402 112.498C69.7441 108.686 69.7181 103.838 69.9748 98.9776C70.8547 100.351 71.8834 101.624 73.0421 102.773C76.8827 106.5 81.9515 107.767 87.3387 99.0198C91.8876 91.6116 97.7167 79.3555 104.309 67.6713C104.309 67.6713 104.309 67.6713 104.309 67.6551C105.934 64.773 107.614 61.9365 109.313 59.2071C109.918 58.2324 110.512 57.3161 111.133 56.3998C111.133 56.3835 111.133 56.3835 111.133 56.3835C119.207 44.0852 128.051 34.9029 136.854 36.9987C152.957 40.8263 155.462 48.1663 157.272 65.5853Z" fill="#B55184"/>
<path d="M109.668 48.4479C109.616 49.4226 109.535 50.3974 109.453 51.3722C109.25 53.9773 109.21 56.5926 109.333 59.2028C107.634 61.9386 105.96 64.7752 104.329 67.6508C104.329 67.667 104.329 67.667 104.329 67.667C97.7366 79.3577 91.888 91.63 87.3391 99.022C81.9584 107.769 76.8896 106.495 73.0425 102.775C71.8813 101.626 70.8505 100.352 69.9688 98.9765C70.1702 94.8305 70.9435 86.7172 71.0053 86.3046C72.0158 69.9155 71.3302 52.2852 70.4919 40.3378V40.3216C70.4269 39.1908 70.3457 38.1056 70.2644 37.0723C72.9515 32.6989 75.9993 28.5659 80.0121 25.3297L80.376 25.0405C80.6002 24.865 80.8276 24.6928 81.0616 24.5271L81.1006 24.4979C83.5539 22.6997 86.3356 21.3994 89.2886 20.6703C92.9278 19.6338 96.6839 19.5493 100.131 21.3526C101.342 21.982 102.485 22.7332 103.543 23.5946L103.757 23.77C104.713 24.5652 105.576 25.4667 106.328 26.4571C106.961 27.291 107.514 28.1831 107.978 29.1215C108.033 29.2352 108.102 29.3912 108.18 29.5731C108.181 29.5829 108.181 29.5927 108.18 29.6024C108.621 30.5407 108.996 31.5093 109.301 32.5007C109.299 32.5158 109.299 32.5311 109.301 32.5462C109.301 32.5462 109.301 32.5787 109.301 32.5949C110.019 37.7904 110.015 43.1386 109.668 48.4479Z" fill="white"/>
<path d="M109.343 32.5909C109.345 32.5595 109.345 32.528 109.343 32.4966C109.038 31.5052 108.664 30.5367 108.222 29.5983C108.223 29.5886 108.223 29.5788 108.222 29.5691C108.144 29.3871 108.076 29.2442 108.021 29.1174C107.556 28.1791 107.003 27.287 106.37 26.4531C105.618 25.4626 104.756 24.5611 103.8 23.766L103.585 23.5905C102.527 22.7291 101.384 21.9779 100.174 21.3486C96.7263 19.5452 92.9702 19.6297 89.3311 20.6662C86.3635 21.3891 83.567 22.6886 81.1008 24.4905L81.0618 24.5198C80.8279 24.6855 80.6005 24.8447 80.3763 25.0332L80.0124 25.3223C76.0126 28.5716 72.9648 32.6916 70.2647 37.065C68.5783 39.8106 67.0155 42.6537 65.4883 45.4285C59.1133 56.8723 53.4402 69.0634 49.5411 81.7353C46.2208 92.6355 43.4554 103.697 41.2556 114.877C39.3808 124.264 38.1721 133.616 30.9133 140.277C24.7398 145.953 14.3423 147.558 7.0868 142.658C-0.929031 137.242 -0.106978 125.317 0.156209 116.664C1.02375 88.0713 8.38649 64.8946 22.2509 42.3645C34.7929 21.9984 55.2045 -4.02787 82.5597 0.524285C93.5714 2.35685 102.094 10.6521 106.136 20.2861C106.929 22.1344 107.617 24.0264 108.196 25.9527C108.483 26.9348 108.717 27.9316 108.898 28.9387C109.028 29.6991 109.314 31.941 109.343 32.5909Z" fill="#4A154B"/>
<path d="M174.802 117.151C174.6 117.49 174.375 117.816 174.13 118.126C171.118 121.979 165.357 123.269 160.896 121.632C156.022 119.845 151.85 115.903 149.312 111.517C145.738 105.343 144.351 98.4549 143.139 91.521C141.91 84.5352 140.945 77.3317 139.129 70.2776C139.08 70.0859 139.009 69.904 138.947 69.7155C138.798 69.2574 138.645 68.8025 138.486 68.3476C138.037 67.0674 137.537 65.8002 136.981 64.5622C137.283 64.0337 137.581 63.5214 137.878 63.0254L138.132 62.6062L138.278 62.3658L138.603 61.8621C138.863 61.4462 139.119 61.0466 139.373 60.6599C139.493 60.4747 139.613 60.296 139.73 60.1205C139.967 59.7664 140.201 59.4285 140.435 59.1068L140.461 59.0678L140.621 58.8469L140.78 58.6324L140.851 58.5382L140.929 58.4342L141.072 58.2522L141.218 58.0735L141.511 57.7324C141.605 57.6251 141.703 57.5212 141.8 57.4074L141.946 57.2612C142.277 56.9301 142.64 56.6319 143.028 56.3709C143.1 56.3211 143.171 56.2756 143.243 56.2345C143.314 56.1933 143.369 56.1608 143.408 56.137C145.988 54.3402 149.033 53.9698 152.227 57.2547C154.206 59.2888 155.885 62.226 157.296 65.5565C157.373 65.8865 157.408 66.2249 157.4 66.5638C157.436 66.9212 157.472 67.2786 157.507 67.636C158.134 74.0857 158.628 80.5517 159.339 86.9949C160.044 93.3698 160.886 99.5466 163.667 105.405C165.695 109.681 169.249 115.364 174.367 116.056C174.572 116.058 174.769 116.134 174.923 116.27C175.092 116.534 174.955 116.888 174.802 117.151Z" fill="white"/>
</svg>
