<svg width="202" height="202" viewBox="0 0 202 202" fill="none" xmlns="http://www.w3.org/2000/svg">
<path d="M11.3411 0C8.33329 0 5.44862 1.21325 3.32175 3.37285C1.19487 5.53245 0 8.46149 0 11.5156V57.5781H56.7057V0H11.3411ZM42.5293 43.1836H14.1764V14.3945H42.5293V43.1836Z" fill="black"/>
<path d="M0 190.008C0 193.062 1.19487 195.991 3.32175 198.151C5.44862 200.31 8.33329 201.523 11.3411 201.523H56.7057V143.945H0V190.008ZM14.1764 158.34H42.5293V187.129H14.1764V158.34Z" fill="black"/>
<path d="M143.072 201.523H189.833C192.933 201.523 195.907 200.31 198.099 198.151C200.291 195.991 201.523 193.062 201.523 190.008V143.945H143.072V201.523ZM157.685 158.34H186.91V187.129H157.685V158.34Z" fill="black"/>
<path d="M189.833 0H143.072V57.5781H201.523V11.5156C201.523 8.46149 200.291 5.53245 198.099 3.37285C195.907 1.21325 192.933 0 189.833 0ZM186.91 43.1836H157.685V14.3945H186.91V43.1836Z" fill="black"/>
<path d="M115.156 43.1836V28.7891H86.3672V57.5781H100.762V43.1836H115.156Z" fill="black"/>
<path d="M56.7056 57.5781H71.5363V71.5365H56.7056V57.5781Z" fill="black"/>
<path d="M71.5366 71.5366H100.326V86.3674H71.5366V71.5366Z" fill="black"/>
<path d="M114.72 14.3945V28.7891H129.115V0H71.5366V28.7891H85.9312V14.3945H114.72Z" fill="black"/>
<path d="M0 71.5366H13.9583V101.198H0V71.5366Z" fill="black"/>
<path d="M57.2292 86.1493V100.762H42.9219V71.5366H28.6146V100.762H14.3073V115.375H0V129.987H28.6146V115.375H42.9219V129.987H57.2292V115.375H71.5365V86.1493H57.2292Z" fill="black"/>
<path d="M114.72 86.8037H129.115V101.198H143.509V86.8037H157.904V72.4092H129.115V43.6201H114.72V58.0146H100.326V72.4092H114.72V86.8037Z" fill="black"/>
<path d="M100.326 187.129H71.5366V201.523H129.115V187.129H114.72V172.734H100.326V187.129Z" fill="black"/>
<path d="M129.115 115.447V100.907H114.865V86.3672H100.616V100.907H86.3672V115.447H100.616V129.987H114.865V115.447H129.115Z" fill="black"/>
<path d="M186.692 115.157H201.523V129.987H186.692V115.157Z" fill="black"/>
<path d="M129.114 115.157H172.734V129.987H129.114V115.157Z" fill="black"/>
<path d="M186.983 71.5366H172.443V86.0766H157.903V100.616H172.443V115.156H186.983V100.616H201.523V86.0766H186.983V71.5366Z" fill="black"/>
<path d="M115.156 129.987H129.115V172.734H115.156V129.987Z" fill="black"/>
<path d="M71.5366 172.735H85.9312V158.34H100.326V143.946H85.9312V115.157H71.5366V172.735Z" fill="black"/>
<mask id="mask0_2817_3539" style="mask-type:alpha" maskUnits="userSpaceOnUse" x="0" y="0" width="202" height="202">
<path d="M11.5031 0C8.45231 0 5.52644 1.21193 3.36919 3.36919C1.21193 5.52644 0 8.45231 0 11.5031V57.5156H57.5156V0H11.5031ZM43.1367 43.1367H14.3789V14.3789H43.1367V43.1367Z" fill="#989898"/>
<path d="M0 189.802C0 192.852 1.21193 195.778 3.36919 197.936C5.52644 200.093 8.45231 201.305 11.5031 201.305H57.5156V143.789H0V189.802ZM14.3789 158.168H43.1367V186.926H14.3789V158.168Z" fill="#989898"/>
<path d="M143.789 201.305H189.802C192.852 201.305 195.778 200.093 197.936 197.936C200.093 195.778 201.305 192.852 201.305 189.802V143.789H143.789V201.305ZM158.168 158.168H186.926V186.926H158.168V158.168Z" fill="#989898"/>
<path d="M189.802 0H143.789V57.5156H201.305V11.5031C201.305 8.45231 200.093 5.52644 197.936 3.36919C195.778 1.21193 192.852 0 189.802 0ZM186.926 43.1367H158.168V14.3789H186.926V43.1367Z" fill="#989898"/>
<path d="M115.03 43.1367V28.7578H86.2725V57.5156H100.651V43.1367H115.03Z" fill="#989898"/>
<path d="M57.5151 57.5156H71.894V71.8945H57.5151V57.5156Z" fill="#989898"/>
<path d="M71.894 71.895H100.652V86.2739H71.894V71.895Z" fill="#989898"/>
<path d="M115.031 14.3789V28.7578H129.41V0H71.894V28.7578H86.273V14.3789H115.031Z" fill="#989898"/>
<path d="M0 71.895H14.3789V100.653H0V71.895Z" fill="#989898"/>
<path d="M57.5156 86.2739V100.653H43.1367V71.895H28.7578V100.653H14.3789V115.032H0V129.411H28.7578V115.032H43.1367V129.411H57.5156V115.032H71.8945V86.2739H57.5156Z" fill="#989898"/>
<path d="M115.03 86.2734H129.409V100.652H143.788V86.2734H158.167V71.8945H129.409V43.1367H115.03V57.5156H100.651V71.8945H115.03V86.2734Z" fill="#989898"/>
<path d="M100.652 186.926H71.894V201.305H129.41V186.926H115.031V172.547H100.652V186.926Z" fill="#989898"/>
<path d="M129.409 115.032V100.653H115.03V86.2739H100.651V100.653H86.2725V115.032H100.651V129.411H115.03V115.032H129.409Z" fill="#989898"/>
<path d="M186.925 115.031H201.304V129.41H186.925V115.031Z" fill="#989898"/>
<path d="M129.41 115.031H172.547V129.41H129.41V115.031Z" fill="#989898"/>
<path d="M186.926 71.895H172.547V86.2739H158.168V100.653H172.547V115.032H186.926V100.653H201.305V86.2739H186.926V71.895Z" fill="#989898"/>
<path d="M115.03 129.41H129.409V172.547H115.03V129.41Z" fill="#989898"/>
<path d="M71.894 172.547H86.273V158.168H100.652V143.789H86.273V115.031H71.894V172.547Z" fill="#989898"/>
</mask>
<g mask="url(#mask0_2817_3539)">
<rect x="-25.4575" y="100.771" width="267.306" height="132.592" fill="black"/>
</g>
</svg>
