<svg width="26" height="27" viewBox="0 0 26 27" fill="none" xmlns="http://www.w3.org/2000/svg">
<path fill-rule="evenodd" clip-rule="evenodd" d="M12.2358 0C18.9825 0 24.4704 5.48784 24.4704 12.2346C24.4704 15.4176 23.2488 18.3208 21.2498 20.4996L25.1832 24.4248C25.5514 24.7929 25.5526 25.3884 25.1845 25.7565C25.0011 25.9425 24.7586 26.0342 24.5174 26.0342C24.2774 26.0342 24.0362 25.9425 23.8515 25.759L19.8706 21.7893C17.7765 23.4663 15.1213 24.4704 12.2358 24.4704C5.48909 24.4704 0 18.9813 0 12.2346C0 5.48784 5.48909 0 12.2358 0ZM12.2358 1.88456C6.52811 1.88456 1.88456 6.52686 1.88456 12.2346C1.88456 17.9423 6.52811 22.5858 12.2358 22.5858C17.9423 22.5858 22.5858 17.9423 22.5858 12.2346C22.5858 6.52686 17.9423 1.88456 12.2358 1.88456Z" fill="#4A154B"/>
</svg>
