<svg width="29" height="29" viewBox="0 0 29 29" fill="none" xmlns="http://www.w3.org/2000/svg">
<path d="M28.7042 14.061L0.773553 0.0556775C0.660027 -0.00109179 0.529807 -0.0144492 0.406265 0.0156052C0.122451 0.0857319 -0.0545154 0.372917 0.0156033 0.660103L2.89381 12.4214C2.93721 12.5983 3.06744 12.7419 3.24106 12.7987L8.17274 14.4918L3.2444 16.1848C3.07077 16.2449 2.94055 16.3852 2.90049 16.5622L0.0156033 28.3401C-0.0144476 28.4637 -0.00109148 28.5939 0.0556713 28.7041C0.185892 28.9679 0.506434 29.0748 0.773553 28.9446L28.7042 15.0194C28.8077 14.9693 28.8911 14.8825 28.9446 14.7823C29.0748 14.5151 28.9679 14.1946 28.7042 14.061ZM3.30784 24.9941L4.98735 18.1283L14.844 14.7456C14.9208 14.7188 14.9843 14.6587 15.011 14.5786C15.0577 14.4383 14.9843 14.2881 14.844 14.238L4.98735 10.8585L3.31452 4.01951L24.2833 14.5352L3.30784 24.9941Z" fill="white"/>
</svg>
