<svg width="23" height="22" viewBox="0 0 23 22" fill="none" xmlns="http://www.w3.org/2000/svg">
<path fill-rule="evenodd" clip-rule="evenodd" d="M11.0672 2.20266C10.9639 2.20266 10.7096 2.23104 10.5746 2.50119L8.50186 6.64547C8.17381 7.30043 7.54156 7.75561 6.81055 7.86004L2.17023 8.52861C1.86375 8.57288 1.75932 8.7999 1.72754 8.89525C1.69916 8.9872 1.65376 9.22103 1.86489 9.42308L5.22026 12.6468C5.7549 13.161 5.99781 13.9022 5.87068 14.6275L5.08065 19.1793C5.03184 19.4642 5.21005 19.63 5.28951 19.6867C5.3735 19.7503 5.59825 19.8763 5.87636 19.731L10.0252 17.58C10.679 17.2428 11.4577 17.2428 12.1092 17.58L16.2569 19.7299C16.5361 19.874 16.7609 19.748 16.846 19.6867C16.9255 19.63 17.1037 19.4642 17.0549 19.1793L16.2626 14.6275C16.1355 13.9022 16.3784 13.161 16.913 12.6468L20.2684 9.42308C20.4806 9.22103 20.4352 8.98606 20.4057 8.89525C20.3751 8.7999 20.2707 8.57288 19.9642 8.52861L15.3239 7.86004C14.594 7.75561 13.9617 7.30043 13.6337 6.64434L11.5587 2.50119C11.4248 2.23104 11.1705 2.20266 11.0672 2.20266ZM5.61528 21.4995C5.14648 21.4995 4.68109 21.3519 4.28267 21.0613C3.59479 20.5573 3.25766 19.7253 3.40409 18.8876L4.19413 14.3358C4.22364 14.1667 4.16575 13.9953 4.04089 13.875L0.68551 10.6513C0.0680113 10.0599 -0.153335 9.18584 0.10774 8.37424C0.371085 7.55356 1.06804 6.96671 1.92732 6.84411L6.56764 6.17554C6.74698 6.15056 6.90136 6.04046 6.97854 5.88381L9.05239 1.7384C9.43492 0.974475 10.2068 0.5 11.0672 0.5C11.9276 0.5 12.6995 0.974475 13.082 1.7384L15.157 5.88268C15.2353 6.04046 15.3886 6.15056 15.5668 6.17554L20.2071 6.84411C21.0664 6.96671 21.7633 7.55356 22.0267 8.37424C22.2877 9.18584 22.0653 10.0599 21.4478 10.6513L18.0924 13.875C17.9675 13.9953 17.9108 14.1667 17.9403 14.3347L18.7314 18.8876C18.8767 19.7264 18.5396 20.5585 17.8506 21.0613C17.1525 21.5733 16.2433 21.6425 15.4726 21.2407L11.326 19.0919C11.1637 19.0079 10.9696 19.0079 10.8073 19.0919L6.66072 21.2418C6.32926 21.4144 5.9717 21.4995 5.61528 21.4995Z" fill="#4A154B"/>
</svg>
