<svg width="42" height="42" viewBox="0 0 42 42" fill="none" xmlns="http://www.w3.org/2000/svg">
<path d="M32.6817 1H8.78147C4.48388 1 1 4.48388 1 8.78147V32.6817C1 36.9793 4.48388 40.4632 8.78147 40.4632H32.6817C36.9793 40.4632 40.4632 36.9793 40.4632 32.6817V8.78147C40.4632 4.48388 36.9793 1 32.6817 1Z" fill="#F4EDE4" stroke="#4A154B" stroke-width="1.64384"/>
<path d="M14.9418 16.9336H8.45728V33.6082H14.9418V16.9336Z" fill="#4B6DAA"/>
<path d="M11.6995 31.2919C12.7228 31.2919 13.5523 30.4624 13.5523 29.4392C13.5523 28.4159 12.7228 27.5864 11.6995 27.5864C10.6763 27.5864 9.8468 28.4159 9.8468 29.4392C9.8468 30.4624 10.6763 31.2919 11.6995 31.2919Z" fill="#D8A852"/>
<path d="M32.5428 19.7122C32.5428 18.689 31.7132 17.8595 30.6901 17.8595H26.5214H25.1319H23.4635L23.9211 15.72C24.2703 14.0878 24.1768 12.0984 23.9693 10.701C23.7618 9.30354 22.5102 7.66943 21.2008 7.66943H21.0901C19.9739 7.66943 19.5737 8.90104 19.5737 10.4485C19.5737 17.9753 15.8682 17.8595 15.8682 17.8595H14.9418V32.6813H21.8896H26.5214H28.3741C29.3973 32.6813 30.2269 31.8517 30.2269 30.8286C30.2269 29.8054 29.3973 28.9758 28.3741 28.9758H29.7637C30.7869 28.9758 31.6164 28.1463 31.6164 27.1231C31.6164 26.0999 30.7869 25.2704 29.7637 25.2704H31.1532C32.1764 25.2704 33.006 24.4408 33.006 23.4177C33.006 22.2629 32.2589 21.8234 31.1532 21.6594C30.6146 21.5793 29.6358 21.5649 29.3005 21.5649H30.6901C31.7132 21.5649 32.5428 20.7354 32.5428 19.7122Z" fill="#FBCE9D"/>
<path d="M31.9036 21.1016H26.0582C25.8025 21.1016 25.595 21.3086 25.595 21.5647C25.595 21.8209 25.8025 22.0279 26.0582 22.0279H32.2908C31.9865 21.8413 31.6016 21.7255 31.1532 21.6592C30.6145 21.5791 29.6358 21.5647 29.3005 21.5647H30.69C31.1569 21.5647 31.578 21.3864 31.9036 21.1016Z" fill="#F7B563"/>
<path d="M32.3668 24.8071H26.0582C25.8025 24.8071 25.595 25.0142 25.595 25.2703C25.595 25.5265 25.8025 25.7335 26.0582 25.7335H30.9777C30.6521 25.4486 30.2306 25.2703 29.7637 25.2703H31.1532C31.6201 25.2703 32.0411 25.092 32.3668 24.8071Z" fill="#F7B563"/>
<path d="M30.9772 28.5127H25.1318C24.8761 28.5127 24.6686 28.7197 24.6686 28.9759C24.6686 29.232 24.8761 29.4391 25.1318 29.4391H29.5881C29.2625 29.1542 28.841 28.9759 28.3741 28.9759H29.7637C30.2305 28.9759 30.6516 28.7976 30.9772 28.5127Z" fill="#F7B563"/>
</svg>
