<svg width="70" height="70" viewBox="0 0 70 70" fill="none" xmlns="http://www.w3.org/2000/svg">
<path d="M62.2275 18.9355H45.3086C45.3086 18.9287 45.3154 18.9219 45.3154 18.9082H18.9561C18.9492 18.915 18.9355 18.9219 18.9287 18.9355H11.8945C10.0215 18.9355 8.49707 20.46 8.49707 22.333V56.2598C8.49707 58.1328 10.0215 59.6572 11.8945 59.6572H13.4531C13.207 59.8213 13.043 60.1084 13.043 60.4297C13.043 60.9424 13.46 61.3594 13.9727 61.3594H60.0605C60.5732 61.3594 60.9902 60.9424 60.9902 60.4297C60.9902 60.1084 60.8262 59.8281 60.5801 59.6572H62.2344C64.1006 59.6572 65.6318 58.126 65.6318 56.2598V22.333C65.625 20.4531 64.1006 18.9355 62.2275 18.9355Z" fill="#A7B8C6"/>
<path d="M18.915 45.3635C18.6758 45.3635 18.4365 45.2747 18.2588 45.0901C17.8965 44.7278 17.8965 44.1399 18.2588 43.7776L50.8457 11.1907C51.208 10.8284 51.7959 10.8284 52.1582 11.1907C52.5205 11.553 52.5205 12.1409 52.1582 12.5032L19.5713 45.0901C19.3867 45.2747 19.1475 45.3635 18.915 45.3635Z" fill="#A7B8C6"/>
<path d="M51.502 45.3635C51.2627 45.3635 51.0234 45.2747 50.8457 45.0901L18.2588 12.4963C17.8965 12.134 17.8965 11.5461 18.2588 11.1838C18.6211 10.8215 19.209 10.8215 19.5713 11.1838L52.1582 43.7776C52.5205 44.1399 52.5205 44.7278 52.1582 45.0901C51.9736 45.2747 51.7412 45.3635 51.502 45.3635Z" fill="#A7B8C6"/>
<path d="M16.6455 43.1008C16.4063 43.1008 16.167 43.012 15.9893 42.8274C15.627 42.4651 15.627 41.8772 15.9893 41.5149L48.5762 8.92798C48.9385 8.56567 49.5264 8.56567 49.8887 8.92798C50.251 9.29028 50.251 9.87817 49.8887 10.2405L17.3018 42.8274C17.1172 43.012 16.8779 43.1008 16.6455 43.1008Z" fill="#3E3A39"/>
<path d="M49.2393 43.1008C49 43.1008 48.7607 43.012 48.583 42.8274L15.9961 10.2336C15.6338 9.87134 15.6338 9.28345 15.9961 8.92114C16.3584 8.55884 16.9463 8.55884 17.3086 8.92114L49.8955 41.5081C50.2578 41.8704 50.2578 42.4583 49.8955 42.8206C49.7109 43.012 49.4785 43.1008 49.2393 43.1008Z" fill="#3E3A39"/>
<path d="M57.7842 55.0156H8.98926C7.62891 55.0156 6.52148 53.9014 6.52148 52.5479V18.6279C6.52148 17.2676 7.63574 16.1602 8.98926 16.1602H57.791C59.1514 16.1602 60.2588 17.2744 60.2588 18.6279V52.5479C60.2588 53.9014 59.1445 55.0156 57.7842 55.0156Z" fill="#998D7B"/>
<path d="M57.7842 55.5283H8.98926C7.3418 55.5283 6.00195 54.1885 6.00195 52.541V18.6279C6.00195 16.9805 7.3418 15.6406 8.98926 15.6406H57.791C59.4385 15.6406 60.7783 16.9805 60.7783 18.6279V52.5479C60.7646 54.1885 59.4316 55.5283 57.7842 55.5283ZM8.98926 16.666C7.90918 16.666 7.03418 17.5479 7.03418 18.6211V52.541C7.03418 53.6211 7.91602 54.4961 8.98926 54.4961H57.791C58.8711 54.4961 59.7461 53.6143 59.7461 52.541V18.6279C59.7461 17.5479 58.8643 16.6729 57.791 16.6729H8.98926V16.666Z" fill="#C8BB9B"/>
<path d="M58.1055 55.9453H7.77246C5.89941 55.9453 4.375 54.4209 4.375 52.5479V18.6279C4.375 16.7549 5.89941 15.2305 7.77246 15.2305H58.1055C59.9785 15.2305 61.5029 16.7549 61.5029 18.6279V52.5479C61.5029 54.4141 59.9854 55.9453 58.1055 55.9453ZM7.77246 17.0762C6.91797 17.0762 6.22754 17.7734 6.22754 18.6211V52.541C6.22754 53.3955 6.9248 54.0859 7.77246 54.0859H58.1055C58.96 54.0859 59.6504 53.3887 59.6504 52.541V18.6279C59.6504 17.7734 58.9531 17.083 58.1055 17.083L7.77246 17.0762Z" fill="#3E3A39"/>
<path d="M39.6074 51.502H9.5498C8.18945 51.502 7.08203 50.3877 7.08203 49.0342V22.5381C7.08203 21.1777 8.19629 20.0703 9.5498 20.0703H39.6006C40.9609 20.0703 42.0684 21.1846 42.0684 22.5381V49.0342C42.0752 50.3877 40.9609 51.502 39.6074 51.502Z" fill="#98805F"/>
<path d="M39.2793 49.123H10.1787C9.72754 49.123 9.3584 48.7539 9.3584 48.3027V22.8594C9.3584 22.4082 9.72754 22.0391 10.1787 22.0391H39.2656C39.7168 22.0391 40.0859 22.4082 40.0859 22.8594V48.3027C40.0996 48.7539 39.7305 49.123 39.2793 49.123Z" fill="#B9CCD9"/>
<path d="M10.9648 49.123C16.1191 46.0879 21.9229 41.3643 27.4395 35.4443C31.623 30.9531 35.1025 26.3457 37.7002 22.0459H9.36523V49.123H10.9648Z" fill="#DADDEE"/>
<path d="M28.9023 20.1318H9.9873C9.81641 20.1318 9.67969 19.9951 9.67969 19.8242C9.67969 19.6533 9.81641 19.5166 9.9873 19.5166H28.8955C29.0664 19.5166 29.2031 19.6533 29.2031 19.8242C29.2031 19.9951 29.0732 20.1318 28.9023 20.1318ZM39.1631 51.6934H24.2607C24.0898 51.6934 23.9531 51.5566 23.9531 51.3857C23.9531 51.2148 24.0898 51.0781 24.2607 51.0781H39.1631C39.334 51.0781 39.4707 51.2148 39.4707 51.3857C39.4775 51.5498 39.334 51.6934 39.1631 51.6934Z" fill="#D8D8D8"/>
<path d="M21.458 26.4141C17.3975 30.3584 13.3438 34.3096 9.36523 37.3994V38.9238C13.4326 35.8477 17.582 31.8418 21.7246 27.8154C23.7412 25.8535 25.7578 23.8916 27.7676 22.0391H26.0176C24.5 23.4678 22.9756 24.9443 21.458 26.4141ZM26.0176 22.0459H27.7676Z" fill="#E8EAF5"/>
<path d="M55.9385 57.6338H9.84375C9.33106 57.6338 8.91406 57.2168 8.91406 56.7041C8.91406 56.1914 9.33106 55.7744 9.84375 55.7744H55.9316C56.4443 55.7744 56.8613 56.1914 56.8613 56.7041C56.8682 57.2236 56.4512 57.6338 55.9385 57.6338Z" fill="#3E3A39"/>
<path d="M47.9678 26.8857C47.9678 27.4073 48.0705 27.9238 48.2701 28.4056C48.4697 28.8875 48.7622 29.3253 49.1311 29.6941C49.4999 30.0629 49.9377 30.3555 50.4196 30.5551C50.9014 30.7547 51.4179 30.8574 51.9395 30.8574C52.461 30.8574 52.9775 30.7547 53.4594 30.5551C53.9412 30.3555 54.3791 30.0629 54.7479 29.6941C55.1167 29.3253 55.4092 28.8875 55.6088 28.4056C55.8084 27.9238 55.9111 27.4073 55.9111 26.8857C55.9111 26.3642 55.8084 25.8477 55.6088 25.3658C55.4092 24.884 55.1167 24.4461 54.7479 24.0773C54.3791 23.7085 53.9412 23.416 53.4594 23.2164C52.9775 23.0168 52.461 22.9141 51.9395 22.9141C51.4179 22.9141 50.9014 23.0168 50.4196 23.2164C49.9377 23.416 49.4999 23.7085 49.1311 24.0773C48.7622 24.4461 48.4697 24.884 48.2701 25.3658C48.0705 25.8477 47.9678 26.3642 47.9678 26.8857Z" fill="#98805F"/>
<path d="M37.2285 48.583H15.1211C14.9502 48.583 14.8135 48.4463 14.8135 48.2754C14.8135 48.1045 14.9502 47.9678 15.1211 47.9678H37.2354C37.4062 47.9678 37.543 48.1045 37.543 48.2754C37.5361 48.4395 37.3994 48.583 37.2285 48.583Z" fill="#D8D8D8"/>
<path d="M48.665 26.8857C48.665 27.7542 49.01 28.587 49.6241 29.2011C50.2382 29.8152 51.071 30.1602 51.9395 30.1602C52.8079 30.1602 53.6407 29.8152 54.2548 29.2011C54.8689 28.587 55.2139 27.7542 55.2139 26.8857C55.2139 26.0173 54.8689 25.1845 54.2548 24.5704C53.6407 23.9563 52.8079 23.6113 51.9395 23.6113C51.071 23.6113 50.2382 23.9563 49.6241 24.5704C49.01 25.1845 48.665 26.0173 48.665 26.8857Z" fill="#E1D8CC"/>
<path d="M52.8281 27.4053H51.0576C50.7705 27.4053 50.5449 27.1729 50.5449 26.8926C50.5449 26.6055 50.7773 26.3799 51.0576 26.3799H52.8281C53.1152 26.3799 53.3408 26.6123 53.3408 26.8926C53.3408 27.1729 53.1084 27.4053 52.8281 27.4053Z" fill="#40210F"/>
<path d="M47.9678 37.5566C47.9678 38.0782 48.0705 38.5947 48.2701 39.0765C48.4697 39.5584 48.7622 39.9962 49.1311 40.365C49.4999 40.7338 49.9377 41.0264 50.4196 41.226C50.9014 41.4256 51.4179 41.5283 51.9395 41.5283C52.461 41.5283 52.9775 41.4256 53.4594 41.226C53.9412 41.0264 54.3791 40.7338 54.7479 40.365C55.1167 39.9962 55.4092 39.5584 55.6088 39.0765C55.8084 38.5947 55.9111 38.0782 55.9111 37.5566C55.9111 37.0351 55.8084 36.5186 55.6088 36.0367C55.4092 35.5549 55.1167 35.117 54.7479 34.7482C54.3791 34.3794 53.9412 34.0869 53.4594 33.8873C52.9775 33.6877 52.461 33.585 51.9395 33.585C51.4179 33.585 50.9014 33.6877 50.4196 33.8873C49.9377 34.0869 49.4999 34.3794 49.1311 34.7482C48.7622 35.117 48.4697 35.5549 48.2701 36.0367C48.0705 36.5186 47.9678 37.0351 47.9678 37.5566Z" fill="#98805F"/>
<path d="M48.665 37.5566C48.665 38.4251 49.01 39.2579 49.6241 39.872C50.2382 40.4861 51.071 40.8311 51.9395 40.8311C52.8079 40.8311 53.6407 40.4861 54.2548 39.872C54.8689 39.2579 55.2139 38.4251 55.2139 37.5566C55.2139 36.6882 54.8689 35.8554 54.2548 35.2413C53.6407 34.6272 52.8079 34.2822 51.9395 34.2822C51.071 34.2822 50.2382 34.6272 49.6241 35.2413C49.01 35.8554 48.665 36.6882 48.665 37.5566Z" fill="#E1D8CC"/>
<path d="M51.9395 38.9648C51.6523 38.9648 51.4268 38.7324 51.4268 38.4522V36.6816C51.4268 36.3945 51.6592 36.1689 51.9395 36.1689C52.2197 36.1689 52.4521 36.4014 52.4521 36.6816V38.4522C52.4521 38.7324 52.2197 38.9648 51.9395 38.9648Z" fill="#40210F"/>
<path d="M50.0596 51.0166H48.0771C47.9336 51.0166 47.8174 50.9004 47.8174 50.7568V50.0596C47.8174 49.916 47.9336 49.7998 48.0771 49.7998H50.0596C50.2031 49.7998 50.3193 49.916 50.3193 50.0596V50.7568C50.3193 50.9004 50.2031 51.0166 50.0596 51.0166ZM52.9717 51.0166H50.9893C50.8457 51.0166 50.7295 50.9004 50.7295 50.7568V50.0596C50.7295 49.916 50.8457 49.7998 50.9893 49.7998H52.9717C53.1152 49.7998 53.2314 49.916 53.2314 50.0596V50.7568C53.2314 50.9004 53.1152 51.0166 52.9717 51.0166ZM55.8838 51.0166H53.9014C53.7578 51.0166 53.6416 50.9004 53.6416 50.7568V50.0596C53.6416 49.916 53.7578 49.7998 53.9014 49.7998H55.8838C56.0273 49.7998 56.1436 49.916 56.1436 50.0596V50.7568C56.1436 50.9004 56.0273 51.0166 55.8838 51.0166Z" fill="#E1D8CC"/>
<path d="M50.0596 49.3281H48.0771C47.9336 49.3281 47.8174 49.2119 47.8174 49.0684V48.3711C47.8174 48.2275 47.9336 48.1113 48.0771 48.1113H50.0596C50.2031 48.1113 50.3193 48.2275 50.3193 48.3711V49.0684C50.3193 49.2119 50.2031 49.3281 50.0596 49.3281ZM52.9717 49.3281H50.9893C50.8457 49.3281 50.7295 49.2119 50.7295 49.0684V48.3711C50.7295 48.2275 50.8457 48.1113 50.9893 48.1113H52.9717C53.1152 48.1113 53.2314 48.2275 53.2314 48.3711V49.0684C53.2314 49.2119 53.1152 49.3281 52.9717 49.3281ZM55.8838 49.3281H53.9014C53.7578 49.3281 53.6416 49.2119 53.6416 49.0684V48.3711C53.6416 48.2275 53.7578 48.1113 53.9014 48.1113H55.8838C56.0273 48.1113 56.1436 48.2275 56.1436 48.3711V49.0684C56.1436 49.2119 56.0273 49.3281 55.8838 49.3281Z" fill="#E1D8CC"/>
</svg>
