<svg width="23" height="14" viewBox="0 0 23 14" fill="none" xmlns="http://www.w3.org/2000/svg">
<path d="M0.455145 11.2258L10.6504 0.354858C10.7718 0.225826 10.9033 0.134213 11.0449 0.08002C11.1865 0.0258265 11.3382 -0.000840053 11.5 2.01613e-05C11.6618 2.01613e-05 11.8135 0.0271169 11.9551 0.0813104C12.0967 0.135504 12.2282 0.226686 12.3496 0.354858L22.5752 11.2258C22.8584 11.5269 23 11.9032 23 12.3548C23 12.8065 22.8483 13.1936 22.5449 13.5161C22.2414 13.8387 21.8874 14 21.4828 14C21.0783 14 20.7243 13.8387 20.4208 13.5161L11.5 4.03227L2.57915 13.5161C2.29595 13.8172 1.94681 13.9677 1.53172 13.9677C1.11662 13.9677 0.757765 13.8065 0.455145 13.4839C0.151714 13.1613 -1.90735e-06 12.7849 -1.90735e-06 12.3548C-1.90735e-06 11.9247 0.151714 11.5484 0.455145 11.2258Z" fill="black"/>
</svg>
