<svg width="70" height="70" viewBox="0 0 70 70" fill="none" xmlns="http://www.w3.org/2000/svg">
<path d="M46.6667 43.75H8.75V49.5833H46.6667V43.75Z" fill="#D8D8D8"/>
<mask id="mask0_2750_3174" style="mask-type:luminance" maskUnits="userSpaceOnUse" x="8" y="43" width="39" height="7">
<path d="M46.6667 43.75H8.75V49.5833H46.6667V43.75Z" fill="#FFA0A0"/>
</mask>
<g mask="url(#mask0_2750_3174)">
<path d="M70 0H0V70H70V0Z" fill="#FFA0A0"/>
</g>
<path d="M8.74999 20.4163V49.583H46.6667V20.4163H8.74999ZM52.5 26.5281L62.7473 20.7715C64.7016 19.7256 67.0833 21.115 67.0833 23.301V46.6983C67.0833 48.8843 64.7016 50.2737 62.7473 49.2278L52.5 43.4923V49.583C52.5 52.8047 49.8883 55.4163 46.6667 55.4163H8.74999C5.52833 55.4163 2.91666 52.8047 2.91666 49.583V20.4163C2.91666 17.1947 5.52833 14.583 8.74999 14.583H46.6667C49.8883 14.583 52.5 17.1947 52.5 20.4163V26.5281ZM61.1211 42.1123V28.2438L49.5833 35.1781L61.1211 42.1123ZM40.8333 30.6247C38.4171 30.6247 36.4583 28.6659 36.4583 26.2497C36.4583 23.8334 38.4171 21.8747 40.8333 21.8747C43.2496 21.8747 45.2083 23.8334 45.2083 26.2497C45.2083 28.6659 43.2496 30.6247 40.8333 30.6247ZM8.74999 43.7497V37.9163H46.6667V43.7497H8.74999Z" fill="black"/>
<mask id="mask1_2750_3174" style="mask-type:luminance" maskUnits="userSpaceOnUse" x="2" y="14" width="66" height="42">
<path d="M8.74999 20.4163V49.583H46.6667V20.4163H8.74999ZM52.5 26.5281L62.7473 20.7715C64.7016 19.7256 67.0833 21.115 67.0833 23.301V46.6983C67.0833 48.8843 64.7016 50.2737 62.7473 49.2278L52.5 43.4923V49.583C52.5 52.8047 49.8883 55.4163 46.6667 55.4163H8.74999C5.52833 55.4163 2.91666 52.8047 2.91666 49.583V20.4163C2.91666 17.1947 5.52833 14.583 8.74999 14.583H46.6667C49.8883 14.583 52.5 17.1947 52.5 20.4163V26.5281ZM61.1211 42.1123V28.2438L49.5833 35.1781L61.1211 42.1123ZM40.8333 30.6247C38.4171 30.6247 36.4583 28.6659 36.4583 26.2497C36.4583 23.8334 38.4171 21.8747 40.8333 21.8747C43.2496 21.8747 45.2083 23.8334 45.2083 26.2497C45.2083 28.6659 43.2496 30.6247 40.8333 30.6247ZM8.74999 43.7497V37.9163H46.6667V43.7497H8.74999Z" fill="#7600FF"/>
</mask>
<g mask="url(#mask1_2750_3174)">
<path d="M70 0H0V70H70V0Z" fill="#7600FF"/>
</g>
</svg>
