<svg width="43" height="41" viewBox="0 0 43 41" fill="none" xmlns="http://www.w3.org/2000/svg">
<path d="M42.2759 39.3059H0V39.9365H42.2759V39.3059Z" fill="#E3EDF5"/>
<path d="M2.58887 36.1777C2.58887 36.1777 3.75698 33.1776 7.5618 31.764C10.5511 30.6536 14.8574 33.3989 14.8574 33.3989C14.8574 33.3989 11.1054 35.1896 8.88266 35.2092C5.58968 35.2382 2.58887 36.1777 2.58887 36.1777Z" fill="#BDFFD8"/>
<path d="M6.48776 22.1044C6.48776 22.1044 8.31605 25.3999 11.6963 28.8428C15.4977 32.7147 13.9945 35.6055 13.9945 35.6055C13.9945 35.6055 7.94499 35.0256 6.06463 30.8026C4.56865 27.4429 6.48776 22.1044 6.48776 22.1044Z" fill="#DCF5F9"/>
<path d="M36.4258 15.4928C36.4135 15.4294 36.3522 15.388 36.2888 15.4004C36.2254 15.4128 36.1841 15.4741 36.1964 15.5374C36.1997 15.5542 36.522 17.2414 36.5152 19.8837C36.509 22.3243 36.2122 26.0976 34.8337 30.2143C33.6019 33.8931 31.7589 36.3085 29.9561 37.7861H31.203C32.7799 36.3164 34.2419 34.2388 35.4708 30.5688C36.8592 26.4224 36.9368 22.2125 36.9432 19.7547C36.95 17.0897 36.4291 15.5097 36.4258 15.4928Z" fill="#BCF7E2"/>
<path d="M36.6592 23.1367C36.493 21.7753 37.176 19.2702 38.6445 18.1981C39.8977 17.2833 40.5076 16.298 40.5076 16.298C40.5076 16.298 40.7805 17.4068 40.6588 18.7582C40.5769 19.6668 39.8544 20.8138 38.9847 21.2203C37.4383 21.9432 36.6592 23.1367 36.6592 23.1367Z" fill="#BCF7E2"/>
<path d="M36.5169 17.126C35.8174 15.454 34.9547 14.4616 35.1777 12.742C35.3466 11.4405 35.1279 9.82742 35.1279 9.82742C35.1279 9.82742 36.213 10.5655 36.9133 11.5646C37.5457 12.4669 37.6909 13.6218 37.3794 14.5589C37.155 15.2343 36.5169 17.126 36.5169 17.126Z" fill="#BCF7E2"/>
<path d="M35.21 30.8652C35.8976 28.7627 36.635 25.0363 38.2146 23.5973C40.0172 21.9552 41.0874 21.9699 41.9786 20.8261C41.9786 20.8261 42.0397 21.9195 41.8336 23.7426C41.6475 25.3891 40.5915 28.3715 38.8947 28.9141C36.7787 29.5908 35.21 30.8652 35.21 30.8652Z" fill="#BCF7E2"/>
<path d="M33.1536 13.9229C34.2651 16.0607 37.1469 18.0587 36.5567 22.2861C36.5567 22.2861 35.5082 20.839 34.6218 20.3143C33.3255 19.547 32.8327 18.0682 32.811 16.5845C32.7955 15.5153 33.1536 13.9229 33.1536 13.9229Z" fill="#BCF7E2"/>
<path d="M42.5929 31.6118C39.7227 33.6218 39.8895 34.8402 35.503 35.7298C32.5182 36.3351 31.6113 37.6191 31.6113 37.6191C31.6113 37.6191 33.0708 34.9115 34.2407 33.4676C34.9994 32.5312 36.173 31.4139 38.5987 31.0777C40.1731 30.8596 42.5929 31.6118 42.5929 31.6118Z" fill="#BCF7E2"/>
<path d="M32.2802 35.957C31.0184 33.4186 30.2581 31.0902 30.0736 29.612C29.7956 27.3854 30.4162 25.5513 30.4162 25.5513C30.4162 25.5513 30.4203 25.9515 32.0869 26.9872C33.5921 27.9227 34.2732 29.0095 34.3801 30.752C34.5022 32.7438 32.2802 35.957 32.2802 35.957Z" fill="#BCF7E2"/>
<path d="M35.5546 29.0352C34.4129 26.8931 32.6449 26.2109 32.4601 23.8324C32.3112 21.9168 31.0742 20.8264 31.0742 20.8264C31.0742 20.8264 33.0559 21.0001 34.5075 21.8461C35.8186 22.6103 35.9917 23.4931 36.2582 24.9639C36.6219 26.9707 35.5546 29.0352 35.5546 29.0352Z" fill="#BCF7E2"/>
<path d="M19.0911 39.289L31.5751 39.3906C31.9158 39.3935 32.1942 39.1197 32.1971 38.779L32.4202 12.2336C32.4231 11.893 32.1493 11.6145 31.8086 11.6116L19.3246 11.51C18.984 11.5071 18.7055 11.7809 18.7027 12.1216L18.4795 38.667C18.4767 39.0077 18.7505 39.2861 19.0911 39.289Z" fill="#4ACFD3"/>
<path d="M18.2825 39.2831L30.7665 39.3847C31.1071 39.3876 31.3856 39.1138 31.3885 38.7732L31.6116 12.2277C31.6145 11.8871 31.3407 11.6086 31 11.6058L18.516 11.5041C18.1754 11.5013 17.8969 11.7751 17.8941 12.1157L17.6709 38.6611C17.668 39.0018 17.9419 39.2803 18.2825 39.2831Z" fill="#8CEAE7"/>
<path d="M17.6909 36.2871L13.585 36.2537L13.5909 35.5503C13.8471 35.5903 13.9946 35.6045 13.9946 35.6045C13.9946 35.6045 14.3725 34.8778 14.2702 33.665C14.6363 33.5052 14.8572 33.3998 14.8572 33.3998C14.8572 33.3998 14.6018 33.237 14.1725 33.0068C14.0738 32.5403 13.9027 32.0223 13.6251 31.4621L13.8479 4.87226L30.8161 5.01029L30.7608 11.6026L29.6059 11.5931L29.6124 10.4923V10.4851C29.6125 10.2884 29.5641 10.1003 29.4775 9.93066C29.3476 9.67594 29.1329 9.46217 28.8655 9.31143C28.598 9.16069 28.2773 9.07263 27.9328 9.07058L21.5535 9.03263L21.5412 9.03258C21.0831 9.03268 20.6661 9.18487 20.3603 9.43594C20.2074 9.56154 20.0823 9.71214 19.9949 9.88115C19.9074 10.0501 19.8581 10.2376 19.857 10.4342L19.8507 11.4797L19.8212 11.5135L19.3249 11.5094C19.3231 11.5094 19.3214 11.5094 19.3196 11.5094C19.3085 11.5094 19.2976 11.5097 19.2867 11.5103L18.5159 11.504C18.5142 11.504 18.5124 11.504 18.5107 11.504C18.1725 11.504 17.8969 11.7767 17.894 12.1156L17.8803 13.7401L17.7646 13.8729L17.8792 13.8786L17.7845 25.1386L16.5533 25.1312H16.5538C16.5492 25.1312 16.5449 25.1312 16.541 25.1312C16.0822 25.1313 15.6646 25.2838 15.3583 25.5352C15.2052 25.661 15.0799 25.8118 14.9923 25.9811C14.9048 26.1502 14.8553 26.338 14.8542 26.535L14.8312 30.3978L14.8312 30.3973L14.8312 30.405C14.8311 30.602 14.8795 30.7903 14.9662 30.9602C15.0964 31.2153 15.3115 31.4295 15.5793 31.5805C15.8471 31.7314 16.1684 31.8196 16.5135 31.8217L17.7283 31.8289L17.6909 36.2871ZM29.4057 11.5915L20.0508 11.5153L20.0572 10.4354C20.0582 10.2715 20.0989 10.116 20.1728 9.97311C20.2834 9.75904 20.4695 9.57371 20.7066 9.44209C20.9436 9.31043 21.2309 9.23283 21.541 9.23283C21.5411 9.23283 21.5411 9.23283 21.5412 9.23283L21.5522 9.23288L27.9316 9.27083C28.3464 9.27318 28.7195 9.41431 28.9861 9.63629C29.1194 9.74723 29.226 9.87809 29.2992 10.0216C29.3723 10.1652 29.4122 10.3211 29.4122 10.4851V10.4912L29.4057 11.5915Z" fill="#EAF9FC"/>
<path d="M14.2696 33.665C14.2522 33.4593 14.2211 33.2395 14.1719 33.0068C14.6012 33.2371 14.8565 33.3998 14.8565 33.3998C14.8565 33.3998 14.6357 33.5052 14.2696 33.665Z" fill="#D0F9EC"/>
<path d="M13.9946 35.6055C13.9946 35.6055 13.847 35.5913 13.5908 35.5514L13.6251 31.4631C13.9026 32.0233 14.0737 32.5413 14.1725 33.0078C14.2217 33.2405 14.2528 33.4603 14.2702 33.666C14.3725 34.8789 13.9946 35.6055 13.9946 35.6055Z" fill="#DCF5F9"/>
<path d="M30.7603 11.6035L29.6053 11.5941V11.593L30.7603 11.6024V11.6035ZM29.4051 11.5925L20.0502 11.5163V11.5152L29.4051 11.5913L29.4051 11.5925ZM19.8197 11.5145L19.2861 11.5101C19.297 11.5095 19.308 11.5092 19.319 11.5092C19.3208 11.5092 19.3226 11.5092 19.3243 11.5092L19.8207 11.5133L19.8197 11.5145Z" fill="#A2E6EA"/>
<path d="M17.7289 31.6289L16.5135 31.6216C16.098 31.6193 15.7242 31.4779 15.4572 31.2555C15.3236 31.1443 15.2168 31.0132 15.1435 30.8695C15.0703 30.7257 15.0303 30.5694 15.0303 30.4052V30.3997V30.3986L15.0533 26.5364C15.0543 26.3722 15.0951 26.2164 15.169 26.0732C15.2799 25.8588 15.4663 25.6731 15.7039 25.5413C15.9413 25.4094 16.2291 25.3317 16.5397 25.3317C16.5398 25.3317 16.5398 25.3317 16.5399 25.3317H16.5505H16.551L17.7817 25.339L17.7562 28.3674L17.4022 28.3653L17.401 28.5655L17.7546 28.5676L17.7289 31.6289ZM16.839 28.3619L16.8378 28.5622L16.9573 28.5629L16.9585 28.3626L16.839 28.3619Z" fill="#EAF9FC"/>
<path d="M30.5527 36.3916L17.6904 36.287L17.7279 31.8288L22.9029 31.8596H22.9032L22.9152 31.8596C23.3741 31.8595 23.7916 31.707 24.0979 31.4556C24.2511 31.3298 24.3764 31.179 24.4639 31.0098C24.5515 30.8406 24.6009 30.6528 24.602 30.4558L24.6039 30.1454L26.7016 30.1932L26.5642 30.0248L24.6188 27.6413L24.6251 26.593V26.5924V26.5859C24.6251 26.3888 24.5767 26.2005 24.49 26.0306C24.3599 25.7754 24.1448 25.5614 23.877 25.4104C23.6091 25.2594 23.2879 25.1712 22.9428 25.1691L17.7841 25.1384L17.8788 13.8784L17.9704 13.8829L19.8354 13.9748L19.8336 14.2906V14.2903L19.8335 14.2977C19.8335 14.4945 19.8818 14.6825 19.9684 14.8522C20.0983 15.1069 20.3131 15.3206 20.5805 15.4714C20.8479 15.6221 21.1686 15.7102 21.5133 15.7122L27.8926 15.7502H27.9048C28.363 15.7501 28.7798 15.5979 29.0857 15.3469C29.2386 15.2213 29.3637 15.0707 29.4511 14.9017C29.5385 14.7328 29.5879 14.5453 29.5891 14.3486L29.6054 11.5942L30.7604 11.6036L30.5527 36.3916ZM20.6465 18.1976C20.254 18.1976 19.9341 18.5141 19.9308 18.9073L19.9044 22.0558C19.9011 22.4511 20.2188 22.7743 20.6141 22.7776L28.7484 22.846C28.7505 22.846 28.7525 22.846 28.7546 22.846C29.147 22.846 29.4669 22.5295 29.4702 22.1362L29.4967 18.9878C29.5 18.5925 29.1822 18.2693 28.7869 18.266L20.6526 18.1976C20.6505 18.1976 20.6485 18.1976 20.6465 18.1976ZM22.9154 31.6594C22.9153 31.6594 22.9153 31.6594 22.9152 31.6594L22.9039 31.6593H22.9041L17.7296 31.6286L17.7553 28.5673L17.8455 28.5678L17.8467 28.3676L17.757 28.367L17.7824 25.3387L22.9416 25.3694C23.3571 25.3717 23.7309 25.5131 23.9979 25.7355C24.1315 25.8466 24.2383 25.9777 24.3116 26.1215C24.3848 26.2653 24.4248 26.4216 24.4248 26.5859V26.5924V26.5918L24.4182 27.7122L26.2717 29.9831L24.4048 29.9406L24.4018 30.4547C24.4008 30.6189 24.36 30.7747 24.286 30.9177C24.1752 31.1322 23.9888 31.3178 23.7512 31.4498C23.5138 31.5816 23.226 31.6594 22.9154 31.6594ZM21.8406 28.3914L21.8394 28.5916L22.2831 28.5942L22.2843 28.394L21.8406 28.3914ZM20.9531 28.3861L20.9519 28.5863L21.3956 28.589L21.3968 28.3887L20.9531 28.3861ZM20.0655 28.3808L20.0644 28.5811L20.5081 28.5837L20.5093 28.3834L20.0655 28.3808ZM19.178 28.3755L19.1768 28.5758L19.6206 28.5784L19.6218 28.3782L19.178 28.3755ZM18.2905 28.3702L18.2893 28.5705L18.7331 28.5731L18.7342 28.3728L18.2905 28.3702ZM27.905 15.55C27.9049 15.55 27.9049 15.55 27.9048 15.55H27.8936L21.5145 15.512C21.0996 15.5096 20.7265 15.3685 20.4599 15.1465C20.3266 15.0356 20.22 14.9047 20.1468 14.7612C20.0737 14.6176 20.0338 14.4617 20.0338 14.2977L20.0338 14.292V14.2918L20.0368 13.7843L18.1865 13.6931L20.0501 11.555L20.0503 11.5164L29.4052 11.5925L29.3888 14.3474C29.3878 14.5113 29.347 14.6669 29.2733 14.8097C29.1626 15.0238 28.9765 15.2091 28.7394 15.3407C28.5024 15.4723 28.2151 15.55 27.905 15.55ZM25.6568 13.4387L25.6556 13.639L26.0993 13.6416L26.1005 13.4413L25.6568 13.4387ZM24.7693 13.4334L24.7681 13.6337L25.2118 13.6363L25.213 13.4361L24.7693 13.4334ZM23.8817 13.4282L23.8805 13.6284L24.3243 13.631L24.3255 13.4308L23.8817 13.4282ZM22.9942 13.4228L22.993 13.6231L23.4368 13.6258L23.438 13.4255L22.9942 13.4228ZM22.1067 13.4176L22.1055 13.6178L22.5493 13.6205L22.5505 13.4202L22.1067 13.4176ZM26.5959 11.8555L26.5948 12.0557L27.0386 12.0583L27.0397 11.8581L26.5959 11.8555ZM25.7084 11.8502L25.7073 12.0504L26.151 12.0531L26.1522 11.8528L25.7084 11.8502ZM24.8209 11.8449L24.8198 12.0452L25.2635 12.0478L25.2647 11.8475L24.8209 11.8449ZM23.9334 11.8396L23.9322 12.0399L24.376 12.0425L24.3772 11.8423L23.9334 11.8396ZM23.0459 11.8344L23.0447 12.0346L23.4885 12.0372L23.4897 11.837L23.0459 11.8344ZM22.1584 11.8291L22.1572 12.0293L22.6009 12.032L22.6021 11.8317L22.1584 11.8291ZM17.8799 13.7399L17.8936 12.1155C17.8964 11.7766 18.172 11.5038 18.5103 11.5038C18.512 11.5038 18.5138 11.5038 18.5155 11.5039L19.2862 11.5102L19.8198 11.5145L17.8799 13.7399Z" fill="#BCF1F2"/>
<path d="M17.7272 31.8291L16.5124 31.8219C16.1673 31.8198 15.8461 31.7316 15.5782 31.5806C15.3104 31.4297 15.0953 31.2155 14.9651 30.9604C14.8784 30.7904 14.83 30.6022 14.8301 30.4052L14.8301 30.3975L14.8301 30.398L14.8531 26.5352C14.8542 26.3382 14.9037 26.1504 14.9912 25.9813C15.0788 25.812 15.2041 25.6612 15.3572 25.5354C15.6635 25.2839 16.0811 25.1315 16.5399 25.1314C16.5438 25.1314 16.5481 25.1314 16.5527 25.1314H16.5522L17.7834 25.1388L17.7818 25.339L16.551 25.3317H16.5505H16.5399C16.5399 25.3317 16.5398 25.3317 16.5398 25.3317C16.2291 25.3317 15.9413 25.4094 15.7039 25.5413C15.4664 25.6731 15.2799 25.8588 15.1691 26.0732C15.0952 26.2164 15.0544 26.3722 15.0534 26.5364L15.0303 30.3986V30.3997V30.4052C15.0304 30.5694 15.0703 30.7257 15.1436 30.8695C15.2168 31.0132 15.3236 31.1443 15.4572 31.2555C15.7242 31.4779 16.098 31.6193 16.5136 31.6216L17.7289 31.6289L17.7272 31.8291Z" fill="#F7FDFE"/>
<path d="M22.9159 31.8594L22.9039 31.8593H22.9036L17.7285 31.8285L17.7302 31.6283L22.9048 31.6591H22.9045L22.9159 31.6591C22.9159 31.6591 22.916 31.6591 22.916 31.6591C23.2267 31.6591 23.5145 31.5813 23.7519 31.4495C23.9894 31.3176 24.1759 31.132 24.2867 30.9175C24.3606 30.7744 24.4014 30.6186 24.4024 30.4544L24.4055 29.9403L26.2723 29.9828L24.4188 27.7119L24.4255 26.5916V26.5922V26.5856C24.4254 26.4214 24.3855 26.2651 24.3122 26.1212C24.239 25.9775 24.1321 25.8464 23.9986 25.7352C23.7315 25.5129 23.3578 25.3715 22.9422 25.3691L17.7831 25.3384L17.7847 25.1382L22.9434 25.1689C23.2885 25.1709 23.6097 25.2591 23.8776 25.4101C24.1454 25.5611 24.3605 25.7752 24.4906 26.0303C24.5774 26.2003 24.6258 26.3886 24.6257 26.5856V26.5922V26.5928L24.6195 27.6411L26.5648 30.0246L26.7023 30.1929L24.6045 30.1451L24.6027 30.4556C24.6016 30.6525 24.5521 30.8403 24.4646 31.0095C24.377 31.1788 24.2517 31.3296 24.0986 31.4554C23.7923 31.7068 23.3747 31.8593 22.9159 31.8594Z" fill="#E4F9FA"/>
<path d="M22.2839 28.5947L21.8401 28.5921L21.8413 28.3919L22.2851 28.3945L22.2839 28.5947ZM21.3964 28.5895L20.9526 28.5868L20.9538 28.3866L21.3976 28.3892L21.3964 28.5895ZM20.5089 28.5842L20.0651 28.5816L20.0663 28.3813L20.5101 28.3839L20.5089 28.5842ZM19.6214 28.5789L19.1776 28.5763L19.1788 28.376L19.6226 28.3787L19.6214 28.5789ZM18.7338 28.5736L18.29 28.571L18.2912 28.3707L18.735 28.3733L18.7338 28.5736Z" fill="#E4F9FA"/>
<path d="M17.7559 28.5674L17.4023 28.5653L17.4035 28.365L17.7575 28.3671L17.7559 28.5674Z" fill="#F7FDFE"/>
<path d="M17.8461 28.5684L17.7559 28.5678L17.7575 28.3676L17.8473 28.3681L17.8461 28.5684Z" fill="#E4F9FA"/>
<path d="M16.9574 28.5625L16.8379 28.5618L16.8391 28.3615L16.9586 28.3622L16.9574 28.5625Z" fill="#F7FDFE"/>
<path d="M17.8783 13.8789L17.7637 13.8732L17.8794 13.7404L17.8783 13.8789ZM29.6049 11.5935L29.4047 11.5918L29.4112 10.4915V10.4854C29.4112 10.3215 29.3713 10.1655 29.2982 10.0219C29.2251 9.87844 29.1185 9.74757 28.9851 9.63664C28.7186 9.41466 28.3455 9.27353 27.9306 9.27118L21.5513 9.23323L21.5403 9.23318C21.5402 9.23318 21.5402 9.23318 21.5401 9.23318C21.23 9.23318 20.9427 9.31078 20.7057 9.44244C20.4686 9.57406 20.2824 9.75939 20.1718 9.97346C20.098 10.1163 20.0573 10.2718 20.0562 10.4357L20.0498 11.5157L19.8203 11.5138L19.8498 11.48L19.856 10.4345C19.8571 10.2379 19.9065 10.0504 19.994 9.88149C20.0814 9.71248 20.2065 9.56189 20.3594 9.43628C20.6652 9.18522 21.0821 9.03303 21.5403 9.03293L21.5525 9.03298L27.9318 9.07093C28.2764 9.07298 28.5971 9.16104 28.8646 9.31178C29.1319 9.46252 29.3467 9.67629 29.4766 9.93101C29.5632 10.1007 29.6115 10.2887 29.6115 10.4854V10.4927L29.6049 11.5935Z" fill="#F7FDFE"/>
<path d="M29.6059 11.5938L29.4057 11.5921L29.4057 11.5909L29.6059 11.5926V11.5938ZM20.0509 11.516L19.8203 11.5141L19.8213 11.513L20.0509 11.5148V11.516Z" fill="#DAF5F7"/>
<path d="M27.905 15.75H27.8927L21.5134 15.712C21.1688 15.7099 20.8481 15.6219 20.5806 15.4711C20.3133 15.3204 20.0985 15.1066 19.9685 14.852C19.882 14.6823 19.8336 14.4943 19.8337 14.2975L19.8337 14.2901V14.2904L19.8356 13.9746L17.9705 13.8827L17.8789 13.8782L17.8801 13.7397L19.8199 11.5143L20.0505 11.5161L20.0502 11.5548L18.1866 13.6929L20.037 13.784L20.034 14.2916V14.2918L20.0339 14.2975C20.034 14.4615 20.0739 14.6174 20.1469 14.761C20.2201 14.9045 20.3267 15.0354 20.46 15.1463C20.7266 15.3683 21.0997 15.5094 21.5146 15.5117L27.8938 15.5497H27.905C27.9051 15.5497 27.9051 15.5497 27.9051 15.5497C28.2152 15.5497 28.5025 15.4721 28.7395 15.3405C28.9766 15.2089 29.1628 15.0235 29.2734 14.8095C29.3472 14.6666 29.3879 14.5111 29.3889 14.3472L29.4053 11.5923L29.6056 11.5939L29.5892 14.3484C29.5881 14.545 29.5387 14.7326 29.4513 14.9014C29.3639 15.0704 29.2387 15.221 29.0858 15.3466C28.78 15.5977 28.3631 15.7499 27.905 15.75Z" fill="#E4F9FA"/>
<path d="M27.0386 12.0586L26.5948 12.056L26.596 11.8557L27.0397 11.8583L27.0386 12.0586ZM26.1511 12.0533L25.7073 12.0507L25.7085 11.8504L26.1523 11.8531L26.1511 12.0533ZM25.2636 12.048L24.8198 12.0454L24.821 11.8452L25.2647 11.8478L25.2636 12.048ZM24.376 12.0428L23.9323 12.0401L23.9335 11.8399L24.3772 11.8425L24.376 12.0428ZM23.4885 12.0375L23.0447 12.0349L23.0459 11.8346L23.4897 11.8373L23.4885 12.0375ZM22.601 12.0322L22.1572 12.0296L22.1584 11.8293L22.6022 11.832L22.601 12.0322Z" fill="#E4F9FA"/>
<path d="M26.0993 13.6416L25.6555 13.639L25.6567 13.4387L26.1005 13.4414L26.0993 13.6416ZM25.2118 13.6363L24.768 13.6337L24.7692 13.4334L25.213 13.4361L25.2118 13.6363ZM24.3243 13.631L23.8805 13.6284L23.8817 13.4282L24.3255 13.4308L24.3243 13.631ZM23.4367 13.6258L22.993 13.6231L22.9942 13.4229L23.4379 13.4255L23.4367 13.6258ZM22.5492 13.6205L22.1055 13.6179L22.1067 13.4176L22.5504 13.4203L22.5492 13.6205Z" fill="#E4F9FA"/>
<path d="M28.7545 22.8467C28.7524 22.8467 28.7504 22.8467 28.7484 22.8467L20.6141 22.7783C20.2188 22.775 19.901 22.4518 19.9043 22.0565L19.9308 18.908C19.9341 18.5148 20.254 18.1983 20.6464 18.1983C20.6485 18.1983 20.6505 18.1983 20.6526 18.1983L28.7869 18.2667C29.1822 18.27 29.4999 18.5932 29.4966 18.9885L29.4701 22.1369C29.4668 22.5302 29.147 22.8467 28.7545 22.8467Z" fill="#CFF3F6"/>
<path d="M25.3656 38.4326L23.7419 38.4217C23.6009 38.4207 23.4873 38.3057 23.4883 38.1647L23.4894 38.0037C23.4903 37.8627 23.6054 37.7492 23.7464 37.7501L25.3701 37.761C25.5111 37.7619 25.6246 37.877 25.6237 38.018L25.6226 38.179C25.6217 38.32 25.5066 38.4336 25.3656 38.4326Z" fill="#92FFDD"/>
<path d="M12.8955 33.5019L7.91211 34.1135C7.91211 34.1135 14.6582 38.4668 16.0486 38.4668C17.5852 38.4668 22.6284 36.0235 22.6284 36.0235L18.5899 33.4162L12.8955 33.5019Z" fill="#004381"/>
<path d="M18.3369 29.5858L20.6541 32.9314C20.6541 32.9314 20.1784 33.7316 20.1518 33.9273C19.9665 35.295 20.7884 35.4838 21.2157 35.3081C21.9588 35.0027 23.1023 33.1224 22.9768 32.7925C22.1552 30.6313 21.3488 28.5758 20.3977 26.5289C20.2521 26.2156 19.9813 25.449 19.781 25.6512C19.2954 26.1415 18.3341 30.3775 18.3369 29.5858Z" fill="#00D0BC"/>
<path d="M14.0744 29.4897L11.4366 32.1548C11.4366 32.1548 11.9399 32.8514 11.717 33.6281C11.6659 33.8058 11.2394 34.3586 10.7463 34.3964C9.9197 34.4598 8.72791 33.018 8.94363 31.9763C9.41116 29.7187 11.0485 28.227 11.9591 26.163C12.1632 25.7003 12.6111 25.1044 12.7882 25.2697C13.2935 25.7411 14.0772 30.2813 14.0744 29.4897Z" fill="#00D0BC"/>
<path d="M6.63701 35.6045L6.54785 36.9764C6.54785 36.9764 9.13149 38.7726 10.3842 39.2749C10.872 39.4704 14.9856 40.0176 14.9856 40.0176L15.3862 38.382L6.63701 35.6045Z" fill="#004381"/>
<path d="M15.6376 37.9391L20.1782 39.2371L20.1606 40.7393C20.1606 40.7393 18.0477 40.6514 17.4093 40.5916C17.0032 40.5536 15.0938 40.2616 15.0938 40.2616L15.6376 37.9391Z" fill="#FFD0CE"/>
<path d="M15.7689 38.0326L12.1572 39.3812L12.3094 40.7471C12.3094 40.7471 14.0372 40.5891 14.5563 40.5111C14.8864 40.4616 16.4285 40.1254 16.4285 40.1254L15.7689 38.0326Z" fill="#FFD0CE"/>
<path d="M18.9141 39.1359C18.9141 39.1359 19.9155 39.2035 20.3961 39.0789C20.6519 39.0125 21.1542 38.7066 21.3881 38.7191C21.9896 38.7511 22.402 39.7911 22.4604 40.1489C22.5037 40.4141 22.0303 40.8487 21.7523 40.8407C20.4514 40.8036 18.9246 40.707 18.9246 40.707L19.0327 40.3594C19.0962 40.1551 19.1037 39.9384 19.0546 39.7305L18.9141 39.1359Z" fill="#003977"/>
<path d="M10.7194 40.955C10.8392 41.0069 11.1765 41.0106 11.3046 40.983C11.7444 40.888 12.9611 40.6963 12.9611 40.6963C12.5879 40.4569 12.4065 40.0198 12.5054 39.5977L12.5891 39.2402L11.7609 38.9144C11.7609 38.9144 11.0721 39.1415 10.7888 39.5853C10.2056 40.499 10.4516 40.8388 10.7194 40.955Z" fill="#003977"/>
<path d="M16.9998 22.0079L15.3936 22.6512C15.346 22.6508 15.2272 23.5697 15.2267 23.6157L15.1602 25.1936C15.1555 25.7036 15.6318 26.1097 16.1597 26.1142C16.6877 26.1188 17.1936 25.7196 17.1983 25.2097L17.0853 22.0918C17.0857 22.0459 17.0475 22.0083 16.9998 22.0079Z" fill="#FFC7C4"/>
<path d="M12.4441 25.5743C12.7042 25.1315 14.9554 24.5386 14.9554 24.5386L16.1704 25.811L17.9137 24.5796C17.9137 24.5796 19.6329 25.2379 19.9938 25.8683C20.3077 26.4167 20.0183 28.9363 19.735 30.7391C19.4183 32.7544 19.4586 34.1251 19.3855 34.2348C19.1865 34.5336 18.645 34.6305 18.2965 34.7033C17.2956 34.9124 12.7535 35.0307 12.56 33.9226C12.4138 33.0857 12.6114 31.1728 12.5008 29.491C12.4508 28.7305 12.1997 25.9901 12.4441 25.5743Z" fill="#34EABE"/>
<path d="M16.1611 25.8034L16.6401 26.7129C17.3305 26.1121 18.8225 24.8172 18.8225 24.8172L17.7896 24.1525L16.1611 25.8034Z" fill="#00D0BC"/>
<path d="M16.1751 25.7985L15.666 26.708C14.9757 26.1072 14.1445 24.7345 14.1445 24.7345L14.9859 24.2268L16.1751 25.7985Z" fill="#00D0BC"/>
<path d="M18.1468 24.2355C18.9903 27.0405 17.5921 29.2196 17.5921 29.2196L16.2676 29.335C16.2676 29.335 17.3672 26.9325 17.1837 24.6929C17.1775 24.6171 17.1618 24.2967 17.1778 24.2262C17.299 23.6922 17.4957 23.2192 17.7692 23.5308C17.8344 23.6052 18.0998 24.0792 18.1468 24.2355Z" fill="#00649F"/>
<path d="M18.0868 19.7397C18.7816 20.4513 18.9648 22.0745 18.3017 22.7795C17.7283 23.3893 15.54 23.458 15.3601 23.432C13.4517 23.1565 13.6745 21.2381 14.0962 20.4638C14.8052 19.1619 16.7902 18.4119 18.0868 19.7397Z" fill="#00649F"/>
<path d="M17.7094 22.7294C17.6987 22.4944 17.8853 22.2955 18.1262 22.2852C18.3673 22.2749 18.5714 22.457 18.5821 22.692C18.5929 22.9271 18.4063 23.126 18.1653 23.1363C17.9243 23.1466 17.7202 22.9645 17.7094 22.7294Z" fill="#FFC7C4"/>
<path d="M14.6548 22.7107C14.6548 22.946 14.4593 23.1367 14.218 23.1367C13.9768 23.1367 13.7812 22.946 13.7812 22.7107C13.7812 22.4755 13.9768 22.2847 14.218 22.2847C14.4593 22.2847 14.6548 22.4755 14.6548 22.7107Z" fill="#FFC7C4"/>
<path d="M18.1019 22.73C18.1019 24.1342 17.0934 25.1973 16.216 25.1973C15.2896 25.1973 14.3418 24.1342 14.3418 22.73C14.3418 21.3258 15.1835 20.1874 16.2219 20.1874C17.2602 20.1874 18.1019 21.3258 18.1019 22.73Z" fill="#FFD0CE"/>
<path d="M17.1976 20.2661C18.4425 20.7677 18.5133 22.1182 18.4415 22.4344C18.3759 22.7232 18.1732 22.9235 18.096 22.9173C17.2193 22.847 15.08 21.6291 15.08 21.6291C15.08 21.6291 13.8847 22.497 14.7342 25.709C14.7342 25.709 14.0311 24.5209 13.9952 22.8872C13.9497 20.8198 15.391 19.5381 17.1976 20.2661Z" fill="#00649F"/>
<path d="M17.9826 33.8931C17.9975 33.8834 18.3281 33.6238 18.5677 33.6221C19.047 33.6187 19.5394 33.9745 20.0331 33.8422C20.198 33.798 20.4764 33.8258 20.6312 33.8964L20.952 34.0427C21.2005 34.1561 21.2819 34.4639 21.1131 34.6733C20.9392 34.8891 20.6941 35.1055 20.4095 35.108C20.1201 35.1106 19.7201 34.9171 19.4308 34.9139C19.2614 34.9119 18.9888 35.16 18.829 35.214C18.7753 35.2322 18.6605 35.2725 18.606 35.2569C18.5834 35.2504 18.5356 35.1962 18.5356 35.1962C18.5356 35.1962 18.3595 35.3163 18.2903 35.3246C18.2254 35.3324 18.0369 35.262 18.0369 35.262L18.7426 34.4646L18.2458 34.7003C18.2458 34.7003 17.9784 34.9403 17.8655 34.9707C17.7355 35.0055 17.6628 34.9023 17.6628 34.9023L18.4129 34.0302C18.4129 34.0302 17.8302 34.3064 17.6458 34.269C17.5639 34.2525 17.4492 34.1605 17.4492 34.1605L17.9826 33.8931Z" fill="#FFD0CE"/>
<path d="M13.0422 32.1742C13.0243 32.173 12.6036 32.1079 12.3952 32.2221C11.9784 32.4507 11.7363 32.9966 11.2403 33.1205C11.0745 33.1619 10.8479 33.3203 10.7503 33.4563L10.5483 33.738C10.3919 33.9562 10.4808 34.262 10.7354 34.3618C10.9976 34.4647 11.3219 34.5337 11.5698 34.3984C11.8216 34.261 12.0679 33.9002 12.3167 33.7576C12.4623 33.6742 12.8269 33.7573 12.9933 33.7269C13.0491 33.7167 13.1695 33.6961 13.2085 33.6563C13.2247 33.6398 13.2381 33.5698 13.2381 33.5698C13.2381 33.5698 13.4528 33.5888 13.5171 33.5624C13.5773 33.5378 13.704 33.3859 13.704 33.3859L12.68 33.0362L13.2323 33.0003C13.2323 33.0003 13.5881 33.079 13.7016 33.0507C13.8323 33.0182 13.8418 32.8936 13.8418 32.8936L12.7406 32.5007C12.7406 32.5007 13.3881 32.4585 13.5286 32.337C13.591 32.2831 13.6426 32.1482 13.6426 32.1482L13.0422 32.1742Z" fill="#FFD0CE"/>
<path d="M11.973 31.2295L20.3069 31.4552C20.4665 31.4596 20.5854 31.5842 20.5602 31.7207L19.6837 36.4492L11.6963 36.1293L11.6999 31.4586C11.7 31.3291 11.8237 31.2255 11.973 31.2295Z" fill="#71EAEC"/>
<path d="M6.04361 35.2961C5.88516 35.7315 6.1558 36.7587 6.48631 37.092C7.29443 37.907 10.7013 39.0419 10.7013 39.0419L16.5633 40.7559L17.602 38.9766L10.0283 34.6632C10.0283 34.6632 8.37969 33.9272 7.79686 33.9791C7.24391 34.0283 6.22774 34.7901 6.04361 35.2961Z" fill="#00649F"/>
<path d="M15.3896 38.6247C15.3896 38.6247 20.258 35.9615 22.6025 34.4511C23.1465 34.1005 24.7688 34.555 25.1369 35.077C25.4744 35.5556 25.2129 36.9227 24.8388 37.3753C23.5863 38.8906 16.6141 39.7744 16.6141 39.7744L15.3896 38.6247Z" fill="#00649F"/>
<path d="M16.3634 32.9445C16.3634 33.0909 16.2264 33.1582 16.0572 33.1582C15.8881 33.1582 15.751 33.0909 15.751 32.9445C15.751 32.7981 15.8881 32.7254 16.0572 32.7254C16.2264 32.7254 16.3634 32.7981 16.3634 32.9445Z" fill="#BDFFD8"/>
<path d="M11.8822 0.757416C11.8909 0.748004 11.9029 0.743194 11.9148 0.743194C11.9257 0.743194 11.9366 0.747153 11.9452 0.755113C11.9632 0.771884 11.9642 0.800168 11.9475 0.81819C11.9307 0.836113 11.9025 0.837165 11.8844 0.820444C11.8665 0.803673 11.8655 0.775439 11.8822 0.757416ZM11.9618 1.16928C11.8777 1.29359 11.8793 1.45539 11.9642 1.57749L11.8857 1.6619L11.0451 0.88027L11.1233 0.796215C11.2544 0.883024 11.4243 0.876013 11.5469 0.779592L11.7164 0.646276C11.6461 0.744849 11.6571 0.882521 11.7481 0.967127C11.7952 1.01088 11.855 1.03251 11.9147 1.03251C11.9804 1.03251 12.046 1.00627 12.0941 0.954509C12.186 0.855635 12.1804 0.700445 12.0815 0.608479C12.0102 0.542196 11.9099 0.527475 11.8249 0.561017L11.9725 0.444871C11.9925 0.429201 12.0129 0.414284 12.0338 0.399966L12.307 0.654034C12.2941 0.676012 12.2806 0.697687 12.2663 0.719013L11.9618 1.16928ZM12.4598 0.216386C12.4463 0.285322 12.422 0.381892 12.3977 0.464695L12.2161 0.295983C12.2982 0.265394 12.3923 0.234609 12.4598 0.216386ZM12.6319 0.0317061C12.5939 -0.0035882 12.5494 -0.0416365 12.1447 0.108702L12.138 0.111455C12.0353 0.158263 11.938 0.217436 11.8488 0.287373L11.4231 0.622193C11.3685 0.665147 11.2928 0.668252 11.2348 0.629854L11.2186 0.619088C11.1455 0.570678 11.0489 0.582142 10.9892 0.646422L10.8303 0.817237C10.7927 0.857738 10.795 0.92107 10.8355 0.958767L11.0788 1.185C11.0614 1.1897 11.045 1.19892 11.0319 1.21309L10.7856 1.47792C10.748 1.51842 10.7503 1.58175 10.7907 1.61944C10.81 1.63737 10.8345 1.64623 10.8589 1.64623C10.8857 1.64623 10.9125 1.63551 10.9322 1.61429L11.1785 1.34946C11.1917 1.33529 11.1997 1.31827 11.2031 1.3006L11.2654 1.35852C11.248 1.36327 11.2317 1.37248 11.2185 1.38665L10.7465 1.89419C10.7089 1.93469 10.7112 1.99802 10.7517 2.03572C10.7709 2.05364 10.7954 2.0625 10.8198 2.0625C10.8467 2.0625 10.8735 2.05179 10.8932 2.03056L11.3651 1.52298C11.3783 1.50881 11.3863 1.49184 11.3898 1.47416L11.455 1.53489C11.4377 1.53965 11.4213 1.5488 11.4081 1.56297L11.1619 1.82781C11.1242 1.86831 11.1265 1.93163 11.167 1.96933C11.1863 1.98725 11.2107 1.99612 11.2352 1.99612C11.262 1.99612 11.2888 1.98536 11.3085 1.96418L11.5548 1.69934C11.5679 1.68518 11.5759 1.66816 11.5794 1.65048L11.8228 1.87677C11.8413 1.89399 11.8657 1.90355 11.8909 1.90355L11.8945 1.90345C11.9211 1.9025 11.9462 1.89104 11.9642 1.87161L12.1231 1.70075C12.1828 1.63647 12.1873 1.53939 12.1336 1.46991C12.091 1.41484 12.0887 1.3391 12.1276 1.28142L12.4323 0.830956C12.496 0.736187 12.548 0.635312 12.5866 0.531131L12.5888 0.524624C12.7121 0.106249 12.6695 0.0665998 12.6319 0.0317061Z" fill="#DCF5F9"/>
<path d="M5.05889 13.3359C5.04077 13.3359 5.02235 13.331 5.00588 13.3207L4.52943 13.0225C4.48257 12.9932 4.46835 12.9314 4.49769 12.8845C4.52702 12.8376 4.5888 12.8234 4.63566 12.8527L5.11211 13.1509C5.15897 13.1802 5.17319 13.2421 5.14385 13.2889C5.12487 13.3193 5.09223 13.3359 5.05889 13.3359Z" fill="#DCF5F9"/>
<path d="M3.22426 13.3359C3.19031 13.3359 3.15727 13.3187 3.13845 13.2875C3.10986 13.2402 3.12508 13.1786 3.17244 13.1501L3.66651 12.8519C3.71387 12.8233 3.7754 12.8386 3.80398 12.8859C3.83252 12.9332 3.8173 12.9948 3.76999 13.0233L3.27592 13.3215C3.2597 13.3313 3.24188 13.3359 3.22426 13.3359Z" fill="#DCF5F9"/>
<path d="M4.14726 12.7939C4.11076 12.7939 4.07427 12.7824 4.04308 12.7595L3.16468 12.1104C3.12017 12.0775 3.11076 12.0148 3.14365 11.9704C3.17649 11.9259 3.23917 11.9165 3.28368 11.9493L4.14726 12.5874L5.01084 11.9493C5.0553 11.9164 5.11803 11.9259 5.15087 11.9704C5.18376 12.0148 5.17435 12.0775 5.12984 12.1104L4.25144 12.7594C4.22025 12.7824 4.18375 12.7939 4.14726 12.7939Z" fill="#DCF5F9"/>
<path d="M3.32427 13.1796H4.97019V12.1297H3.32427V13.1796ZM5.07031 13.3799H3.22415C3.16888 13.3799 3.12402 13.335 3.12402 13.2798V12.0296C3.12402 11.9743 3.16888 11.9295 3.22415 11.9295H5.07031C5.12563 11.9295 5.17044 11.9743 5.17044 12.0296V13.2798C5.17044 13.335 5.12563 13.3799 5.07031 13.3799Z" fill="#DCF5F9"/>
<path d="M36.3465 4.60045C36.3192 4.61767 36.3019 4.64701 36.3 4.67925C36.2979 4.71585 36.2916 4.75234 36.2812 4.78774C36.272 4.81877 36.2785 4.85232 36.2985 4.87775L36.373 4.97262L36.3401 5.02463L36.2225 4.9981C36.191 4.99094 36.158 4.9995 36.1339 5.02098C36.1063 5.04546 36.0761 5.06683 36.0437 5.08461C36.0155 5.10013 35.9965 5.12826 35.9926 5.1603L35.978 5.28L35.9181 5.29352L35.8537 5.19169C35.8365 5.16436 35.8071 5.14704 35.7749 5.14518C35.7382 5.14308 35.7017 5.13677 35.6664 5.12641C35.6571 5.12371 35.6477 5.12235 35.6383 5.12235C35.6161 5.12235 35.5943 5.12971 35.5764 5.14373L35.4816 5.21812L35.4295 5.18523L35.4561 5.06774C35.4632 5.03625 35.4547 5.00326 35.4332 4.97913C35.4088 4.95169 35.3873 4.92135 35.3694 4.88881C35.3538 4.86063 35.3257 4.8416 35.2937 4.8378L35.1742 4.82333L35.1606 4.76325L35.2624 4.69892C35.2896 4.68175 35.3069 4.65252 35.3089 4.62038C35.3111 4.58348 35.3175 4.54678 35.3279 4.51134C35.3369 4.4804 35.3304 4.44701 35.3105 4.42158L35.2361 4.32676L35.269 4.27469L35.3866 4.30122C35.4181 4.30828 35.451 4.29987 35.4752 4.2784C35.5029 4.25371 35.5332 4.23234 35.5652 4.21482C35.5936 4.1993 35.6127 4.17101 35.6166 4.13892L35.6309 4.01932L35.691 4.00585L35.7554 4.10773C35.7726 4.13502 35.802 4.15229 35.8342 4.15414C35.8706 4.15629 35.9072 4.1626 35.9429 4.17296C35.9739 4.18197 36.0073 4.17557 36.0327 4.15559L36.1275 4.08115L36.1795 4.11404L36.1529 4.23159C36.1458 4.26313 36.1543 4.29617 36.1758 4.3203C36.2003 4.34773 36.2217 4.37807 36.2395 4.41046C36.255 4.43875 36.2833 4.45777 36.3153 4.46163L36.4349 4.47599L36.4484 4.53607L36.3465 4.60045ZM36.6147 4.363C36.6053 4.32165 36.571 4.29066 36.5289 4.2856L36.3877 4.26864C36.3787 4.25477 36.3691 4.2412 36.3591 4.22803L36.3904 4.08931C36.3998 4.04796 36.3821 4.0052 36.3463 3.98258L36.1748 3.87414C36.139 3.85151 36.0928 3.85381 36.0595 3.88L35.9475 3.96786C35.9313 3.96445 35.915 3.9616 35.8985 3.95935L35.8225 3.83909C35.7999 3.80335 35.7572 3.78578 35.7159 3.79494L35.518 3.8395C35.4767 3.84881 35.4457 3.88315 35.4406 3.92525L35.4236 4.06643C35.4097 4.07549 35.3962 4.08505 35.3829 4.09512L35.2442 4.06383C35.2029 4.05467 35.1601 4.07219 35.1375 4.10798L35.0291 4.27945C35.0065 4.31524 35.0088 4.3614 35.0349 4.39474L35.1227 4.50668C35.1193 4.5229 35.1165 4.53927 35.1142 4.55569L34.9939 4.63169C34.9581 4.65432 34.9404 4.69702 34.9497 4.73837L34.9943 4.93627C35.0037 4.97762 35.038 5.00861 35.08 5.01367L35.2212 5.03074C35.2303 5.04466 35.2399 5.05822 35.2499 5.07139L35.2186 5.21006C35.2093 5.25137 35.227 5.29407 35.2628 5.31675L35.4342 5.42519C35.47 5.44776 35.5163 5.44541 35.5495 5.41933L35.6615 5.33152C35.6778 5.33492 35.6941 5.33778 35.7105 5.33998L35.7864 5.46018C35.8051 5.48967 35.8373 5.50684 35.8711 5.50684C35.8784 5.50684 35.8858 5.50604 35.8931 5.50443L36.091 5.45983C36.1323 5.45052 36.1632 5.41622 36.1684 5.37422L36.1854 5.23294C36.1994 5.22383 36.2129 5.21427 36.2261 5.20421L36.3649 5.23555C36.4063 5.24491 36.449 5.22719 36.4716 5.19134L36.58 5.01977C36.6026 4.98398 36.6003 4.93782 36.5741 4.90453L36.4863 4.79269C36.4898 4.77642 36.4926 4.76005 36.4948 4.74358L36.6151 4.66763C36.6509 4.64501 36.6686 4.6023 36.6593 4.56095L36.6147 4.363Z" fill="#DCF5F9"/>
<path d="M35.9012 4.71108C35.8849 4.73696 35.8594 4.75493 35.8295 4.76164C35.7996 4.76845 35.7689 4.76309 35.743 4.74677C35.7171 4.7304 35.6991 4.70492 35.6924 4.67503C35.6857 4.64509 35.691 4.61435 35.7073 4.58842C35.7237 4.56254 35.7492 4.54457 35.7791 4.53786C35.7876 4.53596 35.7961 4.53501 35.8045 4.53501C35.826 4.53501 35.8471 4.54106 35.8656 4.55278C35.8915 4.56915 35.9094 4.59463 35.9162 4.62452C35.9229 4.6544 35.9176 4.68514 35.9012 4.71108ZM35.9726 4.38351C35.9015 4.33856 35.8171 4.32399 35.7351 4.34251C35.653 4.36099 35.583 4.41035 35.5381 4.48149C35.4932 4.55258 35.4786 4.63693 35.4971 4.71904C35.5155 4.80109 35.5649 4.87102 35.636 4.91598C35.687 4.94822 35.7447 4.96484 35.8036 4.96484C35.8269 4.96484 35.8503 4.96224 35.8736 4.95698C35.9556 4.93851 36.0256 4.8892 36.0705 4.81806C36.1155 4.74692 36.13 4.66256 36.1115 4.58051C36.0931 4.49841 36.0437 4.42847 35.9726 4.38351Z" fill="#DCF5F9"/>
<path d="M37.1138 3.84105L37.0836 3.68321C37.0757 3.64155 37.0424 3.60946 37.0005 3.603L36.8986 3.58733C36.8948 3.58128 36.8909 3.57537 36.8868 3.56946L36.9129 3.46974C36.9236 3.42873 36.9074 3.38543 36.8723 3.3616L36.7394 3.27129C36.7044 3.24746 36.6581 3.24831 36.624 3.27334L36.5407 3.33432C36.5338 3.33271 36.5268 3.33126 36.5198 3.32996L36.4676 3.241C36.4462 3.20446 36.4041 3.18538 36.3625 3.19334L36.2047 3.22343C36.163 3.23134 36.1309 3.26463 36.1244 3.30653L36.1087 3.40841C36.1027 3.41221 36.0967 3.41612 36.0908 3.42012L35.9911 3.39414C35.9501 3.38353 35.9068 3.39975 35.883 3.43474L35.7927 3.56771C35.7689 3.60275 35.7697 3.64896 35.7947 3.68315L35.8842 3.80531C35.9169 3.84996 35.9795 3.85963 36.0241 3.82694C36.0688 3.7943 36.0784 3.73162 36.0458 3.68701L35.9981 3.62183L36.0089 3.60576L36.0872 3.62613C36.1184 3.63419 36.1516 3.62688 36.1764 3.60626C36.1979 3.58839 36.2211 3.57317 36.2454 3.56085C36.2743 3.54628 36.2944 3.51865 36.2993 3.48671L36.3116 3.40686L36.3306 3.40325L36.3715 3.47294C36.3879 3.50078 36.4166 3.51905 36.4487 3.522C36.476 3.52446 36.5033 3.53011 36.5298 3.53882C36.5605 3.54883 36.5941 3.54348 36.62 3.5244L36.6853 3.47664L36.7013 3.48751L36.6809 3.56571C36.6727 3.59694 36.6802 3.63024 36.7008 3.65507C36.7185 3.67625 36.7338 3.69952 36.7463 3.7242C36.7609 3.75299 36.7885 3.77296 36.8203 3.77787L36.9001 3.79019L36.9038 3.80926L36.8341 3.85011C36.8063 3.86643 36.788 3.89522 36.7851 3.92736C36.7826 3.95474 36.7769 3.98188 36.7682 4.00811C36.7581 4.03885 36.7635 4.07259 36.7826 4.09872L36.8197 4.14939L36.7144 4.12015C36.6611 4.10553 36.6059 4.13657 36.5912 4.18984C36.5763 4.24311 36.6075 4.29827 36.6608 4.31309L36.8389 4.36256C36.8477 4.36501 36.8568 4.36621 36.8657 4.36621C36.8949 4.36621 36.9232 4.35339 36.9426 4.33026L37.0298 4.22583C37.0592 4.19054 37.0609 4.13963 37.0336 4.10248L36.9727 4.01943C36.9743 4.01247 36.9758 4.00541 36.9771 3.9984L37.0661 3.94623C37.1026 3.92481 37.1217 3.8827 37.1138 3.84105Z" fill="#DCF5F9"/>
<path d="M9.11492 18.3898C9.03667 18.3898 8.95847 18.4196 8.8989 18.4791C8.77975 18.5983 8.77975 18.7921 8.8989 18.9112L9.64058 19.6529L10.3823 18.9112C10.5014 18.7921 10.5014 18.5983 10.3823 18.4791C10.2632 18.3601 10.0693 18.3601 9.95017 18.4791L9.71137 18.7179C9.67227 18.7571 9.60889 18.7571 9.56979 18.7179L9.33099 18.4791C9.27142 18.4196 9.19317 18.3898 9.11492 18.3898ZM9.64263 19.8926C9.63647 19.8903 9.62852 19.8918 9.62161 19.8903C9.60173 19.8873 9.58276 19.8783 9.56769 19.8632L8.75727 19.0528C8.56008 18.8556 8.56008 18.5347 8.75727 18.3375C8.95452 18.1403 9.27537 18.1403 9.47257 18.3375L9.64058 18.5055L9.80859 18.3375C10.0058 18.1403 10.3266 18.1403 10.5238 18.3375C10.7211 18.5347 10.7211 18.8556 10.5239 19.0528L9.71347 19.8632C9.6947 19.882 9.66922 19.8926 9.64263 19.8926Z" fill="#DCF5F9"/>
<path d="M3.63581 2.41016L3.47266 2.29401L3.88522 1.71459L4.49188 2.12345L4.37999 2.28946L3.93514 1.98973L3.63581 2.41016Z" fill="#DCF5F9"/>
<path d="M10.4141 9.30662L10.8435 9.36809L10.902 8.95898L10.4727 8.8975L10.4141 9.30662ZM11.0133 9.59473L10.1875 9.47648L10.3028 8.67097L11.1286 8.78912L11.0133 9.59473Z" fill="#DCF5F9"/>
<path d="M40.2586 10.9697L40.2266 10.772L40.5211 10.7243L40.5532 10.922L40.2586 10.9697Z" fill="#DCF5F9"/>
<path d="M40.5527 10.6484L40.5059 10.3593L40.7035 10.3274L40.7503 10.6164L40.5527 10.6484Z" fill="#DCF5F9"/>
<path d="M40.8757 10.8701L40.8438 10.6724L41.1224 10.6273L41.1544 10.825L40.8757 10.8701Z" fill="#DCF5F9"/>
<path d="M40.6559 11.2793L40.6064 10.9737L40.8041 10.9418L40.8536 11.2473L40.6559 11.2793Z" fill="#DCF5F9"/>
<path d="M24.1086 1.16262C24.0633 1.16262 24.0187 1.17524 23.9793 1.19982C23.9236 1.23447 23.8847 1.28879 23.8697 1.35272C23.839 1.48468 23.9214 1.61709 24.0534 1.64778C24.1855 1.67842 24.3178 1.59607 24.3485 1.46415C24.3792 1.33219 24.2968 1.19982 24.1648 1.16908C24.1461 1.16478 24.1273 1.16262 24.1086 1.16262ZM24.1091 1.85449C24.0757 1.85449 24.0419 1.85074 24.0081 1.84283C23.7685 1.78706 23.619 1.54686 23.6747 1.30736C23.7017 1.19131 23.7723 1.09274 23.8734 1.02976C23.9746 0.966878 24.0942 0.947004 24.2102 0.974038C24.4497 1.02981 24.5992 1.27001 24.5435 1.50951C24.4956 1.71517 24.3117 1.85449 24.1091 1.85449Z" fill="#DCF5F9"/>
<path d="M2.34377 30.664L2.77316 30.7255L2.83168 30.3164L2.40235 30.2549L2.34377 30.664ZM2.94302 30.9521L2.11719 30.8339L2.23248 30.0284L3.05832 30.1465L2.94302 30.9521Z" fill="#DCF5F9"/>
</svg>
