<svg width="60" height="60" viewBox="0 0 60 60" fill="none" xmlns="http://www.w3.org/2000/svg">
<path d="M10.9494 39.8124H20.7883V41.3723H10.9494V39.8124ZM35.8161 15.3313C33.7789 15.3313 32.1217 13.6741 32.1217 11.6368C32.1217 9.59958 33.7789 7.94238 35.8161 7.94238C37.8534 7.94238 39.5106 9.59958 39.5106 11.6368C39.5106 13.6741 37.8534 15.3313 35.8161 15.3313ZM35.8161 9.58434C34.6845 9.58434 33.7636 10.5052 33.7636 11.6368C33.7636 12.7685 34.6845 13.6893 35.8161 13.6893C36.9478 13.6893 37.8686 12.7685 37.8686 11.6368C37.8686 10.5052 36.9478 9.58434 35.8161 9.58434Z" fill="#FFB612"/>
<path d="M30.0692 43.8922H12.0074C11.5558 43.8922 10.9494 44.4356 10.9494 44.8872V49.1974C10.9494 50.8907 12.6641 52.1713 14.4703 52.1713H27.6062C29.4124 52.1713 30.6273 50.7983 30.6273 48.9921V44.8872C30.6272 44.4356 30.5207 43.8922 30.0692 43.8922ZM45.0856 38.3193V47.3502C45.0856 47.8017 44.8881 47.9718 44.4365 47.9718H34.8268V42.4242C34.8268 42.1984 35.0012 41.9932 35.1531 41.8454C35.1859 41.8084 35.2691 41.7715 35.3143 41.7427C35.3389 41.7304 35.3804 41.714 35.4051 41.7017C35.52 41.636 35.666 41.4837 35.8056 41.4837C35.822 41.4837 35.8448 41.3725 35.8571 41.3725H35.8982L35.9023 41.4837C37.1132 41.4427 38.1066 40.5808 38.2544 39.4027L38.3119 39.2796L38.279 37.293H44.4364C44.8881 37.293 45.0856 37.8677 45.0856 38.3193Z" fill="#E0E0E0"/>
<path d="M24.088 20.1348H47.0654V21.6946H24.088V20.1348ZM26.5477 24.2143H44.6657V25.8941H26.5477V24.2143ZM29.0674 28.2939H42.2059V29.9737H29.0674V28.2939Z" fill="#262626"/>
<path d="M53.0569 7.77583H49.085L46.0079 4.53625C45.5401 4.04239 44.7067 3.69629 44.026 3.69629H26.7852C26.0933 3.69629 25.2611 4.06123 24.8057 4.58155L21.9965 7.77583H18.5753C16.7645 7.77583 15.149 9.41533 15.149 11.2261V32.0368C14.6691 31.8525 14.1466 31.6893 13.5782 31.6893C11.141 31.6893 9.18988 33.6329 8.79747 35.7327H5.43946C4.53386 35.7327 3.57031 36.5922 3.57031 37.4978V39.1398C3.57031 40.498 4.68295 41.6027 6.04114 41.6027C6.49373 41.6027 6.86994 41.9712 6.86994 42.4238V49.8127C6.86994 53.4342 10.0279 56.2504 13.6494 56.2504H52.236C54.4993 56.2504 56.1244 54.539 56.1244 52.2757V11.2261C56.1244 9.41533 54.8677 7.77583 53.0569 7.77583ZM53.0569 9.45564C53.9625 9.45564 54.5045 10.3205 54.5045 11.2261V13.8758L50.6385 9.45564H53.0569ZM18.5753 9.45564H20.5582L16.7088 13.7223V11.2261C16.7088 10.3205 17.6697 9.45564 18.5753 9.45564ZM13.6493 33.3313C14.3964 33.3313 15.1025 33.6083 15.6813 34.0681C15.7354 34.11 15.7881 34.1146 15.8414 34.1624C15.6041 34.6661 15.439 35.3127 15.3569 35.7327H10.4744C10.84 34.4128 12.1226 33.3313 13.6493 33.3313ZM26.7196 35.7327C26.6374 35.3127 26.4719 34.6799 26.234 34.1755C26.2678 34.1448 26.2994 34.1426 26.3336 34.1132C26.9207 33.6248 27.6513 33.3159 28.4271 33.3159C29.9536 33.3159 31.2373 34.4128 31.6043 35.7326H26.7196V35.7327ZM25.0603 35.7327H17.0162C17.398 34.0529 19.0575 32.4487 21.0383 32.4487C23.019 32.4487 24.6785 34.0529 25.0603 35.7327ZM13.6493 54.5106C10.933 54.5106 8.54969 52.529 8.54969 49.8127V42.4238C8.54969 41.0656 7.46706 39.9608 6.10887 39.9608C5.65628 39.9608 5.31006 39.5924 5.31006 39.1398V37.2926H36.4466V39.1398C36.4466 39.5924 36.0704 39.9608 35.6178 39.9608C34.2596 39.9608 33.1469 41.0657 33.1469 42.4238V49.8128C33.1469 52.5291 31.1435 54.5107 28.4271 54.5107L13.6493 54.5106ZM38.1264 37.2925H44.4365C44.8891 37.2925 45.0856 37.8662 45.0856 38.3188V47.3497C45.0856 47.8023 44.8891 47.9713 44.4365 47.9713H34.8268V42.4238C34.8268 41.9712 35.203 41.6027 35.6556 41.6027C37.0137 41.6027 38.1264 40.4979 38.1264 39.1398V37.2925ZM54.5045 52.2757C54.5045 53.6339 53.5941 54.5106 52.2359 54.5106H32.7569C34.1256 53.3107 34.9951 51.7509 34.9951 49.6511H44.4365C45.7947 49.6511 46.6454 48.7079 46.6454 47.3497V38.3188C46.6454 36.9606 45.7947 35.7327 44.4365 35.7327H33.279C32.8867 33.6329 30.8643 31.6893 28.4271 31.6893C27.2793 31.6893 26.1966 32.1112 25.3202 32.8264C24.267 31.647 22.628 30.9145 20.926 30.9145C19.3185 30.9145 17.9086 31.5951 16.7088 32.6624V17.794C16.7088 17.0717 17.183 15.93 17.6011 15.3239L25.9851 5.73516C26.1257 5.57402 26.5711 5.31611 26.7852 5.31611H44.026C44.2533 5.31611 44.659 5.57198 44.8153 5.73714L53.7835 15.3548C54.2217 15.9321 54.5045 17.0821 54.5045 17.794V52.2757Z" fill="#262626"/>
</svg>
